<svg width="62" height="66" viewBox="0 0 62 66" fill="none" xmlns="http://www.w3.org/2000/svg">
    <g clip-path="url(#clip0_339_2497)">
        <path
            d="M0.62323 66.0003C-0.104481 65.3812 -0.174262 65.0893 0.319187 64.2438C1.24627 62.6585 2.07865 60.9926 3.1752 59.5331C5.39323 56.5839 8.48849 55.0791 12.0722 54.5305C12.3663 54.4852 12.6554 54.4097 12.9495 54.3997C13.5077 54.3795 13.9214 54.7268 13.9563 55.2553C13.9912 55.7938 13.727 56.1763 13.2086 56.3021C12.5507 56.4631 11.8679 56.5436 11.2149 56.7148C10.3626 56.9362 9.52523 57.218 8.57821 57.5099C8.98692 58.0485 9.28598 58.4813 9.63489 58.8789C9.72959 58.9845 9.96884 59.0298 10.1234 58.9946C12.8398 58.4158 15.5513 57.8169 18.2677 57.2382C19.8777 56.8959 21.4976 56.5839 23.2371 56.2366C22.7237 55.6931 22.3001 55.22 21.8465 54.7872C21.7617 54.7016 21.5375 54.7268 21.3879 54.752C20.2814 54.9583 19.1799 55.1697 18.0733 55.3861C17.1313 55.5723 16.583 55.3559 16.4534 54.7369C16.3089 54.0424 16.6728 53.6649 17.6746 53.4686C18.7761 53.2472 19.8777 53.0308 21.039 52.7993C21.0689 51.6165 21.6122 50.6905 22.4845 49.9255C22.634 49.7947 22.7138 49.5179 22.7187 49.3115C22.7387 48.0433 22.7486 46.775 22.7138 45.5118C22.7088 45.2551 22.5592 44.933 22.3698 44.7569C21.6272 44.0523 20.8446 43.3879 20.0721 42.7135C17.9537 40.8665 16.7675 38.5464 16.6877 35.7079C16.6728 35.1593 16.4734 34.9077 16.0198 34.6359C13.1688 32.9248 11.6535 30.3832 11.6087 27.0163C11.5887 25.5769 12.2317 24.4344 13.423 23.6745C13.8865 23.3776 14.0709 23.0806 14.0111 22.5522C13.9712 22.1949 14.0012 21.8224 14.0012 21.4097C12.5507 21.148 12.3214 20.1113 12.3763 18.8581C12.4211 17.8516 12.3763 16.84 12.3912 15.8284C12.3962 15.5113 12.446 15.1842 12.5457 14.8872C12.7551 14.2732 12.9495 13.6391 13.2734 13.0855C13.6523 12.4363 14.1656 11.8625 14.6043 11.2485C14.7638 11.0271 14.9731 10.7855 14.993 10.5389C15.0778 9.42667 15.5762 8.59626 16.4684 7.96213C16.6478 7.83631 16.8123 7.59473 16.8472 7.37832C17.2011 5.25952 18.2877 4.1825 20.401 3.8755C20.5605 3.85034 20.7499 3.72955 20.8347 3.59367C21.4527 2.57704 22.3649 2.09893 23.5162 1.96304C23.7455 1.93788 24.0147 1.7718 24.1592 1.58558C25.2707 0.121041 27.0252 -0.352042 28.7149 0.357582C28.9442 0.453205 29.2931 0.453205 29.5174 0.347516C30.5092 -0.110468 31.4712 -0.110468 32.4681 0.347516C32.6974 0.453205 33.0413 0.46327 33.2705 0.367647C34.9602 -0.347009 36.7197 0.121041 37.8262 1.58055C37.9708 1.76676 38.2349 1.94291 38.4642 1.96807C39.6156 2.09389 40.5227 2.58207 41.1558 3.5836C41.2505 3.72955 41.4698 3.85537 41.6442 3.88053C43.5981 4.13217 44.7794 5.28972 45.1233 7.24747C45.1681 7.51924 45.3625 7.82121 45.5768 7.98729C46.4142 8.64155 46.9126 9.45183 46.9924 10.5389C47.0123 10.7855 47.1918 11.0774 47.3911 11.2385C48.1986 11.9028 48.7519 12.703 48.8914 13.7649C48.9114 13.936 48.9014 14.1575 49.0011 14.2581C49.669 14.9476 49.5294 15.8032 49.5344 16.6286C49.5394 17.615 49.5444 18.6065 49.5344 19.5929C49.5194 20.524 49.2004 20.9417 48.3581 21.299C48.1986 21.3695 48.0989 21.606 48.0042 21.7822C47.9594 21.8677 48.0092 21.9935 47.9942 22.0992C47.8746 22.8843 48.1189 23.3876 48.8266 23.8758C50.2322 24.8421 50.5811 26.3469 50.3618 27.9826C49.9531 31.0123 48.4279 33.2972 45.7613 34.7668C45.4223 34.953 45.3775 35.1795 45.3226 35.5217C45.1382 36.6541 44.9438 37.7915 44.6547 38.9037C44.4653 39.6284 43.9071 39.8801 43.3439 39.6637C42.7956 39.4523 42.681 38.9239 42.8504 38.1991C43.0897 37.1875 43.3489 36.1508 43.3688 35.1191C43.4336 31.8779 43.3887 28.6318 43.3987 25.3907C43.3987 24.9931 43.3339 24.7264 42.9451 24.52C42.1526 24.1023 41.8436 23.3172 41.5894 22.5019C41.2305 21.3745 41.2156 21.3795 40.0343 21.3795C33.8437 21.3795 27.6532 21.3846 21.4627 21.3644C20.9493 21.3644 20.7001 21.5003 20.5655 22.0036C20.2714 23.1159 19.8926 24.1878 18.7462 24.7364C18.6515 24.7817 18.6166 25.0333 18.6166 25.1843C18.6117 28.7526 18.5618 32.3158 18.6366 35.879C18.6765 37.7713 19.449 39.4422 20.8347 40.7306C22.7138 42.472 24.6477 44.158 26.5866 45.8339C27.3292 46.4781 28.2264 46.8203 29.2183 46.8304C30.3647 46.8455 31.5161 46.8455 32.6625 46.8354C33.8188 46.8304 34.8107 46.3875 35.673 45.6275C37.0487 44.4096 38.4243 43.1967 39.805 41.9788C39.9346 41.868 40.0592 41.7472 40.1938 41.6416C40.6922 41.244 41.2554 41.2591 41.6243 41.6667C41.9931 42.0744 41.9532 42.6632 41.4897 43.096C40.8966 43.6496 40.2536 44.1479 39.6804 44.7267C39.4711 44.938 39.2966 45.2903 39.2866 45.5873C39.2418 46.8102 39.2468 48.0382 39.2866 49.2612C39.2966 49.543 39.4262 49.8953 39.6256 50.0866C40.3034 50.7559 40.8019 51.4807 40.8816 52.4721C40.8916 52.6181 41.1458 52.8294 41.3153 52.8647C44.5999 53.524 47.8995 54.1178 51.1792 54.8073C55.072 55.6277 58.0227 57.822 60.0414 61.2795C60.6146 62.2559 61.1429 63.2624 61.6912 64.2539C62.1647 65.1095 62.1148 65.3863 61.3871 66.0154H60.6195C60.3703 65.6782 60.0912 65.3611 59.8819 64.9987C59.3485 64.0777 58.8551 63.1316 58.3267 62.2055C57.5143 60.7813 56.4477 59.5935 55.0869 58.6222C54.6832 59.1506 54.3144 59.6338 53.9206 60.1572C55.4707 61.2241 56.4526 62.6837 57.2751 64.274C57.7087 65.1095 57.6539 65.4366 56.9212 66.0154H56.1536C55.7698 65.4114 55.371 64.8176 55.0072 64.2036C54.4589 63.2775 53.791 62.4672 52.8639 61.823C52.3655 62.7541 52.1113 63.7204 52.0814 64.727C52.0664 65.2957 51.897 65.7134 51.4284 66.0154H50.6609C50.4864 65.6933 50.2123 65.3863 50.1574 65.044C50.0877 64.6112 50.1325 64.1381 50.2322 63.7053C50.4515 62.7541 50.7406 61.823 51.0197 60.8014C50.611 60.6957 50.1724 60.5598 49.7238 60.4642C48.5026 60.2025 47.2665 59.976 46.0504 59.6942C45.5021 59.5684 45.223 59.0751 45.3226 58.5819C45.4273 58.0585 45.9258 57.6811 46.4641 57.7968C48.2634 58.1894 50.0528 58.6222 51.8521 59.0198C52.0166 59.055 52.2808 59.0147 52.3854 58.899C52.7343 58.5064 53.0334 58.0686 53.4272 57.5552C52.6596 57.2986 51.9967 56.9966 51.3038 56.8557C47.7101 56.1259 44.1065 55.4314 40.5028 54.7318C40.3782 54.7067 40.1888 54.7268 40.109 54.8023C39.6605 55.2402 39.2368 55.7082 38.7184 56.2467C39.8698 56.4732 40.9065 56.6695 41.9383 56.8859C42.5813 57.0218 42.9601 57.5301 42.8454 58.0686C42.7308 58.6323 42.2324 58.9342 41.5744 58.8084C40.2835 58.5618 38.9926 58.3051 37.7066 58.0334C37.2779 57.9428 36.939 57.978 36.6449 58.3605C36.3708 58.7128 36.0219 59.0047 35.7228 59.3419C35.6231 59.4526 35.5285 59.6338 35.5434 59.7697C35.6082 60.2931 35.7129 60.8115 35.8126 61.3802C36.0368 61.3802 36.2661 61.3802 36.4954 61.3802C38.4094 61.3802 40.3234 61.3802 42.2373 61.3802C43.2741 61.3802 44.1763 61.9036 44.4055 62.8397C44.6697 63.9117 45.0037 65.0642 44.0118 66.0103H43.2442C42.4666 65.5171 42.6062 64.727 42.6361 63.9972C42.656 63.4889 42.4666 63.3228 41.9782 63.3278C39.8798 63.3429 37.7814 63.3278 35.683 63.3429C35.5135 63.3429 35.2543 63.3933 35.1895 63.509C34.4518 64.8427 33.2656 65.5523 31.8849 66.0154H30.0955C28.6949 65.5825 27.5186 64.8628 26.766 63.5342C26.6912 63.4033 26.4071 63.3429 26.2177 63.3429C24.224 63.3278 22.2303 63.3429 20.2316 63.3278C19.6783 63.3228 19.469 63.5191 19.4939 64.0777C19.5238 64.7672 19.6384 65.497 18.9905 66.0154H18.2229C17.7294 65.7285 17.5251 65.3057 17.5799 64.727C17.6148 64.3646 17.5799 63.9972 17.5899 63.6348C17.6098 62.6031 18.2129 61.7677 19.1998 61.5009C19.6235 61.3902 20.082 61.3902 20.5207 61.3852C22.3898 61.3751 24.2539 61.3852 26.0134 61.3852C26.6713 60.0918 26.2925 59.1506 25.2757 58.3303C24.9318 58.0535 24.6576 57.9579 24.2589 58.0384C20.2066 58.8537 16.1544 59.664 12.1021 60.4793C11.6984 60.5598 11.3096 60.6957 10.9707 60.7863C11.2648 61.813 11.6037 62.7189 11.7632 63.66C11.9028 64.4602 12.1968 65.3712 11.3196 66.0154H10.552C10.0685 65.6882 9.92398 65.2252 9.90902 64.6515C9.88909 63.6399 9.6 62.6887 9.1215 61.7727C8.06483 62.5025 7.34708 63.4537 6.739 64.5257C6.43994 65.0491 6.05116 65.5221 5.69727 66.0204H4.92969C4.50602 65.6178 4.20696 65.1799 4.511 64.5659C5.33342 62.9252 6.29539 61.3902 7.80564 60.2931C7.88539 60.2377 7.94022 60.1522 8.02495 60.0616C7.63617 59.5684 7.27232 59.1053 6.88853 58.6172C5.51285 59.6237 4.43125 60.8165 3.62379 62.2559C3.11041 63.1718 2.62194 64.0979 2.09361 64.9987C1.88426 65.3611 1.60016 65.6782 1.35593 66.0154H0.58834L0.62323 66.0003ZM47.5706 15.8535H46.7432C39.6156 15.8535 32.488 15.8535 25.3604 15.8535C25.1461 15.8535 24.9268 15.8837 24.7224 15.8334C24.229 15.7177 23.9499 15.3956 23.9598 14.8671C23.9698 14.3487 24.2439 14.0216 24.7474 13.931C24.9766 13.8908 25.2159 13.9109 25.4501 13.9109C32.3435 13.9109 39.2368 13.9109 46.1301 13.9109H46.9326C46.798 13.2365 46.4092 12.854 45.841 12.6275C44.894 12.2551 44.7744 12.0337 45.0037 11.0321C45.1731 10.2973 44.8491 9.70347 44.1463 9.45687C43.0797 9.08444 43.0249 8.99385 43.1395 7.9118C43.2841 6.55295 42.4018 5.7024 41.0461 5.89868C40.1539 6.02954 39.8847 5.86345 39.6206 4.95755C39.4611 4.41904 39.157 4.07178 38.6088 3.99126C38.3944 4.55996 38.2399 5.1186 37.9807 5.62691C37.6966 6.19059 37.1085 6.35163 36.635 6.08993C36.1515 5.82319 36.0169 5.28468 36.2811 4.70088C36.7197 3.73962 36.5901 2.91927 35.9172 2.37573C35.2144 1.80703 34.3671 1.86742 33.5447 2.54685C33.0064 2.98973 32.5329 2.9696 32.0295 2.47639C31.2968 1.76676 30.7186 1.76173 30.0008 2.46129C29.4675 2.97967 29.0139 2.99476 28.4358 2.51162C27.6632 1.86742 26.8059 1.81206 26.1081 2.36063C25.4452 2.88404 25.2807 3.75471 25.6894 4.62539C25.9934 5.28468 25.8589 5.85842 25.3405 6.11006C24.8122 6.36673 24.2589 6.14529 23.9449 5.47593C23.7206 5.00285 23.586 4.4895 23.4116 3.98119C22.8234 4.09191 22.5343 4.46434 22.3798 5.00285C22.1356 5.85842 21.8515 6.02954 20.9842 5.90372C19.5886 5.7024 18.7064 6.56301 18.8758 7.95709C18.9954 8.95862 18.8758 9.14483 17.9438 9.4317C17.1762 9.66824 16.8323 10.2822 17.0217 11.0774C17.241 11.9934 17.0914 12.2803 16.1843 12.6225C15.6111 12.8389 15.2323 13.2264 15.0678 13.9109C15.327 13.9109 15.5313 13.9109 15.7357 13.9109C17.1812 13.9109 18.6266 13.9109 20.077 13.9109C20.9692 13.9109 21.4428 14.2581 21.4278 14.8973C21.4128 15.5214 20.9593 15.8485 20.102 15.8485C18.9107 15.8485 17.7195 15.8485 16.5282 15.8485C15.8304 15.8485 15.1376 15.8485 14.4198 15.8485V19.3312H47.5805V15.8485L47.5706 15.8535ZM30.7634 56.2417C30.898 56.2316 31.0276 56.2266 31.1622 56.2165C33.141 54.1531 35.1197 52.0896 37.0935 50.0211C37.1783 49.9356 37.273 49.8098 37.273 49.6991C37.2879 48.7932 37.2829 47.8822 37.2829 46.8404C36.1914 47.8168 35.0848 48.5667 33.7789 48.6774C32.0942 48.8183 30.3896 48.7881 28.6949 48.7428C27.5934 48.7126 26.6015 48.2446 25.6944 47.6104C25.3903 47.3991 25.1012 47.1625 24.7175 46.8706C24.7175 47.8772 24.7075 48.773 24.7274 49.6689C24.7274 49.8198 24.8321 49.991 24.9417 50.1067C26.8757 52.1551 28.8195 54.1984 30.7634 56.2417ZM28.1716 61.1839C28.1716 62.7793 29.4326 64.0677 30.9877 64.0626C32.5279 64.0526 33.8288 62.7239 33.8138 61.1688C33.7989 59.6086 32.5628 58.3655 31.0027 58.3554C29.4027 58.3454 28.1716 59.5734 28.1716 61.1839ZM16.6129 32.7033V24.9679C16.2441 24.9679 15.9301 24.9579 15.6161 24.9679C14.3401 25.0233 13.4728 25.9493 13.5426 27.2276C13.5725 27.7561 13.6473 28.2996 13.7868 28.8079C14.2404 30.4235 15.1376 31.7219 16.6129 32.7033ZM45.4024 25.0384V32.7335C47.1469 31.4753 48.1488 29.895 48.4079 27.8467C48.6771 25.7379 47.5357 24.6559 45.4024 25.0434V25.0384ZM34.4668 57.822C35.8774 56.3474 37.3178 54.8879 38.6985 53.378C39.1869 52.8445 38.9826 52.1601 38.2698 51.5813C36.5901 53.3478 34.9054 55.1244 33.2207 56.8959C33.5646 57.1526 33.9883 57.4646 34.4718 57.822H34.4668ZM28.7797 56.8758C27.0651 55.0942 25.3804 53.3428 23.7006 51.5964C22.9829 52.15 22.7686 52.8949 23.3069 53.4284C24.7424 54.8526 26.2526 56.1964 27.733 57.5703C27.6732 57.6408 27.6084 57.7113 27.5485 57.7767C27.9722 57.4646 28.3959 57.1576 28.7797 56.8758ZM15.96 22.9045C18.0036 23.1763 18.5369 22.8693 18.6166 21.4198H15.96V22.9045ZM46.0504 21.4198H43.3439C43.6679 23.0102 44.3407 23.3625 46.0504 22.8592V21.4198Z"
            fill="black" />
        <path
            d="M30.9875 41.4601C29.881 41.4299 28.7994 41.1631 27.8026 40.5793C27.1995 40.222 27.02 39.6986 27.3041 39.1853C27.5932 38.6618 28.1166 38.531 28.7346 38.8682C30.2598 39.6986 31.7701 39.6936 33.2903 38.8531C33.8984 38.5209 34.4317 38.6769 34.7108 39.2104C34.975 39.7137 34.8055 40.2321 34.2423 40.5642C33.2504 41.148 32.1688 41.4248 30.9875 41.4601Z"
            fill="black" />
        <path
            d="M25.3254 24.9727C24.6425 25.179 23.9896 25.335 23.3615 25.5716C22.7584 25.7981 22.2401 25.6924 21.9809 25.2042C21.7117 24.7059 21.8662 24.1523 22.4394 23.8504C24.3435 22.8488 26.2674 22.8438 28.1714 23.8403C28.7346 24.1372 28.9041 24.6959 28.6549 25.1891C28.4107 25.6773 27.8724 25.7981 27.2742 25.5766C26.6462 25.3451 25.9933 25.179 25.3204 24.9727H25.3254Z"
            fill="black" />
        <path
            d="M36.6697 22.9243C37.6416 23.2263 38.5887 23.4528 39.4809 23.8101C40.1238 24.0668 40.2983 24.6606 40.0341 25.174C39.7749 25.6873 39.2316 25.8282 38.6086 25.5363C37.3177 24.9324 36.0317 24.9324 34.7408 25.5514C34.1526 25.8333 33.6193 25.6924 33.3601 25.2092C33.086 24.6959 33.2504 24.0819 33.8685 23.8302C34.7607 23.4679 35.7027 23.2313 36.6697 22.9243Z"
            fill="black" />
        <path
            d="M30.9975 35.8285C30.3396 35.6423 29.6966 35.5114 29.0935 35.2749C28.5353 35.0534 28.3459 34.5149 28.5552 34.0116C28.7845 33.4631 29.2729 33.2466 29.8661 33.5033C30.6337 33.8355 31.3714 33.8304 32.1389 33.5033C32.7221 33.2517 33.2205 33.4782 33.4448 34.0267C33.6492 34.53 33.4598 35.0635 32.8966 35.2849C32.2934 35.5215 31.6505 35.6473 30.9925 35.8335L30.9975 35.8285Z"
            fill="black" />
        <path
            d="M37.6416 28.9536C37.6416 29.3613 37.6615 29.7689 37.6416 30.1716C37.6117 30.7201 37.2179 31.0775 36.6896 31.0775C36.1662 31.0775 35.7575 30.7101 35.7426 30.1615C35.7176 29.3462 35.7176 28.5359 35.7426 27.7206C35.7575 27.1368 36.1762 26.7694 36.7344 26.7845C37.2628 26.7996 37.6117 27.162 37.6516 27.7307C37.6516 27.7709 37.6516 27.8162 37.6516 27.8615C37.6516 28.2239 37.6516 28.5913 37.6516 28.9536H37.6416Z"
            fill="black" />
        <path
            d="M26.2774 28.9485C26.2774 29.3562 26.2973 29.7639 26.2774 30.1665C26.2475 30.7151 25.8487 31.0774 25.3254 31.0774C24.797 31.0774 24.3933 30.7201 24.3783 30.1665C24.3534 29.331 24.3484 28.4956 24.3783 27.6602C24.3983 27.1116 24.7472 26.8146 25.2905 26.7844C25.8188 26.7543 26.2375 27.1216 26.2724 27.6602C26.3023 28.0879 26.2774 28.5157 26.2774 28.9435V28.9485Z"
            fill="black" />
    </g>
    <defs>
        <clipPath id="clip0_339_2497">
            <rect width="62" height="66" fill="white" />
        </clipPath>
    </defs>
</svg>
    