<svg width="63" height="66" viewBox="0 0 63 66" fill="none" xmlns="http://www.w3.org/2000/svg">
    <g clip-path="url(#clip0_342_2620)">
        <path
            d="M36.2043 3.77707e-05C36.2656 0.0568497 36.3233 0.117105 36.3882 0.170474C36.7614 0.476914 36.9417 0.840166 36.7524 1.31016C36.5649 1.77326 36.1971 1.94197 35.694 1.94025C32.9731 1.93164 30.2505 1.91787 27.5296 1.93681C24.6843 1.95575 22.4485 3.68765 21.9941 6.36298C21.583 8.77318 22.4485 10.8787 24.0767 12.7208C24.394 13.0806 24.6897 13.4576 24.9945 13.8277C25.0738 13.7744 25.1513 13.721 25.2307 13.6676C25.2469 13.5127 25.2757 13.3577 25.2757 13.2028C25.2793 11.7636 25.2721 10.3243 25.2812 8.88681C25.2848 8.20334 25.6959 7.75917 26.2945 7.75229C26.8895 7.74712 27.306 8.18785 27.3114 8.87475C27.3222 10.2486 27.3241 11.6241 27.3114 12.9979C27.3006 14.3218 27.8596 15.3083 29.1145 15.9229C29.8935 16.3051 30.6544 17.0264 31.4225 17.0281C32.1924 17.0281 32.9569 16.3137 33.734 15.9298C34.9782 15.3152 35.566 14.3528 35.5389 13.0134C35.5137 11.6603 35.5299 10.3071 35.5353 8.95395C35.5389 8.21539 35.9284 7.75917 36.5451 7.75057C37.1599 7.74196 37.5656 8.19473 37.5692 8.93157C37.5764 10.4982 37.571 12.0666 37.571 13.7262C37.7531 13.6074 37.8956 13.5351 38.011 13.4335C40.3027 11.4124 41.3828 8.9419 40.7643 5.98251C40.5894 5.14755 39.9114 4.41416 39.4895 3.62051C39.3254 3.31235 39.0838 2.94221 39.1433 2.65126C39.2028 2.36204 39.5598 2.00223 39.8591 1.92304C40.153 1.84557 40.6868 1.98157 40.8544 2.20365C41.5054 3.06272 42.0427 4.00098 42.6413 4.8962C42.8342 5.1837 43.029 5.52285 43.3175 5.68984C46.911 7.7695 48.7971 10.7943 48.8782 14.809C48.9179 16.7837 48.871 18.76 48.9016 20.7364C48.9071 21.0411 49.0477 21.4027 49.2496 21.6385C50.4433 23.0278 50.3369 24.5858 49.8969 26.1611C49.2821 28.363 47.9009 30.026 45.8057 31.1227C45.4686 31.3 45.3532 31.498 45.3063 31.8578C45.1927 32.7255 45.0394 33.5931 44.8249 34.4419C44.6554 35.1116 44.0874 35.4197 43.532 35.2544C42.919 35.072 42.7152 34.5572 42.8721 33.8428C43.0362 33.0921 43.2183 32.3278 43.2273 31.5686C43.2688 28.5833 43.2399 25.5981 43.2508 22.6129C43.2508 22.26 43.0957 22.0827 42.8397 21.833C42.3528 21.3613 41.875 20.8053 41.6298 20.1976C40.9121 18.4243 40.3117 16.6098 39.7059 14.9226C37.2663 16.2414 34.8213 17.5394 32.4052 18.8805C31.7218 19.2593 31.152 19.2662 30.465 18.884C28.8765 17.9974 27.2357 17.1968 25.6382 16.3223C24.8232 15.8764 24.0605 15.3444 23.2094 14.8107C23.1355 15.0001 23.0471 15.2084 22.9696 15.4219C22.38 17.0626 21.7922 18.7015 21.208 20.3439C20.9682 21.017 20.5697 21.5559 19.9206 21.9381C19.7565 22.0345 19.6104 22.2962 19.6086 22.4821C19.5906 25.6825 19.5491 28.8829 19.6194 32.0816C19.6573 33.8187 20.42 35.3457 21.7633 36.525C23.552 38.0933 25.3965 39.6031 27.2411 41.1095C27.9966 41.7258 28.9108 42.0168 29.9133 42.0168C30.7914 42.0168 31.6695 41.991 32.544 42.0237C33.927 42.077 35.0791 41.6174 36.0961 40.7428C37.4664 39.5653 38.8674 38.4187 40.2558 37.2601C40.6327 36.945 41.1105 36.8107 41.4783 37.1258C41.7506 37.3599 41.902 37.7886 41.9597 38.1519C41.9904 38.3361 41.7307 38.6012 41.5432 38.7716C41.0564 39.2175 40.5696 39.6737 40.0232 40.0456C39.5166 40.3899 39.403 40.8014 39.421 41.3591C39.4607 42.5367 39.4336 43.7177 39.4336 44.9211C41.0402 45.1759 42.0589 45.9816 42.3564 47.5413C42.3871 47.7014 42.717 47.8822 42.9352 47.9235C45.2215 48.3642 47.5187 48.7516 49.7996 49.2061C54.0206 50.0479 57.0732 52.3531 58.898 56.0752C60.2485 58.828 61.5052 61.6255 62.8125 64.399C63.0108 64.819 63.119 65.2615 62.7548 65.5938C62.524 65.8021 62.0786 66.0069 61.8262 65.9295C61.4764 65.821 61.0978 65.4973 60.9409 65.1737C59.6751 62.5483 58.449 59.9039 57.2265 57.2579C56.3628 55.3883 55.1043 53.8388 53.2687 52.6561C52.3347 53.7097 51.6928 54.8976 51.1844 56.1544C50.5461 57.7313 50.2702 59.3771 50.254 61.0626C50.2413 62.3296 50.2576 63.5967 50.2467 64.8638C50.2413 65.5696 49.8573 65.9742 49.2352 65.9725C48.6168 65.9708 48.2002 65.5524 48.2219 64.8604C48.2904 62.655 48.2724 60.4376 48.5032 58.2461C48.7304 56.0855 49.6986 54.1315 50.9518 52.3204C51.0852 52.1276 51.2168 51.9331 51.4422 51.6008C50.1097 51.3133 48.8764 51.0206 47.6305 50.7813C45.8057 50.4318 43.9756 50.1082 42.1419 49.8069C41.9057 49.7673 41.5883 49.8723 41.3864 50.0118C40.6399 50.5248 39.9872 51.1928 39.1848 51.587C38.3427 52.0019 38.1751 52.5752 38.2418 53.3465C40.0268 53.918 40.3568 54.3656 40.3568 56.2026C40.3568 57.7279 40.3604 59.2515 40.3568 60.7768C40.3514 62.3107 39.4985 63.1267 37.9064 63.1285C37.3042 63.1285 36.7037 63.1285 36.0312 63.1285C36.0312 63.7035 36.0384 64.2131 36.0312 64.7226C36.0168 65.5318 35.6525 65.9622 34.9962 65.9691C34.3327 65.9742 33.9558 65.5421 33.9396 64.7433C33.9306 64.2716 33.9306 63.7981 33.9252 63.3264C33.9252 63.2868 33.8999 63.249 33.8711 63.1698H29.0226C29.0226 63.6708 29.0262 64.1769 29.0226 64.6813C29.0135 65.5318 28.6457 65.9759 27.9641 65.9691C27.288 65.9622 26.9418 65.5232 26.9292 64.6572C26.9238 64.2062 26.9184 63.7551 26.9093 63.3058C26.9093 63.2679 26.8751 63.2318 26.8246 63.1302C26.1881 63.1302 25.5174 63.1371 24.8484 63.1302C23.552 63.1164 22.6306 62.2832 22.6108 61.035C22.5819 59.2102 22.5873 57.3836 22.609 55.5587C22.6234 54.3691 23.2977 53.6856 24.6627 53.3981C24.8286 52.4272 24.6843 52.1947 23.8838 51.6748C23.0886 51.1584 22.3583 50.5489 21.574 50.0135C21.3702 49.8741 21.0583 49.7759 20.8167 49.8069C19.9747 49.9188 19.1434 50.1185 18.3014 50.2407C17.5675 50.3475 17.1474 50.0944 16.9887 49.5349C16.8337 48.9823 17.2051 48.4641 17.8831 48.3315C18.6295 48.1852 19.3868 48.0819 20.1261 47.9132C20.3154 47.8701 20.5769 47.6687 20.6093 47.5052C20.9141 45.973 21.9148 45.1759 23.5213 44.9245C23.5213 43.5714 23.534 42.2199 23.5069 40.8702C23.5033 40.6946 23.3374 40.4846 23.1878 40.3537C22.3872 39.6634 21.5632 38.9971 20.7554 38.3137C18.7558 36.6231 17.6433 34.5193 17.5747 31.9507C17.5639 31.541 17.4377 31.3206 17.0446 31.1054C14.3057 29.5991 12.8272 27.3386 12.6902 24.3018C12.6451 23.2929 12.9642 22.4132 13.6206 21.6179C13.8081 21.3923 13.9343 21.0566 13.9415 20.7691C13.9758 19.4814 13.9505 18.1919 13.9577 16.9042C13.9613 16.1277 14.3616 15.6578 14.9981 15.656C15.6382 15.6543 16.0313 16.1071 16.0403 16.9025C16.0529 18.018 16.0439 19.1336 16.0439 20.294C16.9256 20.294 17.7731 20.3353 18.6115 20.2664C18.8405 20.2475 19.147 19.941 19.2354 19.7035C20.036 17.5687 20.8077 15.4219 21.5542 13.2682C21.6227 13.0702 21.5253 12.769 21.4027 12.571C20.521 11.1438 19.9981 9.61331 19.8466 7.84698C19.6158 8.00364 19.4247 8.11898 19.2516 8.25671C17.9263 9.31548 16.9833 10.6187 16.4568 12.1974C16.2314 12.8705 15.7825 13.1821 15.2506 13.0909C14.6105 12.9807 14.2462 12.4109 14.4446 11.7842C15.2938 9.11578 17.0104 7.1067 19.5257 5.69673C19.7871 5.55039 20.0558 5.2956 20.1568 5.03392C21.2008 2.3431 23.1373 0.657679 26.1106 0.0998891C26.1953 0.0843949 26.271 0.0310261 26.3522 -0.00512695C29.6356 3.77707e-05 32.919 3.77707e-05 36.2043 3.77707e-05ZM24.7258 61.1383H38.2201V55.4537H24.7258V61.1383ZM43.0091 7.77983C42.8577 9.69422 42.3041 11.2591 41.3683 12.707C41.271 12.8568 41.2547 13.1167 41.3142 13.2872C42.0679 15.4374 42.827 17.5859 43.6312 19.719C43.7232 19.9617 44.073 20.2561 44.3254 20.2785C45.1422 20.3508 45.968 20.3043 46.7632 20.3043C46.7632 18.1472 46.8335 16.0262 46.7433 13.9104C46.6622 11.9994 45.7697 10.3656 44.4083 8.97805C44.0189 8.58037 43.5609 8.24638 43.0091 7.77811V7.77983ZM31.4117 53.436C32.3998 53.436 33.3897 53.436 34.3777 53.436C36.2944 53.436 36.4729 53.2328 36.1989 51.3822C36.1935 51.3391 36.1862 51.2978 36.1772 51.2548C35.6868 48.8996 33.24 47.2039 30.8761 47.5844C28.1102 48.0285 26.3522 50.2855 26.7561 52.8593C26.8246 53.2897 27.0103 53.4635 27.5008 53.4498C28.8026 53.4136 30.1062 53.4377 31.4099 53.4377L31.4117 53.436ZM37.4051 42.2802C36.2097 43.2357 34.9962 43.8658 33.5609 43.9346C32.3493 43.9932 31.134 43.9777 29.9205 43.9777C28.4311 43.9777 27.1059 43.5163 25.9339 42.64C25.8401 42.5694 25.7157 42.5333 25.5552 42.4575C25.5552 43.0618 25.6436 43.6127 25.539 44.1292C25.2649 45.4754 26.024 46.2002 27.1239 46.7649C27.2032 46.8062 27.2844 46.8424 27.3583 46.8785C30.1116 45.1483 32.8613 45.1552 35.6579 46.9095C36.1285 46.5686 36.628 46.2398 37.0842 45.8628C37.2465 45.7285 37.3853 45.4772 37.3925 45.2757C37.425 44.3323 37.4069 43.3889 37.4069 42.2819L37.4051 42.2802ZM17.5026 29.031V22.291C17.1186 22.291 16.7832 22.2703 16.4496 22.2944C15.6166 22.3564 14.8845 23.0123 14.7493 23.7939C14.4464 25.5499 15.7536 28.0755 17.5026 29.0292V29.031ZM45.382 29.0172C45.5172 28.9552 45.602 28.9328 45.6633 28.8863C47.14 27.7553 48.0019 26.304 48.0957 24.4826C48.1804 22.8247 47.1274 22.0155 45.382 22.3702V29.0172ZM25.8401 48.366C25.3064 47.9528 24.8123 47.5551 24.3021 47.1781C23.8062 46.8114 23.3122 46.8458 22.9245 47.2452C22.5711 47.6102 22.5639 48.2007 22.9858 48.5639C23.5953 49.0873 24.2534 49.5573 24.9187 50.072C25.2505 49.4574 25.5354 48.9306 25.8419 48.366H25.8401ZM37.1202 48.3694C37.4196 48.9255 37.7026 49.4506 38.038 50.072C38.7016 49.5607 39.3579 49.0925 39.9673 48.5725C40.3929 48.2093 40.3911 47.6205 40.0413 47.2538C39.6608 46.8527 39.1559 46.8131 38.6655 47.1746C38.1534 47.5517 37.6612 47.9493 37.1202 48.3694Z"
            fill="black" />
        <path
            d="M11.6642 51.6283C12.3332 52.8748 13.0346 54.0231 13.5809 55.235C14.3779 57.0031 14.7349 58.8796 14.7385 60.8112C14.7403 62.1644 14.7457 63.5175 14.7367 64.8707C14.7313 65.561 14.3328 65.9777 13.7143 65.9777C13.0905 65.9777 12.7208 65.5748 12.7064 64.8638C12.6667 63.0613 12.7208 61.2519 12.573 59.4581C12.3638 56.9446 11.3523 54.6996 9.71148 52.6544C8.04542 53.708 6.80309 55.0612 5.9917 56.75C4.69167 59.4563 3.44033 62.1833 2.16734 64.9017C1.70575 65.8881 1.20449 66.1911 0.54276 65.8847C-0.0865191 65.592 -0.162249 65.0704 0.288524 64.1063C1.50381 61.505 2.70647 58.8986 3.93618 56.3041C5.67977 52.632 8.60979 50.2958 12.701 49.2939C12.8525 49.256 13.0093 49.2285 13.1644 49.2164C13.7774 49.1682 14.2282 49.4557 14.3292 49.9533C14.4392 50.499 14.1363 50.9621 13.5412 51.1291C12.9011 51.3081 12.2556 51.4717 11.666 51.6301L11.6642 51.6283Z"
            fill="black" />
        <path
            d="M31.4206 37.2669C30.2901 37.2945 29.2479 37.0001 28.2779 36.4647C27.7063 36.1496 27.5133 35.6005 27.782 35.1064C28.0453 34.6209 28.6457 34.4332 29.2263 34.738C30.712 35.5178 32.1653 35.5023 33.6475 34.7293C34.2244 34.4298 34.8231 34.6278 35.0863 35.1219C35.3406 35.5987 35.1765 36.1324 34.6247 36.4423C33.6402 36.9967 32.5728 37.2962 31.4188 37.2669H31.4206Z"
            fill="black" />
        <path
            d="M25.9284 20.2853C26.866 20.5435 27.7856 20.7312 28.6493 21.0531C29.3381 21.3096 29.5364 21.9483 29.2353 22.4717C28.9486 22.9709 28.3896 23.0863 27.7081 22.785C26.5379 22.2668 25.3713 22.2668 24.2011 22.7884C23.4961 23.1035 22.91 22.9572 22.645 22.4097C22.389 21.8812 22.5891 21.3113 23.2743 21.0531C24.1163 20.7363 25.0106 20.5435 25.9284 20.2853Z"
            fill="black" />
        <path
            d="M40.3009 21.7779C40.3135 22.7144 39.5634 23.193 38.8295 22.8573C37.5223 22.2565 36.2529 22.2548 34.9511 22.8659C34.4084 23.1207 33.8151 22.8814 33.5807 22.4011C33.3535 21.9346 33.5086 21.406 34.0423 21.1357C35.9211 20.1872 37.8288 20.1768 39.7076 21.1202C40.0015 21.2683 40.1764 21.635 40.2991 21.7779H40.3009Z"
            fill="black" />
        <path
            d="M31.4261 32.1796C30.8022 32.0126 30.1891 31.8956 29.614 31.6821C28.9883 31.4497 28.7665 30.9039 28.9955 30.3875C29.2263 29.8693 29.7726 29.6524 30.3893 29.8934C31.0925 30.1688 31.7669 30.1688 32.4701 29.8934C33.0777 29.6575 33.6619 29.883 33.8693 30.3823C34.0874 30.9091 33.862 31.4531 33.24 31.6821C32.6648 31.8938 32.0517 32.0109 31.4279 32.1779L31.4261 32.1796Z"
            fill="black" />
        <path
            d="M24.9349 25.8426C24.9349 25.4587 24.9061 25.0713 24.9421 24.6908C24.9944 24.1227 25.3623 23.7715 25.9465 23.7629C26.5343 23.7526 26.9382 24.1089 26.9796 24.6633C27.0373 25.4277 27.0373 26.2024 26.9778 26.9668C26.9346 27.5142 26.5667 27.8585 25.9447 27.8499C25.3605 27.8413 25.0251 27.5246 24.9566 26.9943C24.9079 26.6156 24.9476 26.2282 24.9476 25.8443C24.944 25.8443 24.9403 25.8443 24.9367 25.8443L24.9349 25.8426Z"
            fill="black" />
        <path
            d="M37.9371 25.8133C37.9371 26.1765 37.9623 26.5415 37.9317 26.9013C37.8812 27.4935 37.4574 27.8637 36.8823 27.8482C36.2638 27.8309 35.9194 27.4918 35.8906 26.9288C35.8509 26.1834 35.8563 25.4345 35.8906 24.6891C35.9158 24.1123 36.3053 23.799 36.8877 23.7543C37.416 23.7129 37.8848 24.1571 37.9317 24.7252C37.9623 25.085 37.9371 25.45 37.9371 25.8133Z"
            fill="black" />
        <path
            d="M31.4946 59.2721C30.5534 59.2721 29.6104 59.279 28.6691 59.2704C27.9173 59.2635 27.4358 58.8624 27.4467 58.2719C27.4557 57.7089 27.9137 57.325 28.6385 57.3216C30.5444 57.313 32.452 57.3112 34.3579 57.3216C35.0647 57.325 35.5299 57.7434 35.5155 58.3046C35.5011 58.8727 35.0359 59.2601 34.3218 59.2687C33.3806 59.279 32.4376 59.2721 31.4964 59.2721H31.4946Z"
            fill="black" />
    </g>
    <defs>
        <clipPath id="clip0_342_2620">
            <rect width="63" height="66" fill="white" />
        </clipPath>
    </defs>
</svg>
    