<svg width="59" height="66" viewBox="0 0 59 66" fill="none" xmlns="http://www.w3.org/2000/svg">
    <g clip-path="url(#clip0_339_2515)">
        <path
            d="M28.7345 66C27.9167 65.5371 27.6174 64.8276 27.7172 63.9067C27.792 63.2022 27.6324 62.6739 27.0489 62.1304C25.6227 60.812 25.7174 58.5527 27.1337 57.199C27.2833 57.0531 27.4429 56.9172 27.6424 56.7411C27.3232 56.4442 27.034 56.1675 26.7348 55.8907C26.7048 55.9008 26.655 55.8957 26.63 55.9209C25.6376 57.0078 25.4781 57.0179 24.341 56.0819C22.9397 54.9246 21.5484 53.7622 20.1271 52.63C19.9326 52.474 19.5935 52.4086 19.3392 52.4438C18.4964 52.5595 17.6686 52.7407 16.8308 52.8866C16.2074 52.9973 15.7187 52.7054 15.599 52.167C15.4743 51.6085 15.8284 51.1002 16.4717 50.9593C17.2397 50.7983 18.0127 50.6675 18.8305 50.5115C18.7457 49.1377 19.424 48.1917 20.536 47.5677C21.4038 47.0796 21.7329 46.4255 21.6082 45.4342C21.5235 44.7347 21.6232 44.0151 21.5733 43.3107C21.5584 43.049 21.4237 42.732 21.2392 42.5559C20.1171 41.474 18.9652 40.4223 17.8132 39.3756C17.6985 39.275 17.524 39.2146 17.3644 39.1945C14.2176 38.7869 12.0583 36.3564 12.0184 33.1611C12.0184 32.9044 12.0134 32.6478 12.0184 32.3861C12.0533 30.9923 12.0334 29.6537 11.3352 28.3454C10.7817 27.3088 10.6271 26.076 10.8664 24.8935C11.0061 24.2041 11.3452 23.5298 11.7192 22.931C11.9636 22.5485 12.1132 22.2164 12.1082 21.7686C12.0982 19.5796 12.0434 17.3857 12.1281 15.1968C12.2777 11.1711 14.1578 8.14689 17.5639 6.08376C17.9678 5.83719 18.2072 5.56043 18.3917 5.11761C18.7208 4.33765 19.1397 3.58285 19.5985 2.87333C19.9426 2.34497 20.556 2.27955 20.9899 2.6016C21.4337 2.92868 21.5434 3.53756 21.1345 4.02566C18.6211 7.02978 20.2269 12.2731 23.204 14.4721C23.229 14.4923 23.2788 14.4822 23.3786 14.4973C23.3786 12.9072 23.3786 11.3271 23.3786 9.74707C23.3786 9.5307 23.3636 9.31432 23.3935 9.10297C23.4683 8.55448 23.8773 8.20224 24.4009 8.23244C24.9544 8.26263 25.2736 8.56958 25.3135 9.11807C25.3534 9.65147 25.3384 10.1899 25.3434 10.7283C25.3534 11.9108 25.3434 13.0934 25.3783 14.2709C25.4132 15.3175 25.9468 16.1025 26.8245 16.6309C27.5925 17.0938 28.3755 17.5266 29.1734 17.9291C29.3579 18.0247 29.672 18.0147 29.8615 17.9241C30.5497 17.587 31.203 17.1794 31.8812 16.8221C33.098 16.183 33.6765 15.1766 33.6666 13.7979C33.6566 12.3386 33.6666 10.8742 33.6666 9.41496C33.6666 8.85641 33.8162 8.3834 34.4445 8.2576C35.1327 8.12173 35.6214 8.58468 35.6264 9.39483C35.6364 10.9195 35.6264 12.4442 35.6264 13.9689C35.6264 14.14 35.6264 14.3111 35.6264 14.5778C35.8309 14.4319 35.9855 14.3413 36.1151 14.2205C38.3692 12.1121 39.4863 9.54076 38.9626 6.43097C38.5338 3.85961 36.2797 2.00279 33.6117 1.95247C30.8639 1.90215 28.1161 1.93738 25.3733 1.94744C25.0542 1.94744 24.74 2.03802 24.4258 2.04808C23.8773 2.06821 23.4534 1.71597 23.3836 1.21276C23.3137 0.684402 23.598 0.246617 24.1515 0.13088C24.5455 0.0503677 24.9544 0.0101115 25.3534 0.0101115C28.0812 4.7466e-05 30.8041 4.7466e-05 33.5319 0.0101115C36.8133 0.0151435 39.6209 2.07324 40.7031 5.21825C40.8078 5.52017 41.0721 5.83719 41.3464 5.99822C43.9944 7.55311 45.7448 9.80243 46.5627 12.7814C46.6076 12.9474 46.6474 13.1135 46.6624 13.2846C46.7123 13.8431 46.423 14.2809 45.8994 14.3765C45.3608 14.4772 44.9868 14.2155 44.8073 13.7173C44.6327 13.2343 44.523 12.7311 44.3385 12.253C43.7501 10.7384 42.8026 9.49044 41.5359 8.48907C41.4062 8.38843 41.2616 8.31295 41.0571 8.18211C40.9325 9.81752 40.5934 11.3473 39.7605 12.6807C39.2868 13.4406 39.3017 14.0746 39.596 14.8697C40.3091 16.7969 40.9524 18.7443 41.5907 20.6968C41.7703 21.2503 42.0745 21.5119 42.6529 21.4968C43.396 21.4767 44.139 21.4968 44.9768 21.4968C44.9768 20.576 44.9768 19.64 44.9768 18.7041C44.9768 18.4474 44.9669 18.1858 44.9768 17.9291C45.0068 17.3052 45.4207 16.8875 45.9742 16.9026C46.5028 16.9177 46.8918 17.3152 46.9018 17.9241C46.9217 19.2777 46.9018 20.6313 46.9167 21.9849C46.9167 22.2064 46.9467 22.4982 47.0813 22.6391C48.4577 24.0783 48.3879 25.7791 47.954 27.5252C47.3705 29.8752 45.9892 31.6414 43.8897 32.8038C43.4758 33.0353 43.3511 33.2919 43.3112 33.7448C43.2364 34.57 43.0968 35.4003 42.9123 36.2105C42.7676 36.8395 42.244 37.1313 41.7204 36.9854C41.1668 36.8344 40.9424 36.3061 41.0521 35.6469C41.2018 34.7411 41.3713 33.8303 41.3813 32.9145C41.4212 29.9054 41.3913 26.9012 41.4012 23.8921C41.4012 23.5046 41.3563 23.2379 40.9574 23.0266C40.3041 22.6844 39.975 22.0453 39.7456 21.3559C39.0973 19.4086 38.434 17.4662 37.7957 15.5742C36.529 16.3491 35.2773 17.1441 34.0007 17.8889C32.734 18.6286 31.4324 19.3129 30.1508 20.0376C29.7219 20.2841 29.3279 20.2992 28.8891 20.0527C26.9991 18.9859 25.0841 17.9493 23.204 16.8624C22.5458 16.4799 21.9523 15.9817 21.2841 15.5087C21.2192 15.6496 21.1345 15.8107 21.0796 15.9767C20.4812 17.7379 19.8678 19.4941 19.2893 21.2654C19.025 22.0705 18.6161 22.7297 17.873 23.1725C17.7384 23.253 17.6237 23.5046 17.6237 23.6757C17.6087 27.0924 17.5539 30.5092 17.6586 33.9209C17.6885 34.9273 18.1772 35.9287 18.5114 36.915C18.5662 37.081 18.8804 37.2571 19.0799 37.2622C20.4612 37.2924 21.8476 37.2924 23.229 37.2622C23.4235 37.2622 23.6778 37.0709 23.7875 36.8999C24.376 35.984 25.1639 35.4607 26.266 35.4657C26.7747 35.4657 27.2883 35.4657 27.797 35.4657C28.7944 35.4657 29.5823 35.8985 30.0959 36.7338C30.3453 37.1414 30.5747 37.2018 30.9637 37.0257C31.2329 36.9049 31.5122 36.7942 31.7915 36.6986C32.355 36.4973 32.8537 36.6986 33.0731 37.1968C33.2975 37.7 33.123 38.2233 32.5694 38.4749C32.0308 38.7164 31.4474 38.8523 30.8988 39.0787C30.6545 39.1794 30.3852 39.3505 30.2455 39.5668C29.6621 40.4877 28.8841 41.0211 27.782 41.0211C27.2484 41.0211 26.7198 41.0211 26.1862 41.0211C25.139 41.006 24.351 40.5179 23.8374 39.6172C23.6628 39.3152 23.4883 39.1945 23.1442 39.2045C22.3014 39.2297 21.4536 39.2146 20.4413 39.2146C20.8004 39.5417 21.0397 39.7681 21.2891 39.9895C22.5059 41.0613 23.7376 42.1281 24.9445 43.21C25.7174 43.9044 26.5901 44.3825 27.6224 44.4227C28.8941 44.4731 30.1757 44.463 31.4474 44.4127C32.4348 44.3724 33.2776 43.9095 34.0156 43.2503C35.5815 41.8614 37.1574 40.4776 38.7283 39.0938C38.8878 38.9529 39.0524 38.7869 39.2419 38.7265C39.7057 38.5806 40.1395 38.6661 40.4138 39.119C40.6981 39.597 40.5884 40.0348 40.1944 40.3921C39.4514 41.0664 38.7033 41.7407 37.9353 42.3848C37.5663 42.6917 37.3718 43.0087 37.3967 43.522C37.4416 44.4429 37.3818 45.3688 37.4267 46.2896C37.4416 46.5563 37.6311 46.8582 37.8206 47.0645C38.065 47.3262 38.3842 47.5225 38.6884 47.7187C39.6758 48.3628 40.2094 49.2585 40.1745 50.5215C41.8002 50.8335 43.4259 51.1153 45.0417 51.4625C46.7422 51.8299 48.4876 52.0865 50.1084 52.6853C53.2302 53.8477 55.3995 56.1222 56.706 59.2118C57.4092 60.8674 58.0575 62.543 58.7856 64.1835C59.0997 64.898 59.1147 65.4817 58.5063 66.0101H57.7383C57.5089 65.7132 57.2147 65.4465 57.0651 65.1144C56.2921 63.3331 55.564 61.5266 54.801 59.7352C54.1876 58.296 53.275 57.0783 52.0383 56.0568C51.5595 57.0279 51.1307 57.9639 50.642 58.8596C49.6246 60.7315 49.0312 62.7141 48.9414 64.8578C48.9265 65.2503 48.5923 65.6277 48.4028 66.0101H47.6348C47.1362 65.688 46.9716 65.2352 47.0065 64.6414C47.1262 62.6085 47.5551 60.656 48.4826 58.8294C49.1259 57.5563 49.7443 56.2731 50.4325 54.8642C49.5349 54.5623 48.737 54.205 47.8942 54.0289C45.2112 53.4703 42.5133 52.9923 39.8304 52.4438C39.3566 52.3482 39.0474 52.4438 38.6884 52.7457C37.2222 53.9886 35.7311 55.2064 34.24 56.414C33.6217 56.9172 33.1629 56.8518 32.6442 56.243C32.5345 56.1171 32.4248 55.9914 32.3201 55.8706C31.986 56.1725 31.6818 56.4543 31.3427 56.7713C32.6093 57.6519 33.0282 58.8495 32.9534 60.3189C32.8886 61.5618 32.8986 62.8097 32.9534 64.0577C32.9933 64.9534 32.6991 65.5924 31.9161 66.0051H28.7195L28.7345 66ZM14.1578 21.4868C14.851 21.4868 15.594 21.4767 16.3321 21.4868C16.8956 21.4968 17.2198 21.2805 17.4093 20.7118C18.1373 18.4978 18.9153 16.3038 19.6434 14.0897C19.7232 13.8532 19.6484 13.5261 19.5536 13.2745C19.1148 12.1222 18.6061 10.995 18.1972 9.83262C18.0177 9.32942 18.0177 8.76583 17.9229 8.14186C15.8384 9.67159 14.4221 11.6039 14.2027 14.1098C13.9932 16.5353 14.1578 18.9909 14.1578 21.4817V21.4868ZM35.4618 44.5888C34.0705 45.7914 32.6193 46.4104 30.9287 46.4053C29.9912 46.4053 29.0587 46.4053 28.1211 46.4053C26.6001 46.4104 25.2437 45.9474 24.0518 44.9914C23.9172 44.8806 23.7626 44.8001 23.5431 44.6592C23.5431 45.3033 23.5033 45.8418 23.5581 46.3701C23.588 46.6318 23.7277 46.9538 23.9221 47.1149C27.0539 49.6711 31.966 49.6611 35.0978 47.1098C35.2624 46.979 35.4319 46.7475 35.4469 46.5513C35.4918 45.9575 35.4618 45.3587 35.4618 44.5888ZM27.9117 50.9593C27.6823 50.8889 27.5177 50.8486 27.3631 50.7933C26.1264 50.3102 24.8397 49.9177 23.6678 49.3038C22.3662 48.6245 22.4111 48.5389 21.2292 49.4648C21.1943 49.49 21.1544 49.5101 21.1245 49.5403C20.7006 49.9177 20.6358 50.4662 21.0597 50.8285C22.456 52.0161 23.8773 53.1684 25.3285 54.361C26.2061 53.2086 27.039 52.1066 27.9117 50.9593ZM33.6765 54.361C35.1327 53.1634 36.524 52.0362 37.8905 50.8839C38.3542 50.4914 38.3393 49.9278 37.8805 49.5504C37.4366 49.1881 36.9579 48.871 36.4742 48.5188C34.8933 49.802 33.113 50.5568 31.0584 50.9191C31.956 52.0966 32.7938 53.1986 33.6715 54.3559L33.6765 54.361ZM15.609 30.8061V23.4493C15.3048 23.4493 15.0505 23.4493 14.7961 23.4493C13.5344 23.4644 12.7266 24.2846 12.7515 25.5577C12.7615 26.0055 12.7964 26.4634 12.9011 26.8962C13.2901 28.5165 14.1478 29.8148 15.609 30.8011V30.8061ZM43.376 30.7356C45.0766 29.8852 46.3333 27.4799 46.2485 25.3212C46.2136 24.4204 45.5503 23.6153 44.6676 23.4845C44.2587 23.4241 43.8298 23.4744 43.3711 23.4744V30.7407L43.376 30.7356ZM30.9637 64.0426C30.9936 63.9671 31.0235 63.9268 31.0235 63.8916C31.0285 62.543 31.0385 61.1945 31.0335 59.8459C31.0335 58.9804 30.5298 58.3614 29.7718 58.2457C28.9489 58.1199 28.3006 58.5275 28.0563 59.3175C27.8269 60.0623 28.1411 60.7466 28.9539 61.1391C29.4576 61.3857 29.687 61.743 29.6671 62.3015C29.6471 62.8701 29.6671 63.4438 29.6671 64.0426H30.9686H30.9637ZM31.0933 54.1899C30.5697 53.5055 30.0511 52.8262 29.4975 52.1066C28.919 52.8715 28.4104 53.5458 28.0264 54.054C28.5899 54.673 29.0836 55.2114 29.5524 55.7247C30.0461 55.2365 30.5597 54.7283 31.0983 54.1949L31.0933 54.1899ZM14.0531 32.1698C13.7987 34.4644 14.6316 36.2004 16.1027 36.7338C15.9581 35.6217 15.8135 34.4644 15.6539 33.307C15.6389 33.1862 15.5242 33.0403 15.4145 32.9699C14.9856 32.6981 14.5468 32.4566 14.0531 32.1698ZM26.9642 39.0636C27.2384 39.0636 27.5177 39.0838 27.792 39.0636C28.2807 39.0234 28.5899 38.7516 28.5999 38.2434C28.6098 37.7301 28.2907 37.4383 27.8119 37.4031C27.2634 37.3628 26.7048 37.3578 26.1513 37.4081C25.7075 37.4483 25.4033 37.7402 25.4033 38.2233C25.4033 38.7315 25.7025 39.0083 26.1912 39.0636C26.4455 39.0938 26.6999 39.0636 26.9592 39.0687L26.9642 39.0636Z"
            fill="black" />
        <path
            d="M0.498705 66C-0.114684 65.4716 -0.0997228 64.8879 0.214452 64.1733C0.982434 62.4323 1.6407 60.6459 2.42863 58.9149C4.18901 55.0553 7.18614 52.7607 11.3153 51.9556C11.5048 51.9204 11.6893 51.865 11.8788 51.8399C12.5022 51.7543 12.9759 52.0512 13.1056 52.5997C13.2253 53.123 12.8911 53.591 12.2728 53.7621C11.3352 54.0187 10.3877 54.2653 9.45517 54.537C9.17591 54.6175 8.92158 54.7886 8.60242 54.9446C9.25071 56.268 9.86909 57.5512 10.5124 58.8243C11.44 60.6509 11.8589 62.5983 11.9885 64.6313C12.0234 65.225 11.8539 65.6779 11.3602 66H10.5922C10.1683 65.6528 10.0287 65.1999 10.0037 64.6564C9.96883 63.9519 9.88904 63.2475 9.75938 62.553C9.31554 60.193 7.93417 58.2406 6.98167 56.0315C5.66015 57.1235 4.73258 58.4318 4.09426 59.9565C3.38612 61.6523 2.69793 63.3582 1.96984 65.0439C1.81525 65.3961 1.50606 65.683 1.27167 66H0.498705Z"
            fill="black" />
        <path
            d="M24.0568 21.4515C24.9694 21.7233 25.8521 21.9296 26.6899 22.2567C27.3382 22.5133 27.5427 23.1524 27.2734 23.6707C27.014 24.1638 26.4605 24.2946 25.8371 24.0028C24.6303 23.4291 23.4235 23.4291 22.2117 24.0028C21.5783 24.3047 21.0597 24.1789 20.7904 23.6656C20.5012 23.1222 20.6807 22.5284 21.3589 22.2617C22.2166 21.9245 23.1243 21.7233 24.0518 21.4515H24.0568Z"
            fill="black" />
        <path
            d="M38.3193 23.0365C38.2994 23.9171 37.6411 24.4002 37.0227 24.0983C35.6414 23.419 34.3049 23.4089 32.9285 24.0983C32.4298 24.3499 31.986 24.1235 31.7416 23.6605C31.4973 23.1976 31.597 22.7447 32.0309 22.4025C33.3624 21.3609 36.5789 21.3508 37.9054 22.4126C38.1298 22.5937 38.2395 22.9107 38.3193 23.0315V23.0365Z"
            fill="black" />
        <path
            d="M29.4826 33.9058C28.8442 33.7196 28.2259 33.5888 27.6424 33.3623C27.1038 33.151 26.9143 32.5924 27.1188 32.0892C27.3133 31.6062 27.8568 31.3646 28.3904 31.5911C29.1385 31.9081 29.8516 31.9182 30.6046 31.5961C31.1382 31.3646 31.6818 31.5961 31.8863 32.0741C32.1107 32.5924 31.9112 33.156 31.3277 33.3875C30.7443 33.6139 30.1209 33.7397 29.4925 33.9108L29.4826 33.9058Z"
            fill="black" />
        <path
            d="M25.0093 27.2585C25.0093 27.646 25.0442 28.0334 24.9993 28.4159C24.9395 28.9744 24.6053 29.3166 24.0418 29.3619C23.5581 29.4021 23.1043 28.9996 23.0744 28.4461C23.0345 27.6309 23.0345 26.8157 23.0794 26.0005C23.1093 25.4621 23.4534 25.1501 24.0069 25.135C24.5305 25.1199 24.9345 25.4721 24.9893 26.0307C25.0292 26.4332 24.9993 26.8459 24.9993 27.2535L25.0093 27.2585Z"
            fill="black" />
        <path
            d="M35.9306 27.2433C35.9306 27.6509 35.9555 28.0636 35.9256 28.4661C35.8807 29.0146 35.5317 29.3115 35.008 29.3669C34.5343 29.4172 34.0406 29.0046 34.0107 28.4712C33.9658 27.656 33.9658 26.8358 34.0107 26.0256C34.0406 25.4721 34.4794 25.1249 35.003 25.145C35.5566 25.1651 35.8708 25.4872 35.9256 26.0206C35.9655 26.4231 35.9356 26.8358 35.9356 27.2433H35.9306Z"
            fill="black" />
    </g>
    <defs>
        <clipPath id="clip0_339_2515">
            <rect width="59" height="66" fill="white" />
        </clipPath>
    </defs>
</svg>
    