<svg width="62" height="66" viewBox="0 0 62 66" fill="none" xmlns="http://www.w3.org/2000/svg">
    <g clip-path="url(#clip0_339_2505)">
        <path
            d="M0.617843 66C-0.109635 65.3762 -0.179393 65.0894 0.313897 64.2442C1.21577 62.6947 2.02297 61.0647 3.08927 59.636C5.32153 56.6376 8.44071 55.1333 12.0681 54.5246C15.0578 54.0215 18.0325 53.4077 21.0121 52.8242C22.2329 52.5877 22.7312 51.9488 22.7361 50.6709C22.7411 48.9303 22.7561 47.1896 22.7212 45.4539C22.7162 45.1571 22.5518 44.7949 22.3425 44.5886C21.61 43.8742 20.8327 43.2051 20.0505 42.5411C17.7933 40.6193 16.6124 38.1692 16.5177 35.201C16.5028 34.7734 16.3533 34.5822 15.9895 34.376C13.0547 32.7208 11.545 30.1601 11.3955 26.7944C11.3456 25.7078 11.7343 24.7418 12.4319 23.8966C12.6113 23.6753 12.7408 23.3433 12.7508 23.0565C12.8155 20.8479 12.7159 18.6243 12.9102 16.4308C13.3039 11.9835 15.2371 8.23554 18.3962 5.12647C18.8646 4.66363 19.4874 4.66866 19.8661 5.09125C20.2797 5.54906 20.2348 6.06724 19.6718 6.6156C17.5043 8.74869 16.0344 11.2843 15.2471 14.2323C14.7588 16.0736 14.6841 17.9552 14.699 19.8468C14.704 20.7423 14.699 21.6378 14.699 22.5685C15.6706 22.5685 16.5576 22.5836 17.4495 22.5635C17.9776 22.5534 18.2068 22.1761 18.3613 21.7132C18.9991 19.8065 19.6469 17.9049 20.2896 16.0032C21.042 13.7796 22.7561 12.8841 24.9983 13.523C27.4299 14.2223 29.8963 14.5795 32.4275 14.3581C32.6966 14.333 32.9956 14.3279 33.2447 14.4185C33.6931 14.5744 33.9224 14.9417 33.8675 15.4247C33.8078 15.9277 33.5088 16.2799 32.9906 16.2749C31.3812 16.2749 29.7568 16.3302 28.1573 16.1692C26.8569 16.0435 25.5863 15.651 24.3057 15.3542C23.2394 15.1077 22.5468 15.4599 22.1781 16.5264C21.5004 18.4885 20.8278 20.4505 20.17 22.4176C19.9159 23.1823 19.4874 23.7759 18.7898 24.1985C18.6354 24.2941 18.5158 24.5456 18.4909 24.7418C18.441 25.099 18.4909 25.4713 18.4709 25.8335C18.4261 26.4423 18.0474 26.8246 17.5143 26.8347C16.9711 26.8447 16.5775 26.4926 16.5227 25.8788C16.4828 25.4562 16.5177 25.0236 16.5177 24.3897C15.7454 24.5456 15.0129 24.5859 14.3851 24.8575C13.7025 25.1493 13.3786 25.8134 13.3736 26.5882C13.3587 29.0483 14.415 30.9348 16.5077 32.4542C16.5077 31.7599 16.5028 31.2166 16.5077 30.6732C16.5227 29.8532 16.8515 29.4306 17.4744 29.4205C18.1271 29.4105 18.4759 29.8482 18.4809 30.6984C18.4809 31.1059 18.4809 31.5084 18.4809 32.0064C18.7649 32.0064 19.014 32.0064 19.2582 32.0064C20.6633 32.0064 22.0685 31.9963 23.4686 32.0064C24.4701 32.0165 25.1378 32.6001 25.1876 33.6062C25.2425 34.7835 25.2425 35.9707 25.1876 37.148C25.1428 38.1843 24.4801 38.7729 23.4337 38.788C22.3475 38.8081 21.2613 38.788 20.18 38.788C19.9757 38.788 19.7714 38.788 19.3429 38.788C19.8511 39.4219 20.18 39.9753 20.6384 40.3929C22.5966 42.1738 24.5797 43.9346 26.5778 45.6652C27.395 46.3746 28.3915 46.6865 29.4678 46.6714C30.7832 46.6563 32.1186 46.7418 33.4091 46.5305C34.2213 46.3997 35.0584 45.9419 35.7111 45.4137C37.4501 44 39.1143 42.4907 40.7636 40.9765C41.4263 40.3727 41.9794 39.6483 42.5823 38.9792L42.4528 38.788C41.2918 38.788 40.1308 38.788 38.9698 38.788C37.3455 38.788 36.7974 38.2296 36.7974 36.5744C36.7974 35.694 36.7874 34.8136 36.7974 33.9332C36.8173 32.6151 37.4302 32.0014 38.7207 31.9963C40.2903 31.9963 41.8648 31.9963 43.4892 31.9963C43.5041 31.775 43.534 31.5939 43.534 31.4077C43.534 29.2394 43.529 27.0711 43.544 24.8978C43.544 24.5205 43.4742 24.284 43.1055 24.0878C42.4627 23.7407 42.089 23.142 41.8548 22.4478C41.1921 20.4807 40.5245 18.5186 39.8468 16.5616C39.4731 15.4699 38.8453 15.1178 37.7491 15.3492C37.0067 15.5052 36.5034 15.2737 36.3689 14.7052C36.2194 14.0764 36.5482 13.6286 37.3056 13.4324C39.1841 12.9344 40.943 13.8299 41.6007 15.6863C42.3033 17.6584 42.9809 19.6456 43.6237 21.6378C43.8479 22.327 44.2316 22.6037 44.9292 22.5786C45.6915 22.5484 46.4539 22.5735 47.3059 22.5735C47.3059 21.2202 47.3209 19.8971 47.3059 18.574C47.2163 10.8868 42.4528 4.54289 35.2129 2.54563C31.3064 1.46902 27.5146 1.89162 23.8622 3.64236C23.653 3.74298 23.4487 3.86372 23.2344 3.95427C22.6564 4.19576 22.1083 4.00961 21.8841 3.50149C21.6649 3.00847 21.8442 2.50538 22.3824 2.20856C23.9021 1.36841 25.5115 0.789856 27.2056 0.422602C37.4601 -1.78092 47.4305 5.12647 48.9801 15.6309C49.3289 17.9904 49.1844 20.4253 49.2392 22.8251C49.2492 23.2929 49.3339 23.6602 49.6528 24.0375C50.8885 25.4814 50.749 27.1667 50.3205 28.8521C49.6927 31.3323 48.2128 33.1635 46.0055 34.4112C45.8012 34.5269 45.5321 34.7784 45.5271 34.9696C45.4623 38.4811 43.8529 41.1475 41.1722 43.2454C40.9031 43.4567 40.6889 43.7485 40.3999 43.9145C39.3735 44.5081 39.1791 45.4036 39.2489 46.5154C39.3336 47.9291 39.2638 49.3478 39.2738 50.7665C39.2838 51.9488 39.7571 52.5424 40.9031 52.799C41.6705 52.9701 42.4428 53.0958 43.2151 53.2518C43.8579 53.3826 44.2067 53.8052 44.1419 54.3485C44.0771 54.922 43.6088 55.2591 42.9261 55.1736C42.3581 55.1031 41.8 54.9371 41.232 54.8918C40.9281 54.8667 40.5593 54.912 40.3002 55.0679C34.0967 58.7304 27.9032 58.7254 21.6997 55.0679C21.4257 54.9069 21.0221 54.8566 20.7082 54.912C18.3663 55.3245 16.0344 55.7823 13.7025 56.225C13.558 56.2502 13.4234 56.3156 13.3088 56.3558C13.8569 57.6085 14.4399 58.821 14.9183 60.0736C15.4962 61.5879 15.6906 63.1827 15.7504 64.7976C15.7703 65.3208 15.5461 65.6881 15.1774 66.005H14.41C14.2007 65.6328 13.8171 65.2655 13.8121 64.8932C13.7971 62.0055 12.7458 59.4649 11.3606 57.0249C11.2908 56.8992 11.0666 56.7533 10.947 56.7835C10.4388 56.8992 9.94051 57.0702 9.38743 57.2362C9.66646 57.7796 9.89069 58.2625 10.1448 58.7254C11.1463 60.5214 11.8041 62.413 11.9236 64.4907C11.9585 65.1146 11.8539 65.6277 11.3407 66.005H10.5733C10.1299 65.678 9.9455 65.2454 9.9455 64.687C9.9455 64.2191 9.88072 63.7462 9.81096 63.2833C9.512 61.3817 8.47559 59.8171 7.62853 58.1267C5.91946 59.2033 4.60402 60.5465 3.65232 62.2419C3.1391 63.1525 2.65079 64.0832 2.12262 64.9838C1.91335 65.346 1.62934 65.6629 1.38518 66H0.617843ZM23.4537 53.775C28.3666 56.6728 34.6448 56.2351 38.5164 53.7398C37.4651 52.7437 37.2458 51.4709 37.2857 50.0924C37.3156 49.0108 37.2907 47.9241 37.2907 46.8374C37.1761 46.8475 37.1262 46.8374 37.0963 46.8575C36.9568 46.9582 36.8273 47.0638 36.6927 47.1695C35.5517 48.0599 34.2761 48.5882 32.8262 48.6033C31.6353 48.6183 30.4444 48.6133 29.2585 48.6033C27.7587 48.5932 26.4433 48.0549 25.2723 47.1292C25.1179 47.0085 24.9634 46.8928 24.7193 46.7016C24.7193 47.9492 24.6944 49.046 24.7242 50.1377C24.7591 51.496 24.5249 52.7437 23.4537 53.77V53.775ZM45.547 32.4039C47.4106 31.0858 48.447 29.4256 48.6164 27.2623C48.6563 26.729 48.6014 26.1304 48.3972 25.6474C47.9686 24.6563 46.8475 24.2891 45.552 24.5909V32.4039H45.547ZM18.4361 33.9835C18.4909 34.9444 18.5407 35.845 18.5855 36.7304H23.1896V33.9835H18.4361ZM43.4344 36.7455C43.4742 35.8097 43.5141 34.9092 43.554 33.9986H38.8054V36.7455H43.4294H43.4344Z"
            fill="black" />
        <path
            d="M46.8326 66C46.3343 65.6328 46.2496 65.1297 46.2745 64.536C46.3642 62.0709 46.992 59.7668 48.143 57.5985C48.3523 57.2061 48.5466 56.8036 48.7858 56.3307C48.2875 56.2301 47.8291 56.1546 47.3857 56.0439C46.8575 55.9131 46.5286 55.4352 46.5984 54.9522C46.6731 54.4491 47.0967 54.0618 47.6398 54.1322C51.5213 54.6504 55.2982 55.5056 58.0437 58.6248C59.0901 59.812 59.8773 61.2358 60.7543 62.569C61.1081 63.1022 61.3871 63.6858 61.696 64.2442C62.1644 65.0995 62.1146 65.3812 61.3871 66H60.6198C60.3706 65.6629 60.0916 65.341 59.8823 64.9838C59.3542 64.0782 58.8708 63.1525 58.3526 62.242C57.386 60.5415 56.0755 59.1782 54.3615 58.1317C54.0177 58.7958 53.7087 59.4297 53.3749 60.0435C52.5527 61.5527 52.0744 63.1425 52.0146 64.8781C51.9997 65.2605 51.6309 65.6277 51.4266 66.005H50.6593C50.2507 65.6881 50.0315 65.2907 50.0664 64.7473C50.166 62.9966 50.5298 61.3163 51.337 59.7517C51.7555 58.9417 52.1691 58.1217 52.6175 57.2362C51.9897 57.0501 51.4117 56.874 50.8038 56.6929C50.5248 57.2362 50.2806 57.7343 50.0165 58.2173C48.8805 60.295 48.2527 62.5086 48.1929 64.8932C48.1829 65.2705 47.8042 65.6378 47.5949 66.0101H46.8276L46.8326 66Z"
            fill="black" />
        <path
            d="M40.963 65.9999C40.4746 65.7082 40.2853 65.2856 40.3202 64.707C40.3551 64.0228 40.3401 63.3336 40.3252 62.6444C40.3152 62.0155 40.0461 61.7388 39.4283 61.7388C33.8127 61.7388 28.1972 61.7388 22.5817 61.7388C21.9638 61.7388 21.6998 62.0155 21.6848 62.6444C21.6699 63.3336 21.6549 64.0178 21.6898 64.707C21.7197 65.2856 21.5303 65.7082 21.047 65.9999H20.2797C19.8213 65.6075 19.7216 65.0994 19.7515 64.5158C19.7864 63.8115 19.7515 63.0971 19.7665 62.3928C19.8013 61.0043 20.8278 59.9227 22.198 59.7969C22.3674 59.7818 22.5369 59.7768 22.7063 59.7717C28.2371 59.7717 33.7679 59.7717 39.2987 59.7717C40.8035 59.7717 41.9495 60.5062 42.1488 61.8193C42.3232 62.9512 42.2385 64.1285 42.2036 65.2856C42.1937 65.527 41.8947 65.7635 41.7303 65.9999H40.963Z"
            fill="black" />
        <path
            d="M31.2217 41.1777C29.986 41.2129 28.8251 40.9262 27.7538 40.2923C27.1857 39.9552 27.0064 39.4421 27.2505 38.944C27.5096 38.4208 28.0776 38.2497 28.6706 38.5768C30.2352 39.437 31.7798 39.432 33.3394 38.5768C33.9074 38.2648 34.4406 38.4107 34.7196 38.9038C35.0086 39.4119 34.8591 40.0256 34.2363 40.2923C33.2746 40.7048 32.2681 41.0117 31.2815 41.3588C31.2616 41.2985 31.2417 41.2431 31.2168 41.1827L31.2217 41.1777Z"
            fill="black" />
        <path
            d="M28.7104 24.0376C28.7304 24.9934 28.0527 25.5166 27.4149 25.1947C25.955 24.4652 24.5399 24.4652 23.085 25.1997C22.6016 25.4462 22.1432 25.2248 21.904 24.7469C21.6649 24.274 21.7396 23.7609 22.218 23.5143C22.8308 23.1974 23.4935 22.9106 24.1662 22.7849C25.5066 22.5333 26.8419 22.6591 28.0527 23.3534C28.3666 23.5345 28.5809 23.8866 28.7154 24.0376H28.7104Z"
            fill="black" />
        <path
            d="M36.7625 22.498C37.7341 22.7898 38.6609 23.0112 39.5329 23.3533C40.2006 23.6149 40.3949 24.2387 40.1109 24.7619C39.8318 25.2801 39.3087 25.4009 38.6808 25.099C37.3953 24.4752 36.1097 24.4752 34.8242 25.099C34.1914 25.4059 33.6682 25.2801 33.3942 24.7619C33.1201 24.2488 33.2845 23.635 33.9174 23.3835C34.8292 23.0213 35.7909 22.7949 36.7675 22.498H36.7625Z"
            fill="black" />
        <path
            d="M31.0025 35.5179C30.3248 35.3167 29.6621 35.1658 29.0393 34.9142C28.5111 34.7029 28.3367 34.1696 28.5311 33.6917C28.7403 33.1836 29.2486 32.922 29.7817 33.1433C30.6138 33.4955 31.4111 33.4854 32.2432 33.1383C32.7763 32.9119 33.1999 33.1433 33.454 33.6515C33.6882 34.1143 33.5337 34.6727 33.0105 34.8941C32.3777 35.1607 31.6901 35.3116 31.0075 35.5179H31.0025Z"
            fill="black" />
        <path
            d="M24.2658 28.4998C24.2658 28.1376 24.2459 27.7704 24.2658 27.4081C24.3057 26.7793 24.7193 26.3617 25.2574 26.3667C25.7756 26.3667 26.1991 26.7642 26.224 27.3629C26.2589 28.1527 26.2639 28.9476 26.224 29.7374C26.1941 30.3562 25.7955 30.7034 25.2424 30.6983C24.6993 30.6983 24.3206 30.3311 24.2708 29.7223C24.2409 29.3199 24.2658 28.9073 24.2658 28.4998Z"
            fill="black" />
        <path
            d="M37.7391 28.5201C37.7391 28.9074 37.7591 29.2948 37.7391 29.6772C37.6993 30.3261 37.3206 30.7035 36.7476 30.7035C36.1995 30.7035 35.8108 30.3513 35.7809 29.7275C35.746 28.9376 35.746 28.1427 35.7809 27.3529C35.8108 26.7542 36.2443 26.3668 36.7625 26.3719C37.2807 26.3769 37.6893 26.7743 37.7341 27.368C37.764 27.7503 37.7391 28.1377 37.7391 28.5251V28.5201Z"
            fill="black" />
    </g>
    <defs>
        <clipPath id="clip0_339_2505">
            <rect width="62" height="66" fill="white" />
        </clipPath>
    </defs>
</svg>
    