<svg width="212" height="241" fill="none" xmlns="http://www.w3.org/2000/svg">
    <g clip-path="url(#a)">
        <path
            d="m192.37 62.353-53.415-13.7-29.491-46.741c-1.61-2.55-5.318-2.55-6.928 0l-29.49 46.74-53.416 13.7c-2.913.747-4.06 4.286-2.142 6.61l35.192 42.586-3.523 55.207c-.194 3.015 2.806 5.198 5.602 4.086L106 150.42l51.241 20.421c2.797 1.112 5.796-1.071 5.602-4.086l-3.523-55.207 35.192-42.587c1.917-2.323.772-5.862-2.142-6.608Zm-26.717 15.964-19.928 24.16c0 .04-.04.04-.04.04l-2.725 8.109 2.035 31.54c.162 2.975-2.806 5.135-5.571 4.032l-29.847-11.896h-7.154l-29.847 11.896c-2.765 1.103-5.733-1.057-5.57-4.032l2.034-31.54-2.725-8.109s-.04 0-.04-.04l-19.928-24.16c-1.908-2.282-.771-5.79 2.115-6.522l29.522-7.58 8.336-6.152c.04 0 .04-.04.04-.04l16.185-25.67c1.624-2.526 5.286-2.526 6.91 0l16.184 25.67 8.377 6.192 29.522 7.58c2.887.732 4.023 4.24 2.115 6.522Z"
            fill="url(#b)" />
        <path
            d="m194.905 224.76-19.107-51.121a3.851 3.851 0 0 0-3.604-2.504H39.802a3.844 3.844 0 0 0-3.6 2.499L17.091 224.76h177.814Z"
            fill="#343B49" />
        <path
            d="M75.698 176.012c-27.29 3.629-41.462 20.2-44.43 24.06l8.534-22.826a1.9 1.9 0 0 1 1.777-1.234h34.119Z"
            fill="#4E5868" />
        <path
            d="M194.905 224.76h-8.521l-19.112-51.121a3.845 3.845 0 0 0-3.604-2.504h8.526c1.605 0 3.04.999 3.604 2.504l19.107 51.121Z"
            fill="#262D38" />
        <path
            d="M106 241c58.542 0 106-1.089 106-2.432s-47.458-2.432-106-2.432-106 1.089-106 2.432S47.458 241 106 241Z"
            fill="#000" />
        <path
            d="M204.052 222.296H7.948a4.57 4.57 0 0 0-4.565 4.575v6.499a4.57 4.57 0 0 0 4.565 4.575h196.104a4.57 4.57 0 0 0 4.565-4.575v-6.499a4.57 4.57 0 0 0-4.565-4.575Z"
            fill="#262D38" />
        <path
            d="m66.316 102.517 2.724 8.109-.528 8.163a44.973 44.973 0 0 1-7.52-22.713l5.283 6.401c0 .04.04.04.04.04ZM90.628 51.252l-4.267 6.77s0 .041-.04.041l-8.337 6.152-7.713 1.98a45.144 45.144 0 0 1 20.357-14.943ZM109.577 134.302l7.821 3.119A45.128 45.128 0 0 1 106 138.876c-3.938 0-7.758-.506-11.398-1.455l7.821-3.119h7.154ZM141.729 66.195l-7.713-1.98-8.377-6.192-4.267-6.771a45.14 45.14 0 0 1 20.357 14.943ZM151.007 96.076a44.972 44.972 0 0 1-7.519 22.713l-.528-8.163 2.725-8.109s.04 0 .04-.04l5.282-6.4Z"
            fill="#6D6D6D" style="mix-blend-mode:color-burn" opacity=".2" />
        <path
            d="M106 134.464c22.458 0 40.663-18.243 40.663-40.747S128.458 52.969 106 52.969 65.337 71.213 65.337 93.718c0 22.504 18.205 40.747 40.663 40.747Z"
            fill="url(#c)" />
        <path
            d="M106 128.932c19.409 0 35.142-15.766 35.142-35.215 0-19.449-15.733-35.215-35.142-35.215-19.409 0-35.142 15.766-35.142 35.215 0 19.449 15.733 35.215 35.142 35.215Z"
            fill="#6D6D6D" style="mix-blend-mode:color-burn" opacity=".2" />
        <path
            d="M106 125.316c17.416 0 31.534-14.147 31.534-31.599 0-17.452-14.118-31.6-31.534-31.6-17.416 0-31.534 14.148-31.534 31.6S88.584 125.316 106 125.316Z"
            fill="url(#d)" />
        <path
            d="m124.403 68.062-44.01 44.101a31.52 31.52 0 0 1-5.927-18.446c0-1.672.13-3.318.384-4.922l26.238-26.293a31.455 31.455 0 0 1 4.912-.384 31.3 31.3 0 0 1 18.403 5.944ZM135.342 82.119l-40.916 41a31.446 31.446 0 0 1-11.57-7.95l44.556-44.648a31.69 31.69 0 0 1 7.93 11.598ZM137.534 93.717c0 .637-.018 1.27-.059 1.898l-29.58 29.642a31.694 31.694 0 0 1-9.324-.822l38.083-38.163a31.84 31.84 0 0 1 .88 7.445Z"
            fill="#D9D9D9" style="mix-blend-mode:soft-light" opacity=".7" />
        <path
            d="m138.941 48.63-6.121-1.568a4.77 4.77 0 0 1-2.855-2.084l-27.294-43.26c1.669-2.355 5.223-2.288 6.793.194l29.477 46.718ZM106 150.388l-51.241 20.453c-2.458.976-5.074-.592-5.539-3.037l47.97-19.147a6.019 6.019 0 0 1 4.462 0l4.352 1.731H106ZM194.512 68.961l-35.192 42.587 3.523 55.207c.194 3.015-2.806 5.198-5.602 4.086l-5.066-2.02c1.62-.593 2.82-2.188 2.693-4.132l-3.523-55.207 35.192-42.587c1.836-2.224.866-5.56-1.777-6.495l7.61 1.953c2.914.746 4.059 4.285 2.142 6.608Z"
            fill="#6D6D6D" style="mix-blend-mode:color-burn" opacity=".2" />
        <path d="m79.387 44.942 22.102-22.148-4.961-5.876-17.14 28.024Z" fill="#D9D9D9"
            style="mix-blend-mode:soft-light" opacity=".7" />
        <path
            d="M117.917 93.79c-1.006-1-2.386-1.8-4.159-2.292a12.48 12.48 0 0 0-1.127-.254v-.293a13.963 13.963 0 0 0 2.363-.9c.857-.438 1.61-.954 2.246-1.568 1.299-1.252 2.066-2.875 2.066-4.819 0-2.413-1.52-4.375-3.198-5.505-2.07-1.383-4.763-1.83-8.453-1.83-3.689 0-7.357.646-9.711 1.577-.023.253-1.128 1.153-1.137 1.406-.009.154-.022.294-.022.452 0 .108.013.208.013.316.054 1.975.83 3.612.745 5.704.721.109 1.303.579 1.907 1.03.569.44 1.16.846 1.872.91.185 0 .961-1.406 1.137-1.406l.113-.47.776-3.345.144-.615c.054-.194.099-.294.248-.384.032-.032.068-.054.099-.086.645-.438 1.633-.66 2.648-.66 1.425 0 2.607.154 3.536 1.184.681.692.93 1.723.93 2.608 0 1.415-.402 2.636-1.566 3.544-.744.583-1.786 1.053-3.229 1.352-1.223.262-2.725.406-4.579.415 0 .032-.031.09-.076.154-.253.34-1.065 1.076-1.065 1.252.014 1.23 1.105 1.853 1.263 3.029.014.045.018.099.018.14h2.747c.537 0 1.051.031 1.547.099 3.108.393 5.233 2.043 5.233 4.927 0 .1 0 .208-.009.307-.045.76-.23 1.483-.596 2.106a3.586 3.586 0 0 1-.582.787 4.791 4.791 0 0 1-.239.23l-.194.163c-.929.737-2.345 1.121-4.172 1.121-.69 0-1.619-.199-2.115-.443-.154-.095-.294-.194-.352-.438l-1.128-4.629c-.054.01-.113.023-.162.023-1.25.176-2.53.384-3.722.592-.414.077-.82.145-1.217.221.022.254-1.16 1.162-1.137 1.415.27 2.554 1.809 4.498 2.165 7.097.546.122 1.15.207 1.773.275h.022c1.678.208 3.537.262 4.881.262.933 0 1.818-.031 2.675-.085 2.922-.186 5.376-.715 7.181-1.537a8.575 8.575 0 0 0 1.587-.931c.293-.222.578-.439.866-.683.054-.045.095-.077.14-.122.253-.217.483-.438.722-.678a7.809 7.809 0 0 0 1.497-2.052c.573-1.067.898-2.305.898-3.797 0-1.735-.69-3.49-2.125-4.881l.014.004Z"
            fill="#5D2A14" />
        <path
            d="M117.087 95.511v-.009c-1.227-1.338-3.076-2.39-5.593-2.852v-.298c.807-.23 1.565-.515 2.264-.854 1.511-.737 2.716-1.759 3.482-3.02.6-.985.93-2.129.93-3.412 0-2.414-1.52-4.38-3.198-5.51-2.062-1.383-4.764-1.822-8.444-1.822-3.681 0-7.37.638-9.725 1.569-.01.154-.023.294-.023.452-.009.086-.022.185-.022.271-.118 1.636-.199 3.3-.262 4.972-.031.737-.068 1.46-.086 2.183.835.131 1.71.244 2.585.317.776.09 1.57.153 2.323.221l.591-2.522.451-1.898c.04-.2.095-.299.239-.394.207-.162.46-.298.744-.407.578-.221 1.281-.33 2.003-.33 1.425 0 2.603.145 3.536 1.171.69.692.929 1.722.929 2.613 0 .782-.121 1.505-.428 2.142-.415.89-1.186 1.623-2.422 2.16-1.06.462-2.468.778-4.303.923a36.26 36.26 0 0 1-2.224.09c0 .57.013 1.17.022 1.79.023.931.068 1.898.122 2.784h2.747c3.929 0 6.78 1.677 6.78 5.027 0 .56-.077 1.098-.244 1.604-.063.208-.14.407-.239.592a4.01 4.01 0 0 1-.943 1.252c-.933.836-2.413 1.275-4.371 1.275h-.063c-.681-.009-1.565-.199-2.048-.439-.153-.099-.297-.198-.351-.438l-.492-2.029-.636-2.599s-.045.013-.068.013c-.545.077-1.091.163-1.642.24a119.03 119.03 0 0 0-3.391.592c.27 2.567.577 5.175.938 7.801.027.231.058.47.085.701 2.017.452 4.822.547 6.681.547 1.858 0 3.482-.109 4.993-.317 2.792-.406 5.016-1.152 6.45-2.237l.023-.009c.775-.583 1.497-1.207 2.133-1.93.248-.294.492-.615.708-.954a7.368 7.368 0 0 0 1.051-2.513 8.972 8.972 0 0 0 .208-1.934c0-1.6-.591-3.223-1.818-4.566l.018-.009Z"
            fill="#843C1D" />
    </g>
    <defs>
        <linearGradient id="b" x1="16.545" y1="85.567" x2="195.455" y2="85.567"
            gradientUnits="userSpaceOnUse">
            <stop stop-color="#C46E45" />
            <stop offset=".44" stop-color="#C27337" />
            <stop offset="1" stop-color="#C28A37" />
        </linearGradient>
        <linearGradient id="c" x1="65.337" y1="93.717" x2="146.663" y2="93.717"
            gradientUnits="userSpaceOnUse">
            <stop stop-color="#C46E45" />
            <stop offset=".44" stop-color="#C27337" />
            <stop offset="1" stop-color="#C28A37" />
        </linearGradient>
        <linearGradient id="d" x1="74.466" y1="93.717" x2="137.534" y2="93.717"
            gradientUnits="userSpaceOnUse">
            <stop stop-color="#C46E45" />
            <stop offset=".44" stop-color="#C27337" />
            <stop offset="1" stop-color="#C28A37" />
        </linearGradient>
        <clipPath id="a">
            <path fill="#fff" d="M0 0h212v241H0z" />
        </clipPath>
    </defs>
</svg>