<svg width="213" height="241" fill="none" xmlns="http://www.w3.org/2000/svg">
    <path
        d="m193.277 62.353-53.667-13.7-29.63-46.741c-1.617-2.55-5.343-2.55-6.961 0l-29.63 46.74-53.666 13.7c-2.928.747-4.079 4.286-2.153 6.61l35.358 42.586-3.54 55.207c-.194 3.015 2.82 5.198 5.63 4.086L106.5 150.42l51.483 20.421c2.809 1.112 5.823-1.071 5.628-4.086l-3.539-55.207 35.358-42.587c1.926-2.323.775-5.862-2.153-6.608Zm-26.842 15.964-20.022 24.16c0 .04-.041.04-.041.04l-2.738 8.109 2.044 31.54c.164 2.975-2.818 5.135-5.597 4.032l-29.987-11.896h-7.188l-29.988 11.896c-2.778 1.103-5.76-1.057-5.596-4.032l2.043-31.54-2.737-8.109s-.04 0-.04-.04l-20.023-24.16c-1.917-2.282-.775-5.79 2.126-6.522l29.661-7.58 8.375-6.152c.041 0 .041-.04.041-.04l16.261-25.67c1.631-2.526 5.311-2.526 6.942 0l16.261 25.67 8.416 6.192 29.661 7.58c2.9.732 4.043 4.24 2.126 6.522Z"
        fill="#E8A615" />
    <path
        d="m195.824 224.76-19.197-51.121a3.869 3.869 0 0 0-3.621-2.504H39.99c-1.61 0-3.05.994-3.617 2.499L17.171 224.76h178.653Z"
        fill="#343B49" />
    <path
        d="M76.055 176.012c-27.418 3.629-41.658 20.2-44.64 24.06l8.575-22.826a1.908 1.908 0 0 1 1.785-1.234h34.28Z"
        fill="#4E5868" />
    <path
        d="M195.824 224.76h-8.561l-19.202-51.121a3.863 3.863 0 0 0-3.621-2.504h8.566c1.613 0 3.054.999 3.621 2.504l19.197 51.121Z"
        fill="#262D38" />
    <path
        d="M106.5 241c58.818 0 106.5-1.089 106.5-2.432s-47.682-2.432-106.5-2.432S0 237.225 0 238.568 47.682 241 106.5 241Z"
        fill="#000" />
    <path
        d="M205.015 222.296H7.985a4.58 4.58 0 0 0-4.586 4.575v6.499a4.58 4.58 0 0 0 4.586 4.575h197.03a4.58 4.58 0 0 0 4.586-4.575v-6.499a4.58 4.58 0 0 0-4.586-4.575Z"
        fill="#262D38" />
    <path
        d="m66.628 102.517 2.737 8.109-.53 8.163a44.832 44.832 0 0 1-7.554-22.713l5.306 6.401c0 .04.041.04.041.04ZM91.055 51.252l-4.287 6.77s0 .041-.04.041l-8.376 6.152-7.75 1.98a45.343 45.343 0 0 1 20.453-14.943ZM110.094 134.302l7.858 3.119a45.547 45.547 0 0 1-11.452 1.455c-3.956 0-7.795-.506-11.452-1.455l7.858-3.119h7.188ZM142.397 66.195l-7.749-1.98-8.416-6.192-4.287-6.771a45.342 45.342 0 0 1 20.452 14.943ZM151.719 96.076a44.835 44.835 0 0 1-7.554 22.713l-.53-8.163 2.737-8.109s.041 0 .041-.04l5.306-6.4Z"
        fill="#D1900F" />
    <path
        d="M106.5 134.464c22.564 0 40.855-18.243 40.855-40.747S129.064 52.969 106.5 52.969c-22.564 0-40.855 18.244-40.855 40.748 0 22.504 18.291 40.747 40.855 40.747Z"
        fill="#E8A615" />
    <path
        d="M106.5 128.932c19.5 0 35.308-15.766 35.308-35.215 0-19.449-15.808-35.215-35.308-35.215S71.192 74.268 71.192 93.717c0 19.449 15.808 35.215 35.308 35.215Z"
        fill="#D1900F" />
    <path
        d="M106.5 125.316c17.498 0 31.683-14.147 31.683-31.599 0-17.452-14.185-31.6-31.683-31.6-17.498 0-31.683 14.148-31.683 31.6s14.185 31.599 31.683 31.599Z"
        fill="#E8A615" />
    <path
        d="m124.99 68.062-44.218 44.101a31.42 31.42 0 0 1-5.955-18.446c0-1.672.132-3.318.386-4.922l26.362-26.293a31.75 31.75 0 0 1 4.935-.384 31.549 31.549 0 0 1 18.49 5.944ZM135.98 82.119l-41.109 41a31.599 31.599 0 0 1-11.624-7.95l44.766-44.648a31.683 31.683 0 0 1 7.967 11.598ZM138.183 93.717c0 .637-.019 1.27-.059 1.898l-29.721 29.642a31.98 31.98 0 0 1-9.367-.822l38.263-38.163c.575 2.387.884 4.877.884 7.445Z"
        fill="#FCBB38" />
    <path
        d="m139.597 48.63-6.15-1.568a4.791 4.791 0 0 1-2.869-2.084l-27.422-43.26c1.676-2.355 5.247-2.288 6.825.194l29.616 46.718ZM106.5 150.388l-51.483 20.453c-2.47.976-5.098-.592-5.565-3.037l48.197-19.147a6.072 6.072 0 0 1 4.482 0l4.373 1.731h-.004ZM195.43 68.961l-35.358 42.587 3.539 55.207c.195 3.015-2.819 5.198-5.628 4.086l-5.09-2.02c1.627-.593 2.833-2.188 2.706-4.132l-3.54-55.207 35.358-42.587c1.845-2.224.87-5.56-1.785-6.495l7.645 1.953c2.928.746 4.079 4.285 2.153 6.608Z"
        fill="#D1900F" />
    <path
        d="m22.252 67.903 8.565 10.487s-2.266-10.848 8.157-17.176l-15.983 4.384a1.442 1.442 0 0 0-.74 2.305ZM79.762 44.942l22.206-22.148-4.985-5.876-17.221 28.024ZM61.552 145.186l-7.622-1.212 2.325-31.233 5.297 32.445Z"
        fill="#FC6" />
    <path d="M100.554 110.997v-4.362h2.035V80.031h-2.434v-4.728h12.572v31.332h2.039v4.362h-14.212Z"
        fill="#FF9D09" />
    <path d="M112.722 106.63V75.298H100.16v1.663h11.108v31.337h2.039v2.69h1.455v-4.362h-2.04v.004Z"
        fill="#767676" style="mix-blend-mode:color-burn" opacity=".3" />
    <path
        d="m111.268 76.961 1.454-1.582v31.102l-1.454 1.817V76.961ZM114.762 106.631v4.361h-1.455v-2.49l1.455-1.871Z"
        fill="#767676" style="mix-blend-mode:color-burn" opacity=".2" />
</svg>