<svg width="213" height="241" fill="none" xmlns="http://www.w3.org/2000/svg">
    <g clip-path="url(#a)">
        <path
            d="m193.277 62.353-53.667-13.7-29.63-46.741c-1.617-2.55-5.343-2.55-6.961 0l-29.63 46.74-53.666 13.7c-2.928.747-4.079 4.286-2.153 6.61l35.358 42.586-3.54 55.207c-.194 3.015 2.82 5.198 5.63 4.086L106.5 150.42l51.483 20.421c2.809 1.112 5.823-1.071 5.628-4.086l-3.539-55.207 35.358-42.587c1.926-2.323.775-5.862-2.153-6.608Zm-26.842 15.964-20.022 24.16c0 .04-.041.04-.041.04l-2.738 8.109 2.044 31.54c.164 2.975-2.818 5.135-5.597 4.032l-29.987-11.896h-7.188l-29.988 11.896c-2.778 1.103-5.76-1.057-5.596-4.032l2.043-31.54-2.737-8.109s-.04 0-.04-.04l-20.023-24.16c-1.917-2.282-.775-5.79 2.126-6.522l29.661-7.58 8.375-6.152c.041 0 .041-.04.041-.04l16.261-25.67c1.631-2.526 5.311-2.526 6.942 0l16.261 25.67 8.416 6.192 29.661 7.58c2.9.732 4.043 4.24 2.126 6.522Z"
            fill="url(#b)" />
        <path
            d="m195.824 224.76-19.197-51.121a3.869 3.869 0 0 0-3.621-2.504H39.99c-1.61 0-3.05.994-3.617 2.499L17.171 224.76h178.653Z"
            fill="#343B49" />
        <path
            d="M76.055 176.012c-27.418 3.629-41.658 20.2-44.64 24.06l8.575-22.826a1.908 1.908 0 0 1 1.785-1.234h34.28Z"
            fill="#4E5868" />
        <path
            d="M195.824 224.76h-8.561l-19.202-51.121a3.863 3.863 0 0 0-3.621-2.504h8.566c1.613 0 3.054.999 3.621 2.504l19.197 51.121Z"
            fill="#262D38" />
        <path
            d="M106.5 241c58.818 0 106.5-1.089 106.5-2.432s-47.682-2.432-106.5-2.432S0 237.225 0 238.568 47.682 241 106.5 241Z"
            fill="#000" />
        <path
            d="M205.015 222.296H7.985a4.58 4.58 0 0 0-4.586 4.575v6.499a4.58 4.58 0 0 0 4.586 4.575h197.03a4.58 4.58 0 0 0 4.586-4.575v-6.499a4.58 4.58 0 0 0-4.586-4.575Z"
            fill="#262D38" />
        <path
            d="m66.628 102.517 2.737 8.109-.53 8.163a44.832 44.832 0 0 1-7.554-22.713l5.306 6.401c0 .04.041.04.041.04ZM91.055 51.252l-4.287 6.77s0 .041-.04.041l-8.376 6.152-7.75 1.98a45.342 45.342 0 0 1 20.453-14.943ZM110.094 134.302l7.858 3.119a45.547 45.547 0 0 1-11.452 1.455c-3.956 0-7.795-.506-11.452-1.455l7.858-3.119h7.188ZM142.397 66.195l-7.749-1.98-8.416-6.192-4.287-6.771a45.34 45.34 0 0 1 20.452 14.943ZM151.719 96.076a44.835 44.835 0 0 1-7.554 22.713l-.53-8.163 2.737-8.109s.041 0 .041-.04l5.306-6.4Z"
            fill="#777" style="mix-blend-mode:color-burn" opacity=".2" />
        <path
            d="M106.5 134.464c22.564 0 40.855-18.243 40.855-40.747S129.064 52.969 106.5 52.969c-22.564 0-40.855 18.244-40.855 40.748 0 22.504 18.291 40.747 40.855 40.747Z"
            fill="url(#c)" />
        <path
            d="M106.5 128.932c19.5 0 35.308-15.766 35.308-35.215 0-19.449-15.808-35.215-35.308-35.215S71.192 74.268 71.192 93.717c0 19.449 15.808 35.215 35.308 35.215Z"
            fill="#777" style="mix-blend-mode:color-burn" opacity=".2" />
        <path
            d="M106.5 125.316c17.498 0 31.683-14.147 31.683-31.599 0-17.452-14.185-31.6-31.683-31.6-17.498 0-31.683 14.148-31.683 31.6s14.185 31.599 31.683 31.599Z"
            fill="#E8E8E8" style="mix-blend-mode:soft-light" opacity=".7" />
        <path
            d="m124.99 68.062-44.218 44.101a31.42 31.42 0 0 1-5.955-18.446c0-1.672.132-3.318.386-4.922l26.362-26.293a31.75 31.75 0 0 1 4.935-.384 31.549 31.549 0 0 1 18.49 5.944ZM135.98 82.119l-41.109 41a31.599 31.599 0 0 1-11.624-7.95l44.766-44.648a31.683 31.683 0 0 1 7.967 11.598ZM138.183 93.717c0 .637-.019 1.27-.059 1.898l-29.721 29.642a31.98 31.98 0 0 1-9.367-.822l38.263-38.163c.575 2.387.884 4.877.884 7.445Z"
            fill="#E8E8E8" style="mix-blend-mode:soft-light" opacity=".7" />
        <path
            d="m139.597 48.63-6.15-1.568a4.791 4.791 0 0 1-2.869-2.084l-27.422-43.26c1.676-2.355 5.247-2.288 6.825.194l29.616 46.718ZM106.5 150.388l-51.483 20.453c-2.47.976-5.098-.592-5.565-3.037l48.197-19.147a6.072 6.072 0 0 1 4.482 0l4.373 1.731h-.004ZM195.43 68.961l-35.358 42.587 3.539 55.207c.195 3.015-2.819 5.198-5.628 4.086l-5.09-2.02c1.627-.593 2.833-2.188 2.706-4.132l-3.54-55.207 35.358-42.587c1.845-2.224.87-5.56-1.785-6.495l7.645 1.953c2.928.746 4.079 4.285 2.153 6.608Z"
            fill="#777" style="mix-blend-mode:color-burn" opacity=".2" />
        <path
            d="m79.762 44.942 22.206-22.148-4.985-5.876-17.221 28.024ZM61.552 145.186l-7.622-1.212 2.325-31.233 5.297 32.445Z"
            fill="#E8E8E8" style="mix-blend-mode:soft-light" opacity=".7" />
        <path
            d="M118.891 102.115c0 1.844-.141 3.878-.327 5.628-.145 0-.811 1.211-1.065 1.333a.05.05 0 0 1-.036.014c-2.225 0-11.942-.05-15.445-.05h-6.023a41.634 41.634 0 0 1-1.278-4.113c-.04-.15 1.138-1.198 1.097-1.347 3.222-2.364 5.026-3.784 7.061-5.673 1.459-1.31 2.846-2.612 4.011-3.941 1.368-1.84 2.238-3.765 2.238-5.863 0-1.609-.376-2.648-1.092-3.638-.616-.805-1.704-1.325-2.887-1.325-.983 0-1.803.177-2.433.425l-.975 4.226c-.14 0-.951 1.352-1.096 1.352h-.05c-1.64-.01-3.327-.425-4.827-.515.14-2.839.327-5.673.517-8.462.013-.185 1.087-1.166 1.097-1.351 2.23-.945 6.068-1.605 9.24-1.605 4.364 0 6.97.85 8.914 2.554 1.895 1.61 2.942 4.068 2.942 6.522 0 3.187-1.636 5.985-3.676 8.303-2.026 2.749-4.822 4.927-6.757 6.423a36.04 36.04 0 0 1-1.867 1.429c3.453-.068 9.812-.371 12.581-.416l.045.031.095.068-.004-.009Z"
            fill="#8B8B8B" />
        <path
            d="m118.8 102.047-.045-.031c-2.769.045-9.128.343-12.581.415-.209.009-.403.009-.589.014v-.19c1.228-.85 2.22-1.51 3.548-2.599 1.6-1.243 3.807-2.956 5.665-5.076 2.044-2.319 3.676-5.116 3.676-8.303 0-2.454-1.047-4.913-2.942-6.522-1.944-1.704-4.55-2.554-8.914-2.554-3.172 0-7.01.66-9.24 1.605-.014.19-1.084 1.166-1.097 1.351-.177 2.612.707 4.461.58 7.11.942.059 1.645.872 2.483 1.415.377.24.78.424 1.251.456h.05c.145 0 .961-1.351 1.097-1.351l.974-4.227.113-.501c.019-.082.028-.14.05-.195a.674.674 0 0 1 .182-.28c.666-.425 1.753-.804 3.181-.804 1.178 0 2.27.52 2.887 1.324.711.994 1.087 2.03 1.087 3.639 0 2.621-1.35 4.958-3.335 7.213-1.165 1.33-2.552 2.631-4.011 3.942-2.035 1.894-3.838 3.308-7.06 5.672.04.15-1.133 1.198-1.097 1.347.322 1.212 1.958 1.632 2.379 2.762h6.018c3.272 0 11.394 1.397 14.353 1.397.014 0 .027 0 .036-.014.254-.122.92-1.333 1.065-1.333.191-1.749.327-3.783.327-5.628l-.096-.067.005.013Z"
            fill="#424242" />
        <path
            d="M102.879 82.873c-.023.055-.032.113-.05.195l-.113.501-.974 4.227c-.141 0-.952 1.351-1.097 1.351h-.05c-.471-.032-.87-.212-1.25-.456.022-.507.072-.936.103-1.117.245-1.252.875-2.445 1.664-3.435.222-.285 1.16-1.541 1.663-1.333.045.018.077.04.104.072v-.005ZM118.89 102.115c0 1.844-.14 3.878-.326 5.627-.145 0-.811 1.212-1.065 1.334l-.032-.014-.276-.113.308-5.275.213-.266 1.088-1.361.095.068h-.005Z"
            fill="#7E7E7E" style="mix-blend-mode:color-burn" opacity=".2" />
        <path
            d="m117.712 103.408-.059-.041c-2.936.045-9.897.375-13.174.425v-.19c.594-.416 1.138-.777 1.691-1.175a33.66 33.66 0 0 0 1.867-1.428c1.935-1.496 4.731-3.68 6.757-6.423 1.5-2.025 2.578-4.357 2.578-6.947s-1.037-4.918-2.941-6.527c-1.939-1.7-4.55-2.55-8.905-2.55-3.177 0-7.015.66-9.245 1.605-.19 2.789-.376 5.623-.517 8.462 1.5.09 3.186.506 4.827.515h.05l1.087-4.724c.05-.235.095-.33.24-.474.209-.131.454-.267.744-.38.634-.248 1.45-.425 2.433-.425 1.183 0 2.271.525 2.887 1.325.712.99 1.092 2.034 1.092 3.638 0 2.097-.87 4.023-2.238 5.863-1.337 1.808-3.155 3.543-5.103 5.292-2.04 1.89-3.839 3.309-7.061 5.668A42.803 42.803 0 0 0 96 109.031h6.023c3.508 0 13.219.049 15.445.049v-.027c.185-1.744.33-3.765.33-5.6l-.09-.054.004.009Z"
            fill="#63686E" />
    </g>
    <defs>
        <linearGradient id="b" x1="16.623" y1="85.567" x2="196.377" y2="85.567"
            gradientUnits="userSpaceOnUse">
            <stop stop-color="#949BA4" />
            <stop offset=".44" stop-color="#878C98" />
            <stop offset="1" stop-color="#878998" />
        </linearGradient>
        <linearGradient id="c" x1="65.645" y1="93.717" x2="147.355" y2="93.717"
            gradientUnits="userSpaceOnUse">
            <stop stop-color="#949BA4" />
            <stop offset=".44" stop-color="#878C98" />
            <stop offset="1" stop-color="#878998" />
        </linearGradient>
        <clipPath id="a">
            <path fill="#fff" d="M0 0h213v241H0z" />
        </clipPath>
    </defs>
</svg>