<svg width="199" height="72" viewBox="0 0 199 72" fill="none" xmlns="http://www.w3.org/2000/svg">
<rect x="1" y="0.5" width="197" height="71" rx="9.5" stroke="#A1AEBF"/>
<path d="M40.5301 40.1027V48.1194C40.5301 48.4268 40.4072 48.7215 40.1886 48.9387C39.97 49.156 39.6735 49.2781 39.3643 49.2781C39.0552 49.2781 38.7586 49.156 38.54 48.9387C38.3213 48.7215 38.1985 48.4268 38.1985 48.1194V40.1137C38.5231 40.3494 38.9122 40.4809 39.3141 40.4907C39.7521 40.5032 40.1812 40.3662 40.5301 40.1027ZM50.4587 37.7852C50.1628 37.7852 49.879 37.9021 49.6699 38.11C49.4607 38.3179 49.3431 38.6 49.3431 38.894V40.2912C49.3431 40.5985 49.4659 40.8932 49.6846 41.1105C49.9031 41.3278 50.1996 41.4499 50.5089 41.4499C50.8181 41.4499 51.1146 41.3278 51.3332 41.1105C51.5518 40.8932 51.6747 40.5985 51.6747 40.2912V38.9495C51.6834 38.7905 51.6575 38.6315 51.5988 38.4833C51.5401 38.3352 51.4501 38.2013 51.3346 38.0908C51.2193 37.9804 51.0813 37.8959 50.9302 37.8431C50.7791 37.7904 50.6182 37.7707 50.4587 37.7852ZM35.6661 43.1408C35.2647 43.1288 34.8761 42.9976 34.5506 42.7638V50.8027C34.5506 51.1115 34.674 51.4077 34.8937 51.626C35.1133 51.8443 35.4113 51.967 35.7219 51.967C36.0326 51.967 36.3305 51.8443 36.5502 51.626C36.7699 51.4077 36.8933 51.1115 36.8933 50.8027V42.8193C36.529 43.0533 36.0992 43.166 35.6661 43.1408ZM46.8219 35.3791C46.6707 35.3716 46.5197 35.3947 46.3778 35.4471C46.236 35.4994 46.1064 35.5799 45.9967 35.6836C45.8872 35.7874 45.8 35.9121 45.7405 36.0504C45.681 36.1887 45.6503 36.3376 45.6506 36.4879V42.664C45.6506 42.9728 45.7739 43.269 45.9936 43.4873C46.2134 43.7056 46.5112 43.8283 46.8219 43.8283C47.1326 43.8283 47.4306 43.7056 47.6502 43.4873C47.8699 43.269 47.9933 42.9728 47.9933 42.664V36.5655C48.0022 36.4055 47.9761 36.2455 47.9167 36.0965C47.8574 35.9475 47.7664 35.813 47.6497 35.7023C47.533 35.5917 47.3936 35.5074 47.2411 35.4555C47.0886 35.4035 46.9265 35.385 46.7661 35.4013L46.8219 35.3791ZM43.1182 37.752C42.698 37.7491 42.289 37.6175 41.9468 37.375V45.4361C41.9468 45.7449 42.0702 46.041 42.2899 46.2594C42.5096 46.4777 42.8075 46.6003 43.1182 46.6003C43.4289 46.6003 43.7267 46.4777 43.9465 46.2594C44.1662 46.041 44.2896 45.7449 44.2896 45.4361V37.3861C43.9357 37.6481 43.5036 37.7847 43.0624 37.7741L43.1182 37.752ZM33.1338 43.9281V21.408C33.1309 21.1335 33.0191 20.8713 32.8227 20.6782C32.6264 20.4851 32.3613 20.3768 32.0851 20.3768H31.8397C31.5635 20.3768 31.2985 20.4851 31.1021 20.6782C30.9058 20.8713 30.794 21.1335 30.7911 21.408V43.9281C30.7911 44.2045 30.9016 44.4696 31.0982 44.6651C31.2949 44.8606 31.5616 44.9704 31.8397 44.9704H32.0851C32.3633 44.9704 32.63 44.8606 32.8266 44.6651C33.0233 44.4696 33.1338 44.2045 33.1338 43.9281ZM35.7889 42.287H35.5434C35.2653 42.287 34.9986 42.1772 34.8019 41.9818C34.6053 41.7863 34.4948 41.5212 34.4948 41.2447V24.0914C34.4977 23.8169 34.6095 23.5546 34.8058 23.3615C35.0022 23.1684 35.2672 23.0602 35.5434 23.0602H35.7889C36.0651 23.0602 36.3301 23.1684 36.5264 23.3615C36.7228 23.5546 36.8346 23.8169 36.8375 24.0914V41.2669C36.8375 41.5433 36.727 41.8085 36.5304 42.0039C36.3337 42.1994 36.067 42.3092 35.7889 42.3092V42.287ZM39.4814 39.648H39.2248C38.9497 39.648 38.6858 39.5394 38.4912 39.346C38.2967 39.1526 38.1873 38.8904 38.1873 38.6168V26.7525C38.1859 26.6162 38.2117 26.4809 38.2631 26.3545C38.3145 26.2281 38.3907 26.1131 38.4872 26.0162C38.5837 25.9192 38.6986 25.8423 38.8252 25.7898C38.9519 25.7373 39.0876 25.7102 39.2248 25.7102H39.4814C39.7576 25.7132 40.0215 25.8243 40.2157 26.0194C40.41 26.2146 40.5189 26.478 40.5189 26.7525V38.6168C40.5189 38.8904 40.4096 39.1526 40.215 39.346C40.0205 39.5394 39.7566 39.648 39.4814 39.648ZM43.174 36.9314H42.9397C42.6635 36.9314 42.3984 36.8232 42.2021 36.6301C42.0057 36.437 41.894 36.1748 41.8911 35.9002V29.5135C41.8819 29.3711 41.9022 29.2284 41.9509 29.0941C41.9994 28.9599 42.0752 28.837 42.1735 28.7331C42.2718 28.6291 42.3905 28.5464 42.5224 28.4898C42.6541 28.4334 42.7961 28.4043 42.9397 28.4047H43.1851C43.4632 28.4047 43.73 28.5144 43.9267 28.7099C44.1233 28.9054 44.2338 29.1705 44.2338 29.4469V35.8781C44.2352 36.0159 44.2092 36.1526 44.1571 36.2803C44.1051 36.4081 44.0282 36.5243 43.9306 36.6223C43.8331 36.7202 43.717 36.7979 43.589 36.8511C43.461 36.9042 43.3238 36.9314 43.1851 36.9314H43.174ZM46.8777 34.5475H46.6323C46.3541 34.5475 46.0874 34.4377 45.8907 34.2422C45.6941 34.0468 45.5836 33.7816 45.5836 33.5052V31.8531C45.5865 31.5785 45.6983 31.3163 45.8946 31.1232C46.091 30.9301 46.356 30.8219 46.6323 30.8219H46.8777C47.1539 30.8219 47.419 30.9301 47.6153 31.1232C47.8116 31.3163 47.9234 31.5785 47.9263 31.8531V33.5052C47.9263 33.7797 47.8174 34.0432 47.6231 34.2384C47.4289 34.4335 47.1651 34.5446 46.8888 34.5475H46.8777Z" fill="white"/>
<path d="M82.496 38.592C82.496 39.904 82.2 41.064 81.608 42.072C81.032 43.064 80.248 43.84 79.256 44.4C78.28 44.96 77.184 45.24 75.968 45.24C74.752 45.24 73.648 44.96 72.656 44.4C71.68 43.84 70.896 43.064 70.304 42.072C69.728 41.064 69.44 39.904 69.44 38.592C69.44 37.28 69.728 36.128 70.304 35.136C70.896 34.128 71.68 33.344 72.656 32.784C73.648 32.208 74.752 31.92 75.968 31.92C77.184 31.92 78.28 32.208 79.256 32.784C80.248 33.344 81.032 34.128 81.608 35.136C82.2 36.128 82.496 37.28 82.496 38.592ZM79.616 38.592C79.616 37.776 79.448 37.072 79.112 36.48C78.792 35.872 78.352 35.4 77.792 35.064C77.248 34.728 76.64 34.56 75.968 34.56C75.296 34.56 74.68 34.728 74.12 35.064C73.576 35.4 73.136 35.872 72.8 36.48C72.48 37.072 72.32 37.776 72.32 38.592C72.32 39.392 72.48 40.096 72.8 40.704C73.136 41.296 73.576 41.76 74.12 42.096C74.68 42.432 75.296 42.6 75.968 42.6C76.64 42.6 77.248 42.432 77.792 42.096C78.352 41.76 78.792 41.296 79.112 40.704C79.448 40.096 79.616 39.392 79.616 38.592ZM92.0966 27.24C92.4486 27.24 92.7926 27.288 93.1286 27.384C93.4646 27.48 93.7446 27.64 93.9686 27.864C94.1926 28.072 94.3046 28.352 94.3046 28.704C94.3046 29.104 94.1846 29.424 93.9446 29.664C93.7206 29.888 93.4566 30 93.1526 30C93.0086 30 92.7926 29.968 92.5046 29.904C92.2166 29.824 91.9366 29.784 91.6646 29.784C91.2646 29.784 90.9526 29.872 90.7286 30.048C90.5206 30.224 90.3766 30.432 90.2966 30.672C90.2166 30.896 90.1766 31.096 90.1766 31.272V43.536C90.1766 43.952 90.0406 44.304 89.7686 44.592C89.4966 44.864 89.1526 45 88.7366 45C88.3206 45 87.9766 44.864 87.7046 44.592C87.4326 44.304 87.2966 43.952 87.2966 43.536V31.296C87.2966 30.16 87.6966 29.2 88.4966 28.416C89.2966 27.632 90.4966 27.24 92.0966 27.24ZM92.3606 32.4C92.7446 32.4 93.0646 32.528 93.3206 32.784C93.5766 33.024 93.7046 33.336 93.7046 33.72C93.7046 34.104 93.5766 34.424 93.3206 34.68C93.0646 34.92 92.7446 35.04 92.3606 35.04H86.0006C85.6166 35.04 85.2966 34.92 85.0406 34.68C84.7846 34.424 84.6566 34.104 84.6566 33.72C84.6566 33.336 84.7846 33.024 85.0406 32.784C85.2966 32.528 85.6166 32.4 86.0006 32.4H92.3606ZM102.585 27.24C102.937 27.24 103.281 27.288 103.617 27.384C103.953 27.48 104.233 27.64 104.457 27.864C104.681 28.072 104.793 28.352 104.793 28.704C104.793 29.104 104.673 29.424 104.433 29.664C104.209 29.888 103.945 30 103.641 30C103.497 30 103.281 29.968 102.993 29.904C102.705 29.824 102.425 29.784 102.153 29.784C101.753 29.784 101.441 29.872 101.217 30.048C101.009 30.224 100.865 30.432 100.785 30.672C100.705 30.896 100.665 31.096 100.665 31.272V43.536C100.665 43.952 100.529 44.304 100.257 44.592C99.9846 44.864 99.6406 45 99.2246 45C98.8086 45 98.4646 44.864 98.1926 44.592C97.9206 44.304 97.7846 43.952 97.7846 43.536V31.296C97.7846 30.16 98.1846 29.2 98.9846 28.416C99.7846 27.632 100.985 27.24 102.585 27.24ZM102.849 32.4C103.233 32.4 103.553 32.528 103.809 32.784C104.065 33.024 104.193 33.336 104.193 33.72C104.193 34.104 104.065 34.424 103.809 34.68C103.553 34.92 103.233 35.04 102.849 35.04H96.4886C96.1046 35.04 95.7846 34.92 95.5286 34.68C95.2726 34.424 95.1446 34.104 95.1446 33.72C95.1446 33.336 95.2726 33.024 95.5286 32.784C95.7846 32.528 96.1046 32.4 96.4886 32.4H102.849ZM113.697 31.92C114.977 31.92 115.921 32.232 116.529 32.856C117.137 33.464 117.537 34.256 117.729 35.232L117.321 35.016L117.513 34.632C117.705 34.264 118.001 33.872 118.401 33.456C118.801 33.024 119.281 32.664 119.841 32.376C120.417 32.072 121.057 31.92 121.761 31.92C122.913 31.92 123.785 32.168 124.377 32.664C124.985 33.16 125.401 33.824 125.625 34.656C125.849 35.472 125.961 36.384 125.961 37.392V43.536C125.961 43.952 125.825 44.304 125.553 44.592C125.281 44.864 124.937 45 124.521 45C124.105 45 123.761 44.864 123.489 44.592C123.217 44.304 123.081 43.952 123.081 43.536V37.392C123.081 36.864 123.017 36.392 122.889 35.976C122.761 35.544 122.529 35.2 122.193 34.944C121.857 34.688 121.377 34.56 120.753 34.56C120.145 34.56 119.625 34.688 119.193 34.944C118.761 35.2 118.433 35.544 118.209 35.976C118.001 36.392 117.897 36.864 117.897 37.392V43.536C117.897 43.952 117.761 44.304 117.489 44.592C117.217 44.864 116.873 45 116.457 45C116.041 45 115.697 44.864 115.425 44.592C115.153 44.304 115.017 43.952 115.017 43.536V37.392C115.017 36.864 114.953 36.392 114.825 35.976C114.697 35.544 114.465 35.2 114.129 34.944C113.793 34.688 113.313 34.56 112.689 34.56C112.081 34.56 111.561 34.688 111.129 34.944C110.697 35.2 110.369 35.544 110.145 35.976C109.937 36.392 109.833 36.864 109.833 37.392V43.536C109.833 43.952 109.697 44.304 109.425 44.592C109.153 44.864 108.809 45 108.393 45C107.977 45 107.633 44.864 107.361 44.592C107.089 44.304 106.953 43.952 106.953 43.536V33.624C106.953 33.208 107.089 32.864 107.361 32.592C107.633 32.304 107.977 32.16 108.393 32.16C108.809 32.16 109.153 32.304 109.425 32.592C109.697 32.864 109.833 33.208 109.833 33.624V34.656L109.473 34.584C109.617 34.312 109.817 34.024 110.073 33.72C110.329 33.4 110.641 33.104 111.009 32.832C111.377 32.56 111.785 32.344 112.233 32.184C112.681 32.008 113.169 31.92 113.697 31.92ZM140.07 31.92C140.486 31.92 140.83 32.056 141.102 32.328C141.374 32.6 141.51 32.952 141.51 33.384V43.536C141.51 43.952 141.374 44.304 141.102 44.592C140.83 44.864 140.486 45 140.07 45C139.654 45 139.31 44.864 139.038 44.592C138.766 44.304 138.63 43.952 138.63 43.536V42.36L139.158 42.576C139.158 42.784 139.046 43.04 138.822 43.344C138.598 43.632 138.294 43.92 137.91 44.208C137.526 44.496 137.07 44.744 136.542 44.952C136.03 45.144 135.47 45.24 134.862 45.24C133.758 45.24 132.758 44.96 131.862 44.4C130.966 43.824 130.254 43.04 129.726 42.048C129.214 41.04 128.958 39.888 128.958 38.592C128.958 37.28 129.214 36.128 129.726 35.136C130.254 34.128 130.958 33.344 131.838 32.784C132.718 32.208 133.694 31.92 134.766 31.92C135.454 31.92 136.086 32.024 136.662 32.232C137.238 32.44 137.734 32.704 138.15 33.024C138.582 33.344 138.91 33.672 139.134 34.008C139.374 34.328 139.494 34.6 139.494 34.824L138.63 35.136V33.384C138.63 32.968 138.766 32.624 139.038 32.352C139.31 32.064 139.654 31.92 140.07 31.92ZM135.222 42.6C135.926 42.6 136.542 42.424 137.07 42.072C137.598 41.72 138.006 41.24 138.294 40.632C138.598 40.024 138.75 39.344 138.75 38.592C138.75 37.824 138.598 37.136 138.294 36.528C138.006 35.92 137.598 35.44 137.07 35.088C136.542 34.736 135.926 34.56 135.222 34.56C134.534 34.56 133.926 34.736 133.398 35.088C132.87 35.44 132.454 35.92 132.15 36.528C131.862 37.136 131.718 37.824 131.718 38.592C131.718 39.344 131.862 40.024 132.15 40.632C132.454 41.24 132.87 41.72 133.398 42.072C133.926 42.424 134.534 42.6 135.222 42.6ZM145.372 32.16C145.836 32.16 146.228 32.36 146.548 32.76L154.564 42.72C154.772 42.976 154.876 43.264 154.876 43.584C154.876 43.984 154.724 44.328 154.42 44.616C154.116 44.904 153.78 45.048 153.412 45.048C152.948 45.048 152.556 44.84 152.236 44.424L144.22 34.464C144.012 34.208 143.908 33.92 143.908 33.6C143.908 33.184 144.052 32.84 144.34 32.568C144.644 32.296 144.988 32.16 145.372 32.16ZM145.396 45.024C145.076 45.024 144.756 44.904 144.436 44.664C144.132 44.408 143.98 44.104 143.98 43.752C143.98 43.432 144.1 43.128 144.34 42.84L148.012 38.352L149.452 40.752L146.548 44.424C146.244 44.824 145.86 45.024 145.396 45.024ZM153.388 32.16C153.772 32.16 154.092 32.296 154.348 32.568C154.62 32.824 154.756 33.12 154.756 33.456C154.756 33.616 154.732 33.776 154.684 33.936C154.636 34.096 154.548 34.248 154.42 34.392L150.796 38.808L149.284 36.72L152.236 32.808C152.556 32.376 152.94 32.16 153.388 32.16Z" fill="white"/>
</svg>
