<svg width="199" height="72" viewBox="0 0 199 72" fill="none" xmlns="http://www.w3.org/2000/svg">
<rect x="1" y="0.5" width="197" height="71" rx="9.5" stroke="#A1AEBF"/>
<path d="M52.3004 33.0172C55.1881 33.0172 55.8378 34.2563 55.8378 35.8018C55.8378 37.4399 55.0519 38.6136 52.3123 38.6136C49.5902 38.6136 48.8034 37.5081 48.8034 35.8018C48.8034 34.1227 49.6611 33.0172 52.3004 33.0172Z" fill="white"/>
<path d="M82.4791 33.0173C85.3669 33.0173 86.0166 34.2564 86.0166 35.8018C86.0166 37.44 85.2297 38.6136 82.4911 38.6136C79.7699 38.6136 78.9822 37.5082 78.9822 35.8018C78.9822 34.1227 79.8399 33.0173 82.4791 33.0173Z" fill="white"/>
<path fill-rule="evenodd" clip-rule="evenodd" d="M26.7332 51.9091V19.6791H172.664V51.9091H26.7332ZM96.2836 50.0909H170.824V21.4973H96.2836V50.0909ZM52.3144 41.3573C57.4411 41.3573 59.5963 39.1727 59.5963 35.7609C59.5963 32.2936 57.1687 30.2327 52.3144 30.2327C47.5347 30.2327 45.0187 32.4709 45.0187 35.7609C45.0187 39.4736 47.658 41.3573 52.3144 41.3573ZM34.4902 30.4782V41.1936H44.8374V38.34H38.2337V30.4782H34.4902ZM71.1767 41.1936L71.0801 40.1555C69.8277 41.0384 68.3034 41.4633 66.7687 41.3573C64.4617 41.3573 62.5402 40.6745 61.4626 39.2964C60.7518 38.2902 60.3929 37.0824 60.4402 35.8564C60.3998 34.6561 60.7711 33.4775 61.4939 32.5118C62.5844 31.1745 64.561 30.2873 67.504 30.2873C70.8896 30.2873 72.8791 31.3109 73.735 33.0309C73.9186 33.436 74.0266 33.8705 74.0534 34.3136H70.4718C70.3815 34.0444 70.2136 33.8071 69.9887 33.6309C69.2752 33.1636 68.4232 32.9475 67.5702 33.0173C67.0699 32.9574 66.5623 33.003 66.0812 33.1513C65.6001 33.2995 65.1563 33.547 64.7791 33.8773C64.3509 34.4564 64.1498 35.1693 64.2132 35.8836C64.1635 36.5652 64.3484 37.2434 64.7377 37.8082C65.1182 38.1585 65.5706 38.4237 66.0641 38.5863C66.5576 38.7487 67.0806 38.8046 67.5979 38.75C68.6251 38.8325 69.645 38.5195 70.4442 37.8764C70.6158 37.6644 70.7341 37.4151 70.7893 37.1491H66.9353V34.8464H74.1472V41.1936H71.1767ZM82.4929 41.3573C87.6187 41.3573 89.7748 39.1727 89.7748 35.7609C89.7748 32.2936 87.3435 30.2327 82.4929 30.2327C77.7132 30.2327 75.1972 32.4709 75.1972 35.7609C75.1972 39.4736 77.8365 41.3573 82.4929 41.3573Z" fill="white"/>
<path d="M102.59 41.1527V30.4373H105.258V41.1527H102.59Z" fill="white"/>
<path d="M118.962 36.6754C118.286 37.5491 117.122 37.9481 115.481 37.9581C115.135 37.9581 110.548 37.9445 110.548 37.9445V41.1527H107.936V30.4372H115.482C116.087 30.3741 116.698 30.4374 117.276 30.6231C117.855 30.809 118.387 31.113 118.839 31.5154C119.435 32.2829 119.725 33.2398 119.654 34.2045C119.715 35.082 119.471 35.9537 118.962 36.6754ZM116.821 33.1818C116.545 32.7727 115.949 32.5454 114.942 32.5454H110.534V35.8072H114.913C115.991 35.8072 116.559 35.5891 116.821 35.1654C116.976 34.867 117.044 34.5309 117.014 34.1963C117.037 33.8474 116.971 33.4984 116.821 33.1818Z" fill="white"/>
<path d="M127.35 41.3164C122.431 41.3164 120.925 39.4982 120.925 37.6991H123.716C123.716 38.5864 124.946 39.2555 127.474 39.2555C129.989 39.2555 130.652 38.8182 130.652 38.1082C130.652 37.3164 130.155 37.071 127.82 36.8119C127.359 36.771 126.107 36.621 125.637 36.5528C122.324 36.1837 121.048 35.2146 121.048 33.481C121.048 31.6519 122.915 30.2737 126.963 30.2737C131.357 30.2737 133.043 31.98 133.043 33.7546H130.282C130.282 32.8537 129.246 32.3346 126.8 32.3346C124.285 32.3346 123.747 32.6755 123.747 33.3446C123.747 34.041 124.299 34.2591 126.967 34.5728C127.576 34.6555 128.929 34.8055 129.302 34.8455C132.122 35.1319 133.393 36.1419 133.393 37.93C133.388 40.06 131.454 41.3164 127.35 41.3164Z" fill="white"/>
<path d="M141.252 41.3027C137.646 41.3027 135.297 39.8963 135.297 36.9391V30.4373H137.935V36.9754C137.935 38.3273 139.055 39.2273 141.362 39.2273C143.448 39.2273 144.692 38.3818 144.692 36.9754V30.4373H147.304V37.1818C147.304 39.87 145.12 41.3027 141.252 41.3027Z" fill="white"/>
<path d="M161.604 41.1527V34L158.219 41.1527H155.649L152.36 34V41.1527H149.876V30.4373H153.242L156.973 38.6L160.786 30.4373H164.099V41.1527H161.604Z" fill="white"/>
</svg>
