<svg width="199" height="72" viewBox="0 0 199 72" fill="none" xmlns="http://www.w3.org/2000/svg">
<rect x="1" y="0.5" width="197" height="71" rx="9.5" stroke="#A1AEBF"/>
<path d="M99.1966 42.2879H94.1439V28.8618H99.1966V42.2879ZM94.6374 41.7974H98.7032V29.3523H94.6374V41.7974ZM106.227 42.2879H101.276V28.8618H111.62C113.102 28.7426 114.577 29.1561 115.778 30.0271C116.295 30.4972 116.696 31.0797 116.949 31.7292C117.203 32.3786 117.301 33.0774 117.238 33.771C117.312 34.9696 116.928 36.1518 116.163 37.0814C115.258 38.1133 113.752 38.6449 111.688 38.6636C111.168 38.6773 107.271 38.6636 106.23 38.6636L106.227 42.2879ZM101.766 41.7974H105.733V38.1682H105.981C106.031 38.1682 111.091 38.1839 111.676 38.1682C113.6 38.1516 114.982 37.6778 115.79 36.7529C116.471 35.9117 116.809 34.8472 116.738 33.7701C116.798 33.1486 116.714 32.5215 116.492 31.9376C116.269 31.3536 115.914 30.8284 115.455 30.4028C114.341 29.6084 112.979 29.2355 111.613 29.3513H101.769L101.766 41.7974ZM110.572 35.6474H105.7V31.9927H110.604C110.952 31.945 111.306 31.9853 111.634 32.11C111.962 32.2346 112.253 32.4396 112.479 32.7058C112.685 33.0461 112.782 33.4405 112.758 33.8368C112.776 34.2047 112.696 34.5709 112.526 34.898C112.292 35.1785 111.989 35.3943 111.647 35.5249C111.305 35.6554 110.935 35.6963 110.572 35.6435V35.6474ZM106.193 35.157H110.572C111.381 35.157 111.882 34.9893 112.104 34.644C112.227 34.3931 112.282 34.1151 112.265 33.8368C112.287 33.5445 112.223 33.2523 112.082 32.9952L112.076 32.9863C111.841 32.643 111.374 32.4832 110.604 32.4832H106.193V35.157ZM126.243 42.486C121.812 42.486 119.167 41.3923 118.16 39.1432C117.995 38.7088 117.883 38.2563 117.826 37.7955L117.783 37.513H123.054L123.089 37.719C123.13 37.9281 123.219 38.125 123.35 38.2938C123.558 38.5439 124.252 38.9637 126.558 38.9637C129.329 38.9637 129.329 38.4802 129.329 38.2202C129.329 37.7818 129.008 37.6317 126.748 37.3924L126.319 37.3522C125.468 37.2727 124.393 37.1717 123.901 37.1295C119.756 36.7568 117.906 35.4768 117.906 32.9805C117.906 30.3586 121.055 28.6647 125.929 28.6647C129.905 28.6647 132.467 29.7063 133.542 31.7632C133.796 32.2417 133.968 32.7598 134.048 33.2953L134.082 33.5709H128.805L128.783 33.3493C128.762 33.176 128.688 33.0135 128.57 32.8843C128.373 32.6215 127.749 32.1869 125.813 32.1869C123.435 32.1869 123.108 32.4891 123.108 32.8147C123.108 33.2492 123.859 33.4032 126.266 33.6592C127.269 33.7406 128.883 33.9054 129.435 33.9721C132.91 34.3468 134.46 35.5954 134.46 38.0221C134.461 40.0574 133.035 42.486 126.243 42.486ZM118.359 38.0035C118.409 38.3269 118.494 38.644 118.613 38.949C119.53 40.998 122.027 41.9956 126.243 41.9956C129.768 41.9956 133.971 41.309 133.971 38.0221C133.971 35.8711 132.599 34.8058 129.383 34.4596C128.83 34.3929 127.227 34.2291 126.225 34.1467C123.659 33.8701 122.616 33.723 122.616 32.8147C122.616 31.875 123.74 31.6965 125.815 31.6965C127.454 31.6965 128.513 31.9908 128.962 32.5842C129.084 32.7304 129.177 32.899 129.234 33.0805H133.511C133.425 32.7012 133.289 32.3348 133.106 31.9908C132.12 30.1085 129.709 29.1551 125.931 29.1551C121.357 29.1551 118.402 30.6568 118.402 32.9805C118.402 35.1972 120.06 36.2918 123.947 36.641C124.44 36.6832 125.515 36.7842 126.367 36.8647L126.8 36.9049C128.899 37.1246 129.824 37.2619 129.824 38.2202C129.824 39.2521 128.627 39.4541 126.56 39.4541C124.647 39.4541 123.439 39.1687 122.973 38.6067C122.829 38.4275 122.72 38.2228 122.653 38.0035H118.359ZM143.835 42.4693C138.684 42.4693 135.842 40.3987 135.842 36.6381V28.8618H140.827V36.6381C140.827 37.9279 141.989 38.6675 144.013 38.6675C145.947 38.6675 147.148 37.8956 147.148 36.6548V28.8618H152.082V37.0501C152.087 40.4939 149.078 42.4693 143.832 42.4693H143.835ZM136.335 29.3523V36.6381C136.335 41.2854 141.031 41.9789 143.835 41.9789C146.735 41.9789 151.597 41.3384 151.597 37.0501V29.3523H147.65V36.6548C147.65 38.1751 146.225 39.1579 144.021 39.1579C141.718 39.1579 140.342 38.2163 140.342 36.6381V29.3523H136.335ZM172.992 42.2879H168.286V36.2261L165.618 42.2879H161.514L158.873 36.2379V42.2879H154.151V28.8618H160.362L163.589 36.2644L166.972 28.8618H172.998L172.992 42.2879ZM168.78 41.7974H172.498V29.3523H167.286L163.573 37.4728L160.034 29.3523H154.64V41.7974H158.376V33.878L161.829 41.8004H165.283L168.774 33.8897L168.78 41.7974ZM30.4739 29.107H25.9798V42.0426H38.3982V38.5988H30.4739V29.107ZM47.4693 28.8128C41.7328 28.8128 38.716 31.5151 38.716 35.4826C38.716 39.9652 41.8828 42.2388 47.4693 42.2388C53.6193 42.2388 56.2058 39.6023 56.2058 35.4826C56.2058 31.2993 53.2877 28.8108 47.4693 28.8108V28.8128ZM47.4525 32.1742C47.843 32.1724 48.2333 32.195 48.6209 32.2419L43.5969 37.2354C43.3592 36.701 43.2432 36.1208 43.2574 35.5366C43.2574 33.5072 44.2857 32.1722 47.4525 32.1722V32.1742ZM47.4693 38.9304C47.093 38.932 46.717 38.911 46.3433 38.8676L51.3762 33.8652C51.605 34.3908 51.7146 34.9602 51.6969 35.5327C51.6969 37.5071 50.7495 38.9284 47.4693 38.9284V38.9304ZM65.1101 37.1648H69.7354C69.6673 37.4839 69.5254 37.7828 69.3209 38.0378C68.362 38.8142 67.1382 39.1921 65.9055 39.0922C65.2849 39.1582 64.6575 39.0908 64.0655 38.8947C63.4735 38.6986 62.9307 38.3782 62.4742 37.9554C62.0065 37.2736 61.7844 36.4548 61.8436 35.6317C61.7679 34.7693 62.0095 33.9089 62.5235 33.21C63.1699 32.4841 64.2643 32.1713 65.8729 32.1713C66.8963 32.087 67.9185 32.3483 68.7742 32.9128C69.0439 33.1257 69.2455 33.412 69.3545 33.7367H73.6443C73.6131 33.2016 73.4836 32.6767 73.2624 32.1879C72.2351 30.1114 69.8469 28.8756 65.786 28.8756C62.2541 28.8756 59.8837 29.9467 58.5742 31.5621C57.7093 32.7287 57.2654 34.1511 57.314 35.5994C57.2581 37.0805 57.6906 38.5391 58.5456 39.7533C59.8393 41.4208 62.1436 42.2408 64.9127 42.2408C66.7536 42.3684 68.5821 41.8559 70.0847 40.7911L70.2012 42.0426H73.7647V34.3802H65.1101V37.1648ZM83.8788 28.8098C78.1433 28.8098 75.1255 31.5121 75.1255 35.4797C75.1255 39.9622 78.2913 42.2359 83.8788 42.2359C90.0298 42.2359 92.6163 39.5993 92.6163 35.4797C92.6163 31.2993 89.6982 28.8108 83.8788 28.8108V28.8098ZM83.863 32.1713C84.2432 32.1701 84.6232 32.1918 85.0008 32.236L79.9966 37.2129C79.7662 36.6843 79.6541 36.1125 79.668 35.5366C79.664 33.5072 80.6962 32.1722 83.863 32.1722V32.1713ZM83.8788 38.9274C83.4926 38.9291 83.1066 38.9067 82.7232 38.8607L87.7729 33.8407C88.0104 34.3733 88.1241 34.9523 88.1055 35.5346C88.1074 37.5071 87.164 38.9284 83.8788 38.9284V38.9274Z" fill="white"/>
</svg>
