<svg width="199" height="72" viewBox="0 0 199 72" fill="none" xmlns="http://www.w3.org/2000/svg">
<rect x="1" y="0.5" width="197" height="71" rx="9.5" stroke="#A1AEBF"/>
<path d="M25.3619 44.9471L25.3619 26.6393L34.5717 31.7248V39.9124L41.9395 44.0317L49.3072 39.9124V31.7248L58.5171 26.6393V44.9471L41.9395 54.101L25.3619 44.9471Z" fill="white"/>
<path fill-rule="evenodd" clip-rule="evenodd" d="M29.9668 29.1822L25.3619 26.6394L41.9395 17.4855L58.5171 26.6394L53.9121 29.1822V42.6587L41.9395 49.5242L29.9668 42.6587L29.9668 29.1822ZM53.4133 29.4577L49.3072 31.7249V31.6741L41.9395 27.5548L34.5717 31.6741V31.7249L30.4657 29.4577V42.3771L41.9395 48.9565L53.4133 42.3771V29.4577Z" fill="#A1AEBF"/>
<path d="M67.3429 43.5003V28.1217H70.2605V40.8639H77.3337V43.5003H67.3429Z" fill="white"/>
<path d="M83.6328 43.8079C82.5424 43.8079 81.5625 43.5882 80.6931 43.1487C79.8237 42.7094 79.1385 42.0723 78.6375 41.2375C78.1364 40.4026 77.8859 39.3993 77.8859 38.2277V37.8761C77.8859 36.7044 78.1364 35.7011 78.6375 34.8663C79.1385 34.0315 79.8237 33.3944 80.6931 32.955C81.5625 32.5155 82.5424 32.2959 83.6328 32.2959C84.7233 32.2959 85.7032 32.5155 86.5726 32.955C87.442 33.3944 88.1272 34.0315 88.6282 34.8663C89.1292 35.7011 89.3798 36.7044 89.3798 37.8761V38.2277C89.3798 39.3993 89.1292 40.4026 88.6282 41.2375C88.1272 42.0723 87.442 42.7094 86.5726 43.1487C85.7032 43.5882 84.7233 43.8079 83.6328 43.8079ZM83.6328 41.3473C84.4875 41.3473 85.1948 41.0764 85.7548 40.5344C86.3148 39.9779 86.5947 39.1869 86.5947 38.1617V37.9421C86.5947 36.9168 86.3148 36.1332 85.7548 35.5913C85.2096 35.0348 84.5022 34.7565 83.6328 34.7565C82.7782 34.7565 82.0708 35.0348 81.5109 35.5913C80.9509 36.1332 80.671 36.9168 80.671 37.9421V38.1617C80.671 39.1869 80.9509 39.9779 81.5109 40.5344C82.0708 41.0764 82.7782 41.3473 83.6328 41.3473Z" fill="white"/>
<path d="M90.4261 38.0958V37.7443C90.4261 36.6019 90.6545 35.6279 91.1113 34.8224C91.5681 34.0022 92.1723 33.3797 92.9238 32.955C93.6901 32.5155 94.5226 32.2959 95.4214 32.2959C96.4235 32.2959 97.1824 32.4717 97.6981 32.8232C98.2139 33.1747 98.5897 33.5409 98.8254 33.9217H99.2233V32.6034H101.964V45.4336C101.964 46.1805 101.743 46.7737 101.301 47.2132C100.859 47.6672 100.269 47.8942 99.5327 47.8942H92.1944V45.4776H98.5602C98.9727 45.4776 99.1791 45.2578 99.1791 44.8185V41.9844H98.7812C98.6338 42.2187 98.4275 42.4604 98.1623 42.7094C97.897 42.9437 97.5434 43.1414 97.1013 43.3026C96.6593 43.4637 96.0993 43.5443 95.4214 43.5443C94.5226 43.5443 93.6901 43.3318 92.9238 42.9071C92.1723 42.4677 91.5681 41.8452 91.1113 41.0397C90.6545 40.2195 90.4261 39.2383 90.4261 38.0958ZM96.2172 41.1276C97.0718 41.1276 97.7865 40.8566 98.3612 40.3147C98.9359 39.7729 99.2233 39.0112 99.2233 38.03V37.8102C99.2233 36.8142 98.9359 36.0527 98.3612 35.5254C97.8012 34.9835 97.0866 34.7125 96.2172 34.7125C95.3625 34.7125 94.6478 34.9835 94.0732 35.5254C93.4985 36.0527 93.2111 36.8142 93.2111 37.8102V38.03C93.2111 39.0112 93.4985 39.7729 94.0732 40.3147C94.6478 40.8566 95.3625 41.1276 96.2172 41.1276Z" fill="white"/>
<path d="M109.273 43.8079C108.183 43.8079 107.203 43.5883 106.333 43.1488C105.464 42.7094 104.779 42.0723 104.278 41.2375C103.777 40.4027 103.526 39.3994 103.526 38.2277V37.8761C103.526 36.7045 103.777 35.7012 104.278 34.8663C104.779 34.0315 105.464 33.3944 106.333 32.9551C107.203 32.5156 108.183 32.2959 109.273 32.2959C110.364 32.2959 111.344 32.5156 112.213 32.9551C113.082 33.3944 113.768 34.0315 114.269 34.8663C114.77 35.7012 115.02 36.7045 115.02 37.8761V38.2277C115.02 39.3994 114.77 40.4027 114.269 41.2375C113.768 42.0723 113.082 42.7094 112.213 43.1488C111.344 43.5883 110.364 43.8079 109.273 43.8079ZM109.273 41.3473C110.128 41.3473 110.835 41.0764 111.395 40.5344C111.955 39.9779 112.235 39.187 112.235 38.1617V37.9421C112.235 36.9169 111.955 36.1332 111.395 35.5913C110.85 35.0348 110.143 34.7565 109.273 34.7565C108.419 34.7565 107.711 35.0348 107.151 35.5913C106.591 36.1332 106.311 36.9169 106.311 37.9421V38.1617C106.311 39.187 106.591 39.9779 107.151 40.5344C107.711 41.0764 108.419 41.3473 109.273 41.3473Z" fill="white"/>
<path d="M116.597 43.5003V32.6034H119.382V43.5003H116.597ZM117.989 31.3292C117.488 31.3292 117.061 31.1681 116.707 30.8459C116.368 30.5236 116.199 30.0989 116.199 29.5717C116.199 29.0444 116.368 28.6197 116.707 28.2974C117.061 27.9753 117.488 27.8141 117.989 27.8141C118.505 27.8141 118.932 27.9753 119.271 28.2974C119.61 28.6197 119.779 29.0444 119.779 29.5717C119.779 30.0989 119.61 30.5236 119.271 30.8459C118.932 31.1681 118.505 31.3292 117.989 31.3292Z" fill="white"/>
<path d="M121.473 47.8943V32.6035H124.214V33.9217H124.612C124.862 33.497 125.252 33.1234 125.783 32.8012C126.314 32.4643 127.073 32.2959 128.06 32.2959C128.944 32.2959 129.762 32.5156 130.513 32.9551C131.265 33.3797 131.869 34.0095 132.326 34.8444C132.782 35.6792 133.011 36.6898 133.011 37.8761V38.2277C133.011 39.414 132.782 40.4246 132.326 41.2594C131.869 42.0943 131.265 42.7314 130.513 43.1708C129.762 43.5956 128.944 43.8079 128.06 43.8079C127.396 43.8079 126.836 43.7273 126.379 43.5662C125.937 43.4198 125.577 43.2294 125.297 42.995C125.031 42.746 124.818 42.4971 124.656 42.2481H124.258V47.8943H121.473ZM127.22 41.3913C128.089 41.3913 128.804 41.1203 129.364 40.5784C129.938 40.0219 130.226 39.2163 130.226 38.1617V37.9421C130.226 36.8876 129.938 36.0893 129.364 35.5474C128.789 34.9909 128.075 34.7126 127.22 34.7126C126.365 34.7126 125.65 34.9909 125.076 35.5474C124.501 36.0893 124.214 36.8876 124.214 37.9421V38.1617C124.214 39.2163 124.501 40.0219 125.076 40.5784C125.65 41.1203 126.365 41.3913 127.22 41.3913Z" fill="white"/>
<path d="M139.127 43.8079C137.697 43.8079 136.526 43.5003 135.612 42.8852C134.699 42.27 134.146 41.3912 133.954 40.2488L136.519 39.5898C136.622 40.1023 136.792 40.5052 137.027 40.7981C137.278 41.091 137.58 41.3033 137.934 41.4352C138.301 41.5523 138.699 41.611 139.127 41.611C139.775 41.611 140.254 41.501 140.564 41.2814C140.873 41.047 141.028 40.7614 141.028 40.4246C141.028 40.0877 140.881 39.8314 140.586 39.6556C140.292 39.4652 139.82 39.3115 139.171 39.1943L138.552 39.0844C137.786 38.9379 137.086 38.7402 136.452 38.4913C135.819 38.2277 135.31 37.8688 134.927 37.4148C134.544 36.9607 134.352 36.3748 134.352 35.6572C134.352 34.5734 134.75 33.7459 135.546 33.1747C136.342 32.5888 137.389 32.2959 138.685 32.2959C139.908 32.2959 140.925 32.5669 141.735 33.1088C142.545 33.6507 143.076 34.3611 143.327 35.2398L140.741 36.0307C140.623 35.4742 140.38 35.0786 140.011 34.8444C139.657 34.61 139.215 34.4928 138.685 34.4928C138.154 34.4928 137.749 34.588 137.469 34.7784C137.19 34.9542 137.049 35.2032 137.049 35.5254C137.049 35.8769 137.196 36.1405 137.492 36.3163C137.786 36.4774 138.184 36.6019 138.685 36.6898L139.303 36.7996C140.129 36.9461 140.873 37.1438 141.537 37.3928C142.214 37.6271 142.744 37.9713 143.128 38.4254C143.526 38.8648 143.725 39.4652 143.725 40.2269C143.725 41.3693 143.304 42.2554 142.464 42.8852C141.64 43.5003 140.527 43.8079 139.127 43.8079Z" fill="white"/>
<path d="M149.347 43.676C148.493 43.676 147.741 43.4856 147.093 43.1049C146.459 42.7093 145.965 42.1674 145.611 41.4791C145.259 40.7907 145.081 39.9998 145.081 39.1064V32.6034H147.866V38.8867C147.866 39.7068 148.065 40.322 148.463 40.7321C148.875 41.1422 149.458 41.3472 150.209 41.3472C151.063 41.3472 151.727 41.0689 152.199 40.5124C152.67 39.9412 152.906 39.1503 152.906 38.1397V32.6034H155.691V43.5003H152.95V42.0722H152.553C152.375 42.4384 152.044 42.7972 151.558 43.1487C151.071 43.5003 150.334 43.676 149.347 43.676Z" fill="white"/>
<path d="M157.796 43.5004V32.6035H160.536V33.7899H160.934C161.125 33.4237 161.443 33.1088 161.884 32.8451C162.326 32.5669 162.909 32.4278 163.631 32.4278C164.412 32.4278 165.038 32.5815 165.51 32.8891C165.981 33.182 166.342 33.5701 166.593 34.0535H166.99C167.241 33.5848 167.595 33.1967 168.052 32.8891C168.509 32.5815 169.157 32.4278 169.997 32.4278C170.674 32.4278 171.286 32.5742 171.831 32.8672C172.391 33.1454 172.833 33.5774 173.158 34.1634C173.496 34.7345 173.666 35.4595 173.666 36.3383V43.5004H170.88V36.5361C170.88 35.9355 170.726 35.4888 170.417 35.1959C170.107 34.8884 169.673 34.7345 169.113 34.7345C168.479 34.7345 167.985 34.9396 167.631 35.3497C167.293 35.7451 167.124 36.3163 167.124 37.0633V43.5004H164.338V36.5361C164.338 35.9355 164.183 35.4888 163.875 35.1959C163.565 34.8884 163.13 34.7345 162.57 34.7345C161.936 34.7345 161.443 34.9396 161.089 35.3497C160.75 35.7451 160.58 36.3163 160.58 37.0633V43.5004H157.796Z" fill="white"/>
</svg>
