<svg width="199" height="72" viewBox="0 0 199 72" fill="none" xmlns="http://www.w3.org/2000/svg">
<rect x="1" y="0.5" width="197" height="71" rx="9.5" stroke="#A1AEBF"/>
<path d="M32.9204 34.7254C33.7588 31.3365 35.7005 28.327 38.4362 26.1763C41.172 24.0255 44.5446 22.8572 48.017 22.8572C51.4894 22.8572 54.862 24.0255 57.5978 26.1763C60.3336 28.327 62.2752 31.3365 63.1136 34.7254H61.75C59.4496 34.6913 57.1965 35.3828 55.3068 36.7025C55.1977 36.782 55.0838 36.8545 54.9659 36.9197H54.8068C54.6888 36.8545 54.575 36.782 54.4659 36.7025C52.5595 35.4133 50.3143 34.7247 48.017 34.7247C45.7198 34.7247 43.4745 35.4133 41.5682 36.7025C41.4591 36.782 41.3452 36.8545 41.2273 36.9197H41.0682C40.9502 36.8545 40.8363 36.782 40.7273 36.7025C38.8376 35.3828 36.5844 34.6913 34.2841 34.7254H32.9204ZM59.2954 41.8911C59.9954 41.3429 60.8631 41.056 61.75 41.0797H63.5795V37.4111H61.75C60.1877 37.3921 58.6612 37.8812 57.3977 38.8054C56.6867 39.3326 55.8266 39.617 54.9432 39.617C54.0598 39.617 53.1996 39.3326 52.4886 38.8054C51.1931 37.8984 49.6524 37.4121 48.0738 37.4121C46.4953 37.4121 44.9546 37.8984 43.6591 38.8054C42.9481 39.3326 42.0879 39.617 41.2045 39.617C40.3211 39.617 39.461 39.3326 38.75 38.8054C37.4709 37.8693 35.9225 37.3797 34.3409 37.4111H32.4545V41.0797H34.2841C35.171 41.056 36.0386 41.3429 36.7386 41.8911C38.0318 42.7987 39.5708 43.2854 41.1477 43.2854C42.7246 43.2854 44.2636 42.7987 45.5568 41.8911C46.2577 41.3446 47.1246 41.058 48.0113 41.0797C48.8986 41.0541 49.7668 41.3411 50.4659 41.8911C51.7615 42.7982 53.3021 43.2843 54.8807 43.2843C56.4592 43.2843 57.9999 42.7982 59.2954 41.8911ZM59.2954 48.4511C59.9954 47.9029 60.8631 47.616 61.75 47.6397H63.5795V43.9711H61.75C60.1877 43.9521 58.6612 44.4412 57.3977 45.3654C56.6867 45.8926 55.8266 46.177 54.9432 46.177C54.0598 46.177 53.1996 45.8926 52.4886 45.3654C51.1931 44.4584 49.6524 43.9722 48.0738 43.9722C46.4953 43.9722 44.9546 44.4584 43.6591 45.3654C42.9481 45.8926 42.0879 46.177 41.2045 46.177C40.3211 46.177 39.461 45.8926 38.75 45.3654C37.4709 44.4294 35.9225 43.9397 34.3409 43.9711H32.4545V47.6397H34.2841C35.171 47.616 36.0386 47.9029 36.7386 48.4511C38.0318 49.3587 39.5708 49.8454 41.1477 49.8454C42.7246 49.8454 44.2636 49.3587 45.5568 48.4511C46.2577 47.9046 47.1246 47.618 48.0113 47.6397C48.8986 47.6141 49.7668 47.9011 50.4659 48.4511C51.7615 49.3582 53.3021 49.8443 54.8807 49.8443C56.4592 49.8443 57.9999 49.3582 59.2954 48.4511Z" fill="#4B5567"/>
<path d="M89.4929 37.592C89.4929 38.904 89.1969 40.064 88.6049 41.072C88.0289 42.064 87.2449 42.84 86.2529 43.4C85.2769 43.96 84.1809 44.24 82.9649 44.24C81.7489 44.24 80.6449 43.96 79.6529 43.4C78.6769 42.84 77.8929 42.064 77.3009 41.072C76.7249 40.064 76.4369 38.904 76.4369 37.592C76.4369 36.28 76.7249 35.128 77.3009 34.136C77.8929 33.128 78.6769 32.344 79.6529 31.784C80.6449 31.208 81.7489 30.92 82.9649 30.92C84.1809 30.92 85.2769 31.208 86.2529 31.784C87.2449 32.344 88.0289 33.128 88.6049 34.136C89.1969 35.128 89.4929 36.28 89.4929 37.592ZM86.6129 37.592C86.6129 36.776 86.4449 36.072 86.1089 35.48C85.7889 34.872 85.3489 34.4 84.7889 34.064C84.2449 33.728 83.6369 33.56 82.9649 33.56C82.2929 33.56 81.6769 33.728 81.1169 34.064C80.5729 34.4 80.1329 34.872 79.7969 35.48C79.4769 36.072 79.3169 36.776 79.3169 37.592C79.3169 38.392 79.4769 39.096 79.7969 39.704C80.1329 40.296 80.5729 40.76 81.1169 41.096C81.6769 41.432 82.2929 41.6 82.9649 41.6C83.6369 41.6 84.2449 41.432 84.7889 41.096C85.3489 40.76 85.7889 40.296 86.1089 39.704C86.4449 39.096 86.6129 38.392 86.6129 37.592ZM99.0934 26.24C99.4454 26.24 99.7894 26.288 100.125 26.384C100.461 26.48 100.741 26.64 100.965 26.864C101.189 27.072 101.301 27.352 101.301 27.704C101.301 28.104 101.181 28.424 100.941 28.664C100.717 28.888 100.453 29 100.149 29C100.005 29 99.7894 28.968 99.5014 28.904C99.2134 28.824 98.9334 28.784 98.6614 28.784C98.2614 28.784 97.9494 28.872 97.7254 29.048C97.5174 29.224 97.3734 29.432 97.2934 29.672C97.2134 29.896 97.1734 30.096 97.1734 30.272V42.536C97.1734 42.952 97.0374 43.304 96.7654 43.592C96.4934 43.864 96.1494 44 95.7334 44C95.3174 44 94.9734 43.864 94.7014 43.592C94.4294 43.304 94.2934 42.952 94.2934 42.536V30.296C94.2934 29.16 94.6934 28.2 95.4934 27.416C96.2934 26.632 97.4934 26.24 99.0934 26.24ZM99.3574 31.4C99.7414 31.4 100.061 31.528 100.317 31.784C100.573 32.024 100.701 32.336 100.701 32.72C100.701 33.104 100.573 33.424 100.317 33.68C100.061 33.92 99.7414 34.04 99.3574 34.04H92.9974C92.6134 34.04 92.2934 33.92 92.0374 33.68C91.7814 33.424 91.6534 33.104 91.6534 32.72C91.6534 32.336 91.7814 32.024 92.0374 31.784C92.2934 31.528 92.6134 31.4 92.9974 31.4H99.3574ZM109.581 26.24C109.933 26.24 110.277 26.288 110.613 26.384C110.949 26.48 111.229 26.64 111.453 26.864C111.677 27.072 111.789 27.352 111.789 27.704C111.789 28.104 111.669 28.424 111.429 28.664C111.205 28.888 110.941 29 110.637 29C110.493 29 110.277 28.968 109.989 28.904C109.701 28.824 109.421 28.784 109.149 28.784C108.749 28.784 108.437 28.872 108.213 29.048C108.005 29.224 107.861 29.432 107.781 29.672C107.701 29.896 107.661 30.096 107.661 30.272V42.536C107.661 42.952 107.525 43.304 107.253 43.592C106.981 43.864 106.637 44 106.221 44C105.805 44 105.461 43.864 105.189 43.592C104.917 43.304 104.781 42.952 104.781 42.536V30.296C104.781 29.16 105.181 28.2 105.981 27.416C106.781 26.632 107.981 26.24 109.581 26.24ZM109.845 31.4C110.229 31.4 110.549 31.528 110.805 31.784C111.061 32.024 111.189 32.336 111.189 32.72C111.189 33.104 111.061 33.424 110.805 33.68C110.549 33.92 110.229 34.04 109.845 34.04H103.485C103.101 34.04 102.781 33.92 102.525 33.68C102.269 33.424 102.141 33.104 102.141 32.72C102.141 32.336 102.269 32.024 102.525 31.784C102.781 31.528 103.101 31.4 103.485 31.4H109.845ZM120.694 30.92C121.974 30.92 122.918 31.232 123.526 31.856C124.134 32.464 124.534 33.256 124.726 34.232L124.318 34.016L124.51 33.632C124.702 33.264 124.998 32.872 125.398 32.456C125.798 32.024 126.278 31.664 126.838 31.376C127.414 31.072 128.054 30.92 128.758 30.92C129.91 30.92 130.782 31.168 131.374 31.664C131.982 32.16 132.398 32.824 132.622 33.656C132.846 34.472 132.958 35.384 132.958 36.392V42.536C132.958 42.952 132.822 43.304 132.55 43.592C132.278 43.864 131.934 44 131.518 44C131.102 44 130.758 43.864 130.486 43.592C130.214 43.304 130.078 42.952 130.078 42.536V36.392C130.078 35.864 130.014 35.392 129.886 34.976C129.758 34.544 129.526 34.2 129.19 33.944C128.854 33.688 128.374 33.56 127.75 33.56C127.142 33.56 126.622 33.688 126.19 33.944C125.758 34.2 125.43 34.544 125.206 34.976C124.998 35.392 124.894 35.864 124.894 36.392V42.536C124.894 42.952 124.758 43.304 124.486 43.592C124.214 43.864 123.87 44 123.454 44C123.038 44 122.694 43.864 122.422 43.592C122.15 43.304 122.014 42.952 122.014 42.536V36.392C122.014 35.864 121.95 35.392 121.822 34.976C121.694 34.544 121.462 34.2 121.126 33.944C120.79 33.688 120.31 33.56 119.686 33.56C119.078 33.56 118.558 33.688 118.126 33.944C117.694 34.2 117.366 34.544 117.142 34.976C116.934 35.392 116.83 35.864 116.83 36.392V42.536C116.83 42.952 116.694 43.304 116.422 43.592C116.15 43.864 115.806 44 115.39 44C114.974 44 114.63 43.864 114.358 43.592C114.086 43.304 113.95 42.952 113.95 42.536V32.624C113.95 32.208 114.086 31.864 114.358 31.592C114.63 31.304 114.974 31.16 115.39 31.16C115.806 31.16 116.15 31.304 116.422 31.592C116.694 31.864 116.83 32.208 116.83 32.624V33.656L116.47 33.584C116.614 33.312 116.814 33.024 117.07 32.72C117.326 32.4 117.638 32.104 118.006 31.832C118.374 31.56 118.782 31.344 119.23 31.184C119.678 31.008 120.166 30.92 120.694 30.92ZM147.067 30.92C147.483 30.92 147.827 31.056 148.099 31.328C148.371 31.6 148.507 31.952 148.507 32.384V42.536C148.507 42.952 148.371 43.304 148.099 43.592C147.827 43.864 147.483 44 147.067 44C146.651 44 146.307 43.864 146.035 43.592C145.763 43.304 145.627 42.952 145.627 42.536V41.36L146.155 41.576C146.155 41.784 146.043 42.04 145.819 42.344C145.595 42.632 145.291 42.92 144.907 43.208C144.523 43.496 144.067 43.744 143.539 43.952C143.027 44.144 142.467 44.24 141.859 44.24C140.755 44.24 139.755 43.96 138.859 43.4C137.963 42.824 137.251 42.04 136.723 41.048C136.211 40.04 135.955 38.888 135.955 37.592C135.955 36.28 136.211 35.128 136.723 34.136C137.251 33.128 137.955 32.344 138.835 31.784C139.715 31.208 140.691 30.92 141.763 30.92C142.451 30.92 143.083 31.024 143.659 31.232C144.235 31.44 144.731 31.704 145.147 32.024C145.579 32.344 145.907 32.672 146.131 33.008C146.371 33.328 146.491 33.6 146.491 33.824L145.627 34.136V32.384C145.627 31.968 145.763 31.624 146.035 31.352C146.307 31.064 146.651 30.92 147.067 30.92ZM142.219 41.6C142.923 41.6 143.539 41.424 144.067 41.072C144.595 40.72 145.003 40.24 145.291 39.632C145.595 39.024 145.747 38.344 145.747 37.592C145.747 36.824 145.595 36.136 145.291 35.528C145.003 34.92 144.595 34.44 144.067 34.088C143.539 33.736 142.923 33.56 142.219 33.56C141.531 33.56 140.923 33.736 140.395 34.088C139.867 34.44 139.451 34.92 139.147 35.528C138.859 36.136 138.715 36.824 138.715 37.592C138.715 38.344 138.859 39.024 139.147 39.632C139.451 40.24 139.867 40.72 140.395 41.072C140.923 41.424 141.531 41.6 142.219 41.6ZM152.369 31.16C152.833 31.16 153.225 31.36 153.545 31.76L161.561 41.72C161.769 41.976 161.873 42.264 161.873 42.584C161.873 42.984 161.721 43.328 161.417 43.616C161.113 43.904 160.777 44.048 160.409 44.048C159.945 44.048 159.553 43.84 159.233 43.424L151.217 33.464C151.009 33.208 150.905 32.92 150.905 32.6C150.905 32.184 151.049 31.84 151.337 31.568C151.641 31.296 151.985 31.16 152.369 31.16ZM152.393 44.024C152.073 44.024 151.753 43.904 151.433 43.664C151.129 43.408 150.977 43.104 150.977 42.752C150.977 42.432 151.097 42.128 151.337 41.84L155.009 37.352L156.449 39.752L153.545 43.424C153.241 43.824 152.857 44.024 152.393 44.024ZM160.385 31.16C160.769 31.16 161.089 31.296 161.345 31.568C161.617 31.824 161.753 32.12 161.753 32.456C161.753 32.616 161.729 32.776 161.681 32.936C161.633 33.096 161.545 33.248 161.417 33.392L157.793 37.808L156.281 35.72L159.233 31.808C159.553 31.376 159.937 31.16 160.385 31.16Z" fill="white"/>
</svg>
