<svg width="199" height="72" viewBox="0 0 199 72" fill="none" xmlns="http://www.w3.org/2000/svg">
<rect x="1" y="0.5" width="197" height="71" rx="9.5" stroke="#A1AEBF"/>
<path d="M47.3152 45.4629L27.8152 32.0933C25.8391 30.7386 26.5109 27.9177 28.975 27.2544L49.7 21.6634C50.139 21.506 50.6094 21.4549 51.0724 21.5144C51.5352 21.5738 51.9772 21.7422 52.3615 22.0054C52.7457 22.2687 53.0614 22.6192 53.282 23.028C53.5027 23.4367 53.6222 23.8919 53.6304 24.3557L52.4022 43.3151C52.2565 45.5655 49.2913 46.8177 47.3152 45.4629Z" fill="#A1AEBF"/>
<path d="M41.1308 48.7634L29.6427 26.4333C29.3801 25.9225 29.2646 25.3495 29.3088 24.7775C29.353 24.2055 29.5553 23.6568 29.8934 23.1918C30.2315 22.7269 30.6921 22.3637 31.2247 22.1425C31.7572 21.9212 32.3408 21.8504 32.9112 21.9379L54.2015 25.2039C54.6916 25.2791 55.1568 25.4688 55.5589 25.7576C55.9608 26.0463 56.2881 26.4258 56.5139 26.8647C56.7395 27.3037 56.8572 27.7896 56.8571 28.2826C56.857 28.7756 56.7392 29.2615 56.5134 29.7004L46.7058 48.7645C46.4424 49.2739 46.0429 49.7013 45.551 49.9996C45.0592 50.298 44.4942 50.4557 43.918 50.4556C43.3418 50.4555 42.7768 50.2976 42.285 49.9991C41.7933 49.7004 41.394 49.2729 41.1308 48.7634Z" fill="#728095"/>
<path d="M53.5785 25.1077L42.9655 23.4796L29.935 26.9962L35.1361 37.1095L47.3155 45.4629C47.5842 45.6452 47.8797 45.7848 48.1916 45.8767L52.8176 36.8848L53.5785 25.1077Z" fill="white"/>
<path d="M89.4929 36.592C89.4929 37.904 89.1969 39.064 88.6049 40.072C88.0289 41.064 87.2449 41.84 86.2529 42.4C85.2769 42.96 84.1809 43.24 82.9649 43.24C81.7489 43.24 80.6449 42.96 79.6529 42.4C78.6769 41.84 77.8929 41.064 77.3009 40.072C76.7249 39.064 76.4369 37.904 76.4369 36.592C76.4369 35.28 76.7249 34.128 77.3009 33.136C77.8929 32.128 78.6769 31.344 79.6529 30.784C80.6449 30.208 81.7489 29.92 82.9649 29.92C84.1809 29.92 85.2769 30.208 86.2529 30.784C87.2449 31.344 88.0289 32.128 88.6049 33.136C89.1969 34.128 89.4929 35.28 89.4929 36.592ZM86.6129 36.592C86.6129 35.776 86.4449 35.072 86.1089 34.48C85.7889 33.872 85.3489 33.4 84.7889 33.064C84.2449 32.728 83.6369 32.56 82.9649 32.56C82.2929 32.56 81.6769 32.728 81.1169 33.064C80.5729 33.4 80.1329 33.872 79.7969 34.48C79.4769 35.072 79.3169 35.776 79.3169 36.592C79.3169 37.392 79.4769 38.096 79.7969 38.704C80.1329 39.296 80.5729 39.76 81.1169 40.096C81.6769 40.432 82.2929 40.6 82.9649 40.6C83.6369 40.6 84.2449 40.432 84.7889 40.096C85.3489 39.76 85.7889 39.296 86.1089 38.704C86.4449 38.096 86.6129 37.392 86.6129 36.592ZM99.0934 25.24C99.4454 25.24 99.7894 25.288 100.125 25.384C100.461 25.48 100.741 25.64 100.965 25.864C101.189 26.072 101.301 26.352 101.301 26.704C101.301 27.104 101.181 27.424 100.941 27.664C100.717 27.888 100.453 28 100.149 28C100.005 28 99.7894 27.968 99.5014 27.904C99.2134 27.824 98.9334 27.784 98.6614 27.784C98.2614 27.784 97.9494 27.872 97.7254 28.048C97.5174 28.224 97.3734 28.432 97.2934 28.672C97.2134 28.896 97.1734 29.096 97.1734 29.272V41.536C97.1734 41.952 97.0374 42.304 96.7654 42.592C96.4934 42.864 96.1494 43 95.7334 43C95.3174 43 94.9734 42.864 94.7014 42.592C94.4294 42.304 94.2934 41.952 94.2934 41.536V29.296C94.2934 28.16 94.6934 27.2 95.4934 26.416C96.2934 25.632 97.4934 25.24 99.0934 25.24ZM99.3574 30.4C99.7414 30.4 100.061 30.528 100.317 30.784C100.573 31.024 100.701 31.336 100.701 31.72C100.701 32.104 100.573 32.424 100.317 32.68C100.061 32.92 99.7414 33.04 99.3574 33.04H92.9974C92.6134 33.04 92.2934 32.92 92.0374 32.68C91.7814 32.424 91.6534 32.104 91.6534 31.72C91.6534 31.336 91.7814 31.024 92.0374 30.784C92.2934 30.528 92.6134 30.4 92.9974 30.4H99.3574ZM109.581 25.24C109.933 25.24 110.277 25.288 110.613 25.384C110.949 25.48 111.229 25.64 111.453 25.864C111.677 26.072 111.789 26.352 111.789 26.704C111.789 27.104 111.669 27.424 111.429 27.664C111.205 27.888 110.941 28 110.637 28C110.493 28 110.277 27.968 109.989 27.904C109.701 27.824 109.421 27.784 109.149 27.784C108.749 27.784 108.437 27.872 108.213 28.048C108.005 28.224 107.861 28.432 107.781 28.672C107.701 28.896 107.661 29.096 107.661 29.272V41.536C107.661 41.952 107.525 42.304 107.253 42.592C106.981 42.864 106.637 43 106.221 43C105.805 43 105.461 42.864 105.189 42.592C104.917 42.304 104.781 41.952 104.781 41.536V29.296C104.781 28.16 105.181 27.2 105.981 26.416C106.781 25.632 107.981 25.24 109.581 25.24ZM109.845 30.4C110.229 30.4 110.549 30.528 110.805 30.784C111.061 31.024 111.189 31.336 111.189 31.72C111.189 32.104 111.061 32.424 110.805 32.68C110.549 32.92 110.229 33.04 109.845 33.04H103.485C103.101 33.04 102.781 32.92 102.525 32.68C102.269 32.424 102.141 32.104 102.141 31.72C102.141 31.336 102.269 31.024 102.525 30.784C102.781 30.528 103.101 30.4 103.485 30.4H109.845ZM120.694 29.92C121.974 29.92 122.918 30.232 123.526 30.856C124.134 31.464 124.534 32.256 124.726 33.232L124.318 33.016L124.51 32.632C124.702 32.264 124.998 31.872 125.398 31.456C125.798 31.024 126.278 30.664 126.838 30.376C127.414 30.072 128.054 29.92 128.758 29.92C129.91 29.92 130.782 30.168 131.374 30.664C131.982 31.16 132.398 31.824 132.622 32.656C132.846 33.472 132.958 34.384 132.958 35.392V41.536C132.958 41.952 132.822 42.304 132.55 42.592C132.278 42.864 131.934 43 131.518 43C131.102 43 130.758 42.864 130.486 42.592C130.214 42.304 130.078 41.952 130.078 41.536V35.392C130.078 34.864 130.014 34.392 129.886 33.976C129.758 33.544 129.526 33.2 129.19 32.944C128.854 32.688 128.374 32.56 127.75 32.56C127.142 32.56 126.622 32.688 126.19 32.944C125.758 33.2 125.43 33.544 125.206 33.976C124.998 34.392 124.894 34.864 124.894 35.392V41.536C124.894 41.952 124.758 42.304 124.486 42.592C124.214 42.864 123.87 43 123.454 43C123.038 43 122.694 42.864 122.422 42.592C122.15 42.304 122.014 41.952 122.014 41.536V35.392C122.014 34.864 121.95 34.392 121.822 33.976C121.694 33.544 121.462 33.2 121.126 32.944C120.79 32.688 120.31 32.56 119.686 32.56C119.078 32.56 118.558 32.688 118.126 32.944C117.694 33.2 117.366 33.544 117.142 33.976C116.934 34.392 116.83 34.864 116.83 35.392V41.536C116.83 41.952 116.694 42.304 116.422 42.592C116.15 42.864 115.806 43 115.39 43C114.974 43 114.63 42.864 114.358 42.592C114.086 42.304 113.95 41.952 113.95 41.536V31.624C113.95 31.208 114.086 30.864 114.358 30.592C114.63 30.304 114.974 30.16 115.39 30.16C115.806 30.16 116.15 30.304 116.422 30.592C116.694 30.864 116.83 31.208 116.83 31.624V32.656L116.47 32.584C116.614 32.312 116.814 32.024 117.07 31.72C117.326 31.4 117.638 31.104 118.006 30.832C118.374 30.56 118.782 30.344 119.23 30.184C119.678 30.008 120.166 29.92 120.694 29.92ZM147.067 29.92C147.483 29.92 147.827 30.056 148.099 30.328C148.371 30.6 148.507 30.952 148.507 31.384V41.536C148.507 41.952 148.371 42.304 148.099 42.592C147.827 42.864 147.483 43 147.067 43C146.651 43 146.307 42.864 146.035 42.592C145.763 42.304 145.627 41.952 145.627 41.536V40.36L146.155 40.576C146.155 40.784 146.043 41.04 145.819 41.344C145.595 41.632 145.291 41.92 144.907 42.208C144.523 42.496 144.067 42.744 143.539 42.952C143.027 43.144 142.467 43.24 141.859 43.24C140.755 43.24 139.755 42.96 138.859 42.4C137.963 41.824 137.251 41.04 136.723 40.048C136.211 39.04 135.955 37.888 135.955 36.592C135.955 35.28 136.211 34.128 136.723 33.136C137.251 32.128 137.955 31.344 138.835 30.784C139.715 30.208 140.691 29.92 141.763 29.92C142.451 29.92 143.083 30.024 143.659 30.232C144.235 30.44 144.731 30.704 145.147 31.024C145.579 31.344 145.907 31.672 146.131 32.008C146.371 32.328 146.491 32.6 146.491 32.824L145.627 33.136V31.384C145.627 30.968 145.763 30.624 146.035 30.352C146.307 30.064 146.651 29.92 147.067 29.92ZM142.219 40.6C142.923 40.6 143.539 40.424 144.067 40.072C144.595 39.72 145.003 39.24 145.291 38.632C145.595 38.024 145.747 37.344 145.747 36.592C145.747 35.824 145.595 35.136 145.291 34.528C145.003 33.92 144.595 33.44 144.067 33.088C143.539 32.736 142.923 32.56 142.219 32.56C141.531 32.56 140.923 32.736 140.395 33.088C139.867 33.44 139.451 33.92 139.147 34.528C138.859 35.136 138.715 35.824 138.715 36.592C138.715 37.344 138.859 38.024 139.147 38.632C139.451 39.24 139.867 39.72 140.395 40.072C140.923 40.424 141.531 40.6 142.219 40.6ZM152.369 30.16C152.833 30.16 153.225 30.36 153.545 30.76L161.561 40.72C161.769 40.976 161.873 41.264 161.873 41.584C161.873 41.984 161.721 42.328 161.417 42.616C161.113 42.904 160.777 43.048 160.409 43.048C159.945 43.048 159.553 42.84 159.233 42.424L151.217 32.464C151.009 32.208 150.905 31.92 150.905 31.6C150.905 31.184 151.049 30.84 151.337 30.568C151.641 30.296 151.985 30.16 152.369 30.16ZM152.393 43.024C152.073 43.024 151.753 42.904 151.433 42.664C151.129 42.408 150.977 42.104 150.977 41.752C150.977 41.432 151.097 41.128 151.337 40.84L155.009 36.352L156.449 38.752L153.545 42.424C153.241 42.824 152.857 43.024 152.393 43.024ZM160.385 30.16C160.769 30.16 161.089 30.296 161.345 30.568C161.617 30.824 161.753 31.12 161.753 31.456C161.753 31.616 161.729 31.776 161.681 31.936C161.633 32.096 161.545 32.248 161.417 32.392L157.793 36.808L156.281 34.72L159.233 30.808C159.553 30.376 159.937 30.16 160.385 30.16Z" fill="white"/>
</svg>
