<svg width="199" height="72" viewBox="0 0 199 72" fill="none" xmlns="http://www.w3.org/2000/svg">
<rect x="1" y="0.5" width="197" height="71" rx="9.5" stroke="#A1AEBF"/>
<path d="M69.3732 28.8265H73.0244V43.4999H69.3732V28.8265ZM74.4727 37.9596C74.4727 34.3306 76.712 32.1652 80.1685 32.1652C83.6249 32.1652 85.8643 34.3306 85.8643 37.9596C85.8643 41.5886 83.6736 43.766 80.1685 43.766C76.6634 43.766 74.4727 41.6491 74.4727 37.9596ZM82.2009 37.9596C82.2009 35.9636 81.4099 34.7902 80.1685 34.7902C78.9271 34.7902 78.1482 35.9999 78.1482 37.9596C78.1482 39.9193 78.9149 41.1048 80.1685 41.1048C81.422 41.1048 82.2009 39.9918 82.2009 37.9717V37.9596ZM87.2395 44.2136H90.7447C90.9115 44.582 91.1935 44.8869 91.5488 45.0831C91.904 45.2792 92.3136 45.3562 92.7163 45.3023C94.1037 45.3023 94.834 44.5523 94.834 43.4636V41.4314H94.7609C94.4701 42.0542 93.998 42.5761 93.4058 42.9298C92.8135 43.2834 92.1282 43.4525 91.4384 43.4152C88.773 43.4152 87.0083 41.3951 87.0083 37.9233C87.0083 34.4515 88.6878 32.262 91.4871 32.262C92.1986 32.2343 92.9015 32.4234 93.5019 32.8038C94.1023 33.1844 94.5713 33.7382 94.8461 34.391V32.3709H98.4973V43.3789C98.4973 46.0281 96.1484 47.6733 92.6798 47.6733C89.4546 47.6733 87.4464 46.2338 87.2395 44.2257V44.2136ZM94.8461 37.9475C94.8461 36.1814 94.0307 35.0685 92.7406 35.0685C91.4506 35.0685 90.6595 36.1693 90.6595 37.9475C90.6595 39.7257 91.4384 40.7298 92.7406 40.7298C94.0429 40.7298 94.8461 39.7499 94.8461 37.9596V37.9475ZM99.8726 37.9475C99.8726 34.3185 102.112 32.1531 105.568 32.1531C109.025 32.1531 111.276 34.3185 111.276 37.9475C111.276 41.5765 109.086 43.7539 105.568 43.7539C102.051 43.7539 99.8726 41.6491 99.8726 37.9596V37.9475ZM107.601 37.9475C107.601 35.9515 106.81 34.7781 105.568 34.7781C104.327 34.7781 103.609 35.9999 103.609 37.9717C103.609 39.9435 104.376 41.1168 105.617 41.1168C106.858 41.1168 107.601 39.9918 107.601 37.9717V37.9475ZM112.664 29.7338C112.654 29.3674 112.754 29.0064 112.951 28.6966C113.149 28.3868 113.434 28.1422 113.771 27.9937C114.108 27.8452 114.482 27.7995 114.845 27.8625C115.208 27.9255 115.545 28.0942 115.811 28.3474C116.078 28.6005 116.263 28.9267 116.343 29.2845C116.423 29.6423 116.394 30.0156 116.26 30.3573C116.127 30.6987 115.894 30.9932 115.592 31.2031C115.289 31.4129 114.931 31.5289 114.562 31.5362C114.318 31.5529 114.073 31.5191 113.842 31.4371C113.611 31.3551 113.4 31.2266 113.222 31.0596C113.044 30.8927 112.902 30.6908 112.806 30.4667C112.71 30.2428 112.661 30.0015 112.664 29.758V29.7338ZM112.664 32.3951H116.315V43.4999H112.664V32.3951ZM129.569 37.9475C129.569 41.5765 127.95 43.6451 125.175 43.6451C124.464 43.6904 123.755 43.5176 123.146 43.1498C122.536 42.782 122.055 42.237 121.767 41.5886H121.694V47.0564H118.043V32.3709H121.694V34.3548H121.767C122.042 33.6956 122.514 33.1365 123.119 32.7534C123.724 32.3703 124.434 32.1818 125.151 32.2136C127.95 32.262 129.617 34.3427 129.617 37.9717L129.569 37.9475ZM125.918 37.9475C125.918 36.1814 125.102 35.0564 123.824 35.0564C122.546 35.0564 121.731 36.1935 121.719 37.9475C121.707 39.7015 122.546 40.8265 123.824 40.8265C125.102 40.8265 125.918 39.7257 125.918 37.9717V37.9475ZM135.837 32.141C138.867 32.141 140.705 33.5685 140.79 35.8548H137.467C137.467 35.0685 136.81 34.5725 135.8 34.5725C134.79 34.5725 134.34 34.9596 134.34 35.5281C134.34 36.0967 134.741 36.2781 135.557 36.4475L137.893 36.9193C140.121 37.391 141.07 38.2862 141.07 39.9677C141.07 42.266 138.964 43.7418 135.861 43.7418C132.757 43.7418 130.725 42.266 130.567 40.0039H134.084C134.193 40.8265 134.851 41.3104 135.922 41.3104C136.993 41.3104 137.48 40.9596 137.48 40.3789C137.48 39.7983 137.139 39.6773 136.262 39.4959L134.157 39.0483C131.978 38.6007 130.834 37.4515 130.834 35.758C130.859 33.5806 132.818 32.1652 135.837 32.1652V32.141ZM153.253 43.4757H149.735V41.4072H149.662C149.469 42.1016 149.043 42.7095 148.454 43.1299C147.865 43.5501 147.149 43.7576 146.425 43.7177C145.87 43.749 145.315 43.6616 144.797 43.4614C144.279 43.2612 143.811 42.953 143.423 42.5573C143.036 42.1618 142.738 41.6879 142.55 41.1681C142.363 40.6483 142.289 40.0946 142.336 39.5443V32.3709H145.987V38.7096C145.987 40.0281 146.668 40.7298 147.8 40.7298C148.065 40.7302 148.328 40.6745 148.571 40.566C148.812 40.4575 149.028 40.2987 149.203 40.1006C149.377 39.9023 149.509 39.6692 149.586 39.4169C149.662 39.1644 149.685 38.8985 149.65 38.637V32.3709H153.301L153.253 43.4757ZM155.017 32.3709H158.547V34.512H158.62C158.813 33.8267 159.231 33.2246 159.805 32.8C160.38 32.3754 161.081 32.1521 161.796 32.1652C162.525 32.1073 163.248 32.3239 163.824 32.7723C164.398 33.2206 164.783 33.8675 164.9 34.5846H164.973C165.193 33.8599 165.651 33.2289 166.273 32.7909C166.893 32.3529 167.644 32.1327 168.405 32.1652C168.901 32.1487 169.396 32.2361 169.856 32.4219C170.317 32.6076 170.732 32.8877 171.076 33.2435C171.421 33.5996 171.686 34.0235 171.855 34.4879C172.023 34.9523 172.093 35.447 172.056 35.9394V43.4999H168.405V36.9072C168.405 35.6975 167.857 35.141 166.835 35.141C166.607 35.1391 166.381 35.1858 166.173 35.278C165.965 35.3702 165.778 35.5056 165.628 35.6754C165.477 35.8451 165.363 36.0449 165.296 36.2616C165.23 36.4783 165.211 36.7067 165.241 36.9314V43.4999H161.772V36.8588C161.772 35.7459 161.224 35.141 160.226 35.141C159.996 35.1412 159.767 35.1898 159.558 35.2838C159.348 35.3779 159.159 35.5152 159.007 35.6866C158.853 35.858 158.739 36.0598 158.67 36.2786C158.601 36.4973 158.58 36.728 158.608 36.9556V43.4999H154.956L155.017 32.3709Z" fill="white"/>
<path d="M59.1616 29.492C58.5423 28.0844 57.7226 26.7726 56.7275 25.5968C55.2567 23.8069 53.4212 22.3469 51.3417 21.3129C49.2622 20.2789 46.986 19.6943 44.6629 19.5976C42.3398 19.501 40.0224 19.8944 37.8632 20.7521C35.7041 21.6097 33.7522 22.9121 32.136 24.5736C30.5198 26.2351 29.2759 28.2179 28.4862 30.3916C27.6965 32.5653 27.3789 34.8806 27.5543 37.1851C27.7298 39.4896 28.3942 41.731 29.504 43.7618C30.6137 45.7928 32.1436 47.567 33.993 48.9678C35.1796 49.8846 36.4908 50.6299 37.8875 51.1815C39.8458 51.9792 41.9417 52.39 44.058 52.3912C48.4265 52.3816 52.6129 50.6508 55.6997 47.5783C58.7864 44.5057 60.5216 40.3421 60.5247 36.0001C60.5279 33.7604 60.0638 31.5443 59.1616 29.492ZM44.0458 22.9234C45.9464 22.9233 47.8239 23.3361 49.5469 24.1331C49.1268 24.3136 48.685 24.4396 48.2325 24.5081C46.7435 24.7224 45.3643 25.4094 44.3004 26.4668C43.2366 27.5242 42.5453 28.8952 42.3298 30.3751C42.2352 31.205 41.8554 31.9772 41.2545 32.5612C40.6537 33.1452 39.8685 33.5052 39.0316 33.5807C37.5426 33.7949 36.1633 34.482 35.0995 35.5394C34.0357 36.5968 33.3444 37.9677 33.1289 39.4477C33.0559 40.2368 32.7171 40.9785 32.1674 41.5525C31.2189 39.5605 30.7928 37.3623 30.9288 35.1626C31.0647 32.9629 31.7583 30.8332 32.9451 28.9715C34.1318 27.1099 35.773 25.5769 37.7161 24.5152C39.6591 23.4535 41.8408 22.8976 44.058 22.8993L44.0458 22.9234ZM33.9808 44.4678C34.1268 44.3347 34.2729 44.2138 34.4189 44.0686C35.5017 43.0253 36.1967 41.6479 36.3906 40.1614C36.4692 39.3257 36.8445 38.5452 37.4494 37.9597C38.0315 37.3576 38.8149 36.9875 39.6523 36.9194C41.1412 36.7052 42.5205 36.0181 43.5843 34.9607C44.6481 33.9033 45.3394 32.5324 45.555 31.0525C45.6077 30.1785 45.985 29.3551 46.6138 28.742C47.2103 28.1515 48.0011 27.7949 48.841 27.738C50.2089 27.5509 51.4846 26.9465 52.4922 26.0081C53.6395 26.9542 54.6114 28.0923 55.3644 29.371C55.3182 29.4331 55.2651 29.4899 55.2062 29.5404C54.6253 30.1479 53.8429 30.526 53.0033 30.6049C51.5128 30.8154 50.1315 31.5013 49.0669 32.5593C48.0025 33.6174 47.3124 34.9904 47.1006 36.4718C47.0148 37.3046 46.642 38.0823 46.0454 38.6731C45.4487 39.264 44.6649 39.6316 43.8268 39.7138C42.3334 39.9263 40.949 40.6121 39.879 41.669C38.8091 42.726 38.1106 44.0978 37.8875 45.5807C37.8221 46.1719 37.6177 46.7396 37.2912 47.238C36.0425 46.501 34.9241 45.5652 33.9808 44.4678ZM44.0458 49.1372C42.8109 49.1385 41.5818 48.9674 40.3947 48.6291C40.8008 47.8767 41.0648 47.0566 41.1736 46.2097C41.2589 45.3788 41.63 44.6026 42.2241 44.012C42.8183 43.4214 43.5993 43.0526 44.4353 42.9678C45.9264 42.756 47.3085 42.07 48.3748 41.0124C49.4409 39.9549 50.134 38.5825 50.3502 37.1009C50.4355 36.2699 50.8066 35.4937 51.4007 34.9031C51.9949 34.3126 52.7759 33.9437 53.6119 33.8589C54.734 33.7139 55.8035 33.2986 56.7275 32.6493C57.2406 34.5822 57.3014 36.6062 56.9052 38.5662C56.5091 40.5261 55.6664 42.3699 54.442 43.9559C53.2177 45.5418 51.6441 46.828 49.8419 47.7157C48.0398 48.6033 46.0571 49.0689 44.0458 49.0767V49.1372Z" fill="white"/>
</svg>
