<svg width="199" height="72" viewBox="0 0 199 72" fill="none" xmlns="http://www.w3.org/2000/svg">
    <rect x="1" y="0.5" width="197" height="71" rx="9.5" stroke="#A1AEBF"/>
    <g clip-path="url(#clip0_351_5035)">
    <path d="M34.6099 44.5088C31.7201 47.3812 26.8258 47.3697 25.4589 43.5415C25.1913 42.792 24.9773 42.0214 24.82 41.2351C24.1774 38.0243 24.5072 34.6964 25.7676 31.672C27.028 28.6477 29.1623 26.0627 31.9008 24.244C34.6393 22.4253 37.8589 21.4545 41.1524 21.4545C44.4459 21.4545 47.6655 22.4253 50.4039 24.244C53.1425 26.0627 55.2768 28.6477 56.5372 31.6721C57.7976 34.6964 58.1273 38.0243 57.4848 41.2351C57.3275 42.0214 57.1135 42.792 56.8458 43.5415C55.479 47.3697 50.5847 47.3812 47.6948 44.5088L43.2339 40.0749C42.8077 39.6513 42.8518 38.9527 42.9694 38.3652C43.0408 38.0081 43.0041 37.6378 42.8639 37.3014C42.7236 36.9649 42.4863 36.6773 42.1816 36.475C41.877 36.2727 41.5188 36.1647 41.1524 36.1647C40.786 36.1647 40.4279 36.2727 40.1232 36.475C39.8185 36.6773 39.5811 36.9649 39.4409 37.3014C39.3006 37.6378 39.264 38.0081 39.3355 38.3652C39.4531 38.9527 39.497 39.6513 39.0708 40.0749L34.6099 44.5088Z" fill="#728095"/>
    <path d="M71.3525 40.5349H75.8286V43.1567H67.9354V29.2137H71.3525V40.5349Z" fill="white"/>
    <path d="M81.9349 43.3157C80.8425 43.3157 79.8567 43.084 78.9774 42.6206C78.1116 42.1571 77.4254 41.4951 76.9192 40.6344C76.4263 39.7737 76.1798 38.7674 76.1798 37.6154C76.1798 36.4767 76.4329 35.4769 76.9391 34.6162C77.4455 33.7424 78.1382 33.0737 79.0174 32.6102C79.8966 32.1468 80.8825 31.9151 81.9749 31.9151C83.0673 31.9151 84.0531 32.1468 84.9323 32.6102C85.8116 33.0737 86.5043 33.7424 87.0105 34.6162C87.5167 35.4769 87.7699 36.4767 87.7699 37.6154C87.7699 38.7541 87.5101 39.7604 86.9906 40.6344C86.4844 41.4951 85.785 42.1571 84.8923 42.6206C84.0131 43.084 83.0273 43.3157 81.9349 43.3157ZM81.9349 40.3761C82.5876 40.3761 83.1405 40.1379 83.5935 39.6612C84.0598 39.1845 84.2929 38.5026 84.2929 37.6154C84.2929 36.7282 84.0664 36.0463 83.6135 35.5696C83.1738 35.0929 82.6276 34.8546 81.9749 34.8546C81.3088 34.8546 80.7559 35.0929 80.3163 35.5696C79.8766 36.0331 79.6568 36.7149 79.6568 37.6154C79.6568 38.5026 79.87 39.1845 80.2963 39.6612C80.736 40.1379 81.2822 40.3761 81.9349 40.3761Z" fill="white"/>
    <path d="M93.2196 31.9151C94.0056 31.9151 94.6918 32.074 95.2779 32.3918C95.8773 32.7095 96.337 33.1267 96.6567 33.643V32.074H100.074V43.1369C100.074 44.1565 99.8673 45.0768 99.4543 45.8977C99.0546 46.7319 98.4352 47.394 97.5959 47.8839C96.77 48.3739 95.7375 48.6188 94.4986 48.6188C92.8467 48.6188 91.5078 48.2282 90.482 47.447C89.4563 46.6789 88.87 45.6329 88.7235 44.3088H92.1006C92.2072 44.7325 92.4603 45.0636 92.86 45.3019C93.2596 45.5534 93.7526 45.6793 94.3387 45.6793C95.0448 45.6793 95.6042 45.474 96.0173 45.0636C96.4436 44.6663 96.6567 44.0242 96.6567 43.1369V41.5679C96.3237 42.0842 95.8641 42.508 95.2779 42.839C94.6918 43.1568 94.0056 43.3157 93.2196 43.3157C92.3005 43.3157 91.4678 43.084 90.7218 42.6206C89.9757 42.1439 89.3829 41.4752 88.9434 40.6145C88.5171 39.7406 88.3039 38.7343 88.3039 37.5955C88.3039 36.4568 88.5171 35.4571 88.9434 34.5964C89.3829 33.7357 89.9757 33.0737 90.7218 32.6102C91.4678 32.1468 92.3005 31.9151 93.2196 31.9151ZM96.6567 37.6154C96.6567 36.7679 96.4169 36.0992 95.9373 35.6094C95.4711 35.1195 94.8982 34.8745 94.2188 34.8745C93.5394 34.8745 92.9599 35.1195 92.4803 35.6094C92.014 36.0861 91.7809 36.7481 91.7809 37.5955C91.7809 38.443 92.014 39.1183 92.4803 39.6214C92.9599 40.1113 93.5394 40.3563 94.2188 40.3563C94.8982 40.3563 95.4711 40.1113 95.9373 39.6214C96.4169 39.1315 96.6567 38.4629 96.6567 37.6154Z" fill="white"/>
    <path d="M107.022 43.3157C105.93 43.3157 104.944 43.084 104.065 42.6206C103.199 42.1571 102.513 41.4951 102.006 40.6344C101.513 39.7737 101.267 38.7674 101.267 37.6154C101.267 36.4767 101.52 35.4769 102.026 34.6162C102.533 33.7424 103.225 33.0737 104.104 32.6102C104.984 32.1468 105.97 31.9151 107.062 31.9151C108.154 31.9151 109.14 32.1468 110.019 32.6102C110.899 33.0737 111.591 33.7424 112.098 34.6162C112.604 35.4769 112.857 36.4767 112.857 37.6154C112.857 38.7541 112.597 39.7604 112.078 40.6344C111.571 41.4951 110.872 42.1571 109.979 42.6206C109.1 43.084 108.114 43.3157 107.022 43.3157ZM107.022 40.3761C107.675 40.3761 108.228 40.1379 108.681 39.6612C109.147 39.1845 109.38 38.5026 109.38 37.6154C109.38 36.7282 109.153 36.0463 108.701 35.5696C108.261 35.0929 107.715 34.8546 107.062 34.8546C106.396 34.8546 105.843 35.0929 105.403 35.5696C104.964 36.0331 104.744 36.7149 104.744 37.6154C104.744 38.5026 104.957 39.1845 105.383 39.6612C105.823 40.1379 106.369 40.3761 107.022 40.3761Z" fill="white"/>
    <path d="M115.789 30.922C115.189 30.922 114.696 30.7498 114.31 30.4056C113.937 30.0481 113.751 29.6111 113.751 29.0947C113.751 28.5651 113.937 28.1281 114.31 27.7838C114.696 27.4263 115.189 27.2476 115.789 27.2476C116.375 27.2476 116.855 27.4263 117.228 27.7838C117.614 28.1281 117.807 28.5651 117.807 29.0947C117.807 29.6111 117.614 30.0481 117.228 30.4056C116.855 30.7498 116.375 30.922 115.789 30.922ZM117.487 32.074V43.1568H114.07V32.074H117.487Z" fill="white"/>
    <path d="M122.781 33.643C123.114 33.1267 123.574 32.7095 124.16 32.3918C124.746 32.074 125.433 31.9151 126.218 31.9151C127.138 31.9151 127.97 32.1468 128.716 32.6102C129.462 33.0737 130.049 33.7357 130.475 34.5964C130.914 35.4571 131.135 36.4568 131.135 37.5955C131.135 38.7343 130.914 39.7406 130.475 40.6145C130.049 41.4752 129.462 42.1439 128.716 42.6206C127.97 43.084 127.138 43.3157 126.218 43.3157C125.445 43.3157 124.76 43.1568 124.16 42.839C123.574 42.5212 123.114 42.1108 122.781 41.6076V48.44H119.364V32.074H122.781V33.643ZM127.657 37.5955C127.657 36.7481 127.417 36.0861 126.937 35.6094C126.471 35.1195 125.892 34.8745 125.199 34.8745C124.52 34.8745 123.94 35.1195 123.46 35.6094C122.995 36.0992 122.762 36.7679 122.762 37.6154C122.762 38.4629 122.995 39.1315 123.46 39.6214C123.94 40.1113 124.52 40.3563 125.199 40.3563C125.879 40.3563 126.458 40.1113 126.937 39.6214C127.417 39.1183 127.657 38.443 127.657 37.5955Z" fill="white"/>
    <path d="M136.864 43.3157C135.891 43.3157 135.025 43.1502 134.265 42.8192C133.506 42.4881 132.906 42.038 132.467 41.4685C132.028 40.8859 131.781 40.2371 131.728 39.5221H135.105C135.145 39.9061 135.325 40.2172 135.644 40.4556C135.965 40.6939 136.357 40.8131 136.824 40.8131C137.25 40.8131 137.576 40.7337 137.802 40.5748C138.042 40.4027 138.162 40.1841 138.162 39.9193C138.162 39.6015 137.996 39.3698 137.663 39.2242C137.33 39.0653 136.79 38.8932 136.044 38.7078C135.245 38.5224 134.579 38.3304 134.046 38.1318C133.513 37.92 133.054 37.5955 132.667 37.1586C132.28 36.7084 132.088 36.1059 132.088 35.3512C132.088 34.7156 132.261 34.1396 132.607 33.6232C132.966 33.0936 133.486 32.6764 134.166 32.3719C134.858 32.0674 135.678 31.9151 136.624 31.9151C138.022 31.9151 139.121 32.2593 139.921 32.9479C140.734 33.6365 141.2 34.55 141.32 35.6888H138.162C138.109 35.3048 137.936 35.0003 137.643 34.7751C137.363 34.5501 136.99 34.4375 136.524 34.4375C136.124 34.4375 135.817 34.517 135.605 34.6759C135.392 34.8215 135.285 35.0268 135.285 35.2916C135.285 35.6094 135.452 35.8477 135.785 36.0066C136.131 36.1655 136.663 36.3244 137.383 36.4832C138.209 36.6951 138.881 36.907 139.401 37.1188C139.921 37.3175 140.374 37.6484 140.76 38.112C141.159 38.5621 141.367 39.1712 141.38 39.9393C141.38 40.588 141.193 41.1706 140.82 41.6871C140.461 42.1902 139.934 42.5875 139.241 42.8787C138.562 43.1701 137.769 43.3157 136.864 43.3157Z" fill="white"/>
    <path d="M153.881 32.0739V43.1567H150.464V41.6472C150.118 42.1371 149.644 42.5344 149.045 42.8389C148.459 43.1303 147.807 43.2759 147.087 43.2759C146.234 43.2759 145.481 43.0905 144.829 42.7197C144.176 42.3358 143.67 41.7862 143.311 41.0713C142.951 40.3562 142.771 39.5154 142.771 38.5488V32.0739H146.167V38.092C146.167 38.8335 146.361 39.4094 146.747 39.82C147.133 40.2304 147.653 40.4357 148.306 40.4357C148.972 40.4357 149.498 40.2304 149.884 39.82C150.271 39.4094 150.464 38.8335 150.464 38.092V32.0739H153.881Z" fill="white"/>
    <path d="M169.964 31.9547C171.349 31.9547 172.448 32.3718 173.261 33.206C174.087 34.0401 174.5 35.1987 174.5 36.6817V43.1567H171.103V37.1386C171.103 36.4236 170.91 35.8741 170.523 35.4901C170.15 35.0928 169.631 34.8942 168.964 34.8942C168.299 34.8942 167.772 35.0928 167.386 35.4901C167.013 35.8741 166.827 36.4236 166.827 37.1386V43.1567H163.429V37.1386C163.429 36.4236 163.236 35.8741 162.85 35.4901C162.477 35.0928 161.957 34.8942 161.291 34.8942C160.625 34.8942 160.099 35.0928 159.713 35.4901C159.339 35.8741 159.153 36.4236 159.153 37.1386V43.1567H155.736V32.0739H159.153V33.4642C159.5 33.0007 159.953 32.6366 160.512 32.3718C161.072 32.0937 161.704 31.9547 162.41 31.9547C163.25 31.9547 163.996 32.1334 164.648 32.4909C165.314 32.8485 165.834 33.3583 166.207 34.0203C166.593 33.4112 167.12 32.9146 167.786 32.5307C168.452 32.1467 169.178 31.9547 169.964 31.9547Z" fill="white"/>
    </g>
    <defs>
    <clipPath id="clip0_351_5035">
    <rect width="150" height="40" fill="white" transform="translate(24.5 16)"/>
    </clipPath>
    </defs>
    </svg>
    