<svg width="199" height="72" viewBox="0 0 199 72" fill="none" xmlns="http://www.w3.org/2000/svg">
<rect x="1" y="0.5" width="197" height="71" rx="9.5" stroke="#A1AEBF"/>
<path d="M52.2557 16L24.5 39.1397H43.2412L35.7428 55.9763L63.7437 32.9908H44.2244L52.2557 16Z" fill="#728095"/>
<path d="M52.2556 16L39.7185 34.6819H58.347L35.7427 55.9763L63.7437 32.9908H44.2243L52.2556 16Z" fill="#4B5567"/>
<path d="M52.2557 16L24.5 39.1397H43.2412L35.7428 55.9763L47.6537 37.4486H30.0415L52.2557 16Z" fill="#A1AEBF"/>
<path d="M86.4943 36.592C86.4943 37.904 86.1983 39.064 85.6063 40.072C85.0303 41.064 84.2463 41.84 83.2543 42.4C82.2783 42.96 81.1823 43.24 79.9663 43.24C78.7503 43.24 77.6463 42.96 76.6543 42.4C75.6783 41.84 74.8943 41.064 74.3023 40.072C73.7263 39.064 73.4383 37.904 73.4383 36.592C73.4383 35.28 73.7263 34.128 74.3023 33.136C74.8943 32.128 75.6783 31.344 76.6543 30.784C77.6463 30.208 78.7503 29.92 79.9663 29.92C81.1823 29.92 82.2783 30.208 83.2543 30.784C84.2463 31.344 85.0303 32.128 85.6063 33.136C86.1983 34.128 86.4943 35.28 86.4943 36.592ZM83.6143 36.592C83.6143 35.776 83.4463 35.072 83.1103 34.48C82.7903 33.872 82.3503 33.4 81.7903 33.064C81.2463 32.728 80.6383 32.56 79.9663 32.56C79.2943 32.56 78.6783 32.728 78.1183 33.064C77.5743 33.4 77.1343 33.872 76.7983 34.48C76.4783 35.072 76.3183 35.776 76.3183 36.592C76.3183 37.392 76.4783 38.096 76.7983 38.704C77.1343 39.296 77.5743 39.76 78.1183 40.096C78.6783 40.432 79.2943 40.6 79.9663 40.6C80.6383 40.6 81.2463 40.432 81.7903 40.096C82.3503 39.76 82.7903 39.296 83.1103 38.704C83.4463 38.096 83.6143 37.392 83.6143 36.592ZM96.0948 25.24C96.4468 25.24 96.7908 25.288 97.1268 25.384C97.4628 25.48 97.7428 25.64 97.9668 25.864C98.1908 26.072 98.3028 26.352 98.3028 26.704C98.3028 27.104 98.1828 27.424 97.9428 27.664C97.7188 27.888 97.4548 28 97.1508 28C97.0068 28 96.7908 27.968 96.5028 27.904C96.2148 27.824 95.9348 27.784 95.6628 27.784C95.2628 27.784 94.9508 27.872 94.7268 28.048C94.5188 28.224 94.3748 28.432 94.2948 28.672C94.2148 28.896 94.1748 29.096 94.1748 29.272V41.536C94.1748 41.952 94.0388 42.304 93.7668 42.592C93.4948 42.864 93.1508 43 92.7348 43C92.3188 43 91.9748 42.864 91.7028 42.592C91.4308 42.304 91.2948 41.952 91.2948 41.536V29.296C91.2948 28.16 91.6948 27.2 92.4948 26.416C93.2948 25.632 94.4948 25.24 96.0948 25.24ZM96.3588 30.4C96.7428 30.4 97.0628 30.528 97.3188 30.784C97.5748 31.024 97.7028 31.336 97.7028 31.72C97.7028 32.104 97.5748 32.424 97.3188 32.68C97.0628 32.92 96.7428 33.04 96.3588 33.04H89.9988C89.6148 33.04 89.2948 32.92 89.0388 32.68C88.7828 32.424 88.6548 32.104 88.6548 31.72C88.6548 31.336 88.7828 31.024 89.0388 30.784C89.2948 30.528 89.6148 30.4 89.9988 30.4H96.3588ZM106.583 25.24C106.935 25.24 107.279 25.288 107.615 25.384C107.951 25.48 108.231 25.64 108.455 25.864C108.679 26.072 108.791 26.352 108.791 26.704C108.791 27.104 108.671 27.424 108.431 27.664C108.207 27.888 107.943 28 107.639 28C107.495 28 107.279 27.968 106.991 27.904C106.703 27.824 106.423 27.784 106.151 27.784C105.751 27.784 105.439 27.872 105.215 28.048C105.007 28.224 104.863 28.432 104.783 28.672C104.703 28.896 104.663 29.096 104.663 29.272V41.536C104.663 41.952 104.527 42.304 104.255 42.592C103.983 42.864 103.639 43 103.223 43C102.807 43 102.463 42.864 102.191 42.592C101.919 42.304 101.783 41.952 101.783 41.536V29.296C101.783 28.16 102.183 27.2 102.983 26.416C103.783 25.632 104.983 25.24 106.583 25.24ZM106.847 30.4C107.231 30.4 107.551 30.528 107.807 30.784C108.063 31.024 108.191 31.336 108.191 31.72C108.191 32.104 108.063 32.424 107.807 32.68C107.551 32.92 107.231 33.04 106.847 33.04H100.487C100.103 33.04 99.7828 32.92 99.5268 32.68C99.2708 32.424 99.1428 32.104 99.1428 31.72C99.1428 31.336 99.2708 31.024 99.5268 30.784C99.7828 30.528 100.103 30.4 100.487 30.4H106.847ZM117.695 29.92C118.975 29.92 119.919 30.232 120.527 30.856C121.135 31.464 121.535 32.256 121.727 33.232L121.319 33.016L121.511 32.632C121.703 32.264 121.999 31.872 122.399 31.456C122.799 31.024 123.279 30.664 123.839 30.376C124.415 30.072 125.055 29.92 125.759 29.92C126.911 29.92 127.783 30.168 128.375 30.664C128.983 31.16 129.399 31.824 129.623 32.656C129.847 33.472 129.959 34.384 129.959 35.392V41.536C129.959 41.952 129.823 42.304 129.551 42.592C129.279 42.864 128.935 43 128.519 43C128.103 43 127.759 42.864 127.487 42.592C127.215 42.304 127.079 41.952 127.079 41.536V35.392C127.079 34.864 127.015 34.392 126.887 33.976C126.759 33.544 126.527 33.2 126.191 32.944C125.855 32.688 125.375 32.56 124.751 32.56C124.143 32.56 123.623 32.688 123.191 32.944C122.759 33.2 122.431 33.544 122.207 33.976C121.999 34.392 121.895 34.864 121.895 35.392V41.536C121.895 41.952 121.759 42.304 121.487 42.592C121.215 42.864 120.871 43 120.455 43C120.039 43 119.695 42.864 119.423 42.592C119.151 42.304 119.015 41.952 119.015 41.536V35.392C119.015 34.864 118.951 34.392 118.823 33.976C118.695 33.544 118.463 33.2 118.127 32.944C117.791 32.688 117.311 32.56 116.687 32.56C116.079 32.56 115.559 32.688 115.127 32.944C114.695 33.2 114.367 33.544 114.143 33.976C113.935 34.392 113.831 34.864 113.831 35.392V41.536C113.831 41.952 113.695 42.304 113.423 42.592C113.151 42.864 112.807 43 112.391 43C111.975 43 111.631 42.864 111.359 42.592C111.087 42.304 110.951 41.952 110.951 41.536V31.624C110.951 31.208 111.087 30.864 111.359 30.592C111.631 30.304 111.975 30.16 112.391 30.16C112.807 30.16 113.151 30.304 113.423 30.592C113.695 30.864 113.831 31.208 113.831 31.624V32.656L113.471 32.584C113.615 32.312 113.815 32.024 114.071 31.72C114.327 31.4 114.639 31.104 115.007 30.832C115.375 30.56 115.783 30.344 116.231 30.184C116.679 30.008 117.167 29.92 117.695 29.92ZM144.068 29.92C144.484 29.92 144.828 30.056 145.1 30.328C145.372 30.6 145.508 30.952 145.508 31.384V41.536C145.508 41.952 145.372 42.304 145.1 42.592C144.828 42.864 144.484 43 144.068 43C143.652 43 143.308 42.864 143.036 42.592C142.764 42.304 142.628 41.952 142.628 41.536V40.36L143.156 40.576C143.156 40.784 143.044 41.04 142.82 41.344C142.596 41.632 142.292 41.92 141.908 42.208C141.524 42.496 141.068 42.744 140.54 42.952C140.028 43.144 139.468 43.24 138.86 43.24C137.756 43.24 136.756 42.96 135.86 42.4C134.964 41.824 134.252 41.04 133.724 40.048C133.212 39.04 132.956 37.888 132.956 36.592C132.956 35.28 133.212 34.128 133.724 33.136C134.252 32.128 134.956 31.344 135.836 30.784C136.716 30.208 137.692 29.92 138.764 29.92C139.452 29.92 140.084 30.024 140.66 30.232C141.236 30.44 141.732 30.704 142.148 31.024C142.58 31.344 142.908 31.672 143.132 32.008C143.372 32.328 143.492 32.6 143.492 32.824L142.628 33.136V31.384C142.628 30.968 142.764 30.624 143.036 30.352C143.308 30.064 143.652 29.92 144.068 29.92ZM139.22 40.6C139.924 40.6 140.54 40.424 141.068 40.072C141.596 39.72 142.004 39.24 142.292 38.632C142.596 38.024 142.748 37.344 142.748 36.592C142.748 35.824 142.596 35.136 142.292 34.528C142.004 33.92 141.596 33.44 141.068 33.088C140.54 32.736 139.924 32.56 139.22 32.56C138.532 32.56 137.924 32.736 137.396 33.088C136.868 33.44 136.452 33.92 136.148 34.528C135.86 35.136 135.716 35.824 135.716 36.592C135.716 37.344 135.86 38.024 136.148 38.632C136.452 39.24 136.868 39.72 137.396 40.072C137.924 40.424 138.532 40.6 139.22 40.6ZM149.371 30.16C149.835 30.16 150.227 30.36 150.547 30.76L158.563 40.72C158.771 40.976 158.875 41.264 158.875 41.584C158.875 41.984 158.723 42.328 158.419 42.616C158.115 42.904 157.779 43.048 157.411 43.048C156.947 43.048 156.555 42.84 156.235 42.424L148.219 32.464C148.011 32.208 147.907 31.92 147.907 31.6C147.907 31.184 148.051 30.84 148.339 30.568C148.643 30.296 148.987 30.16 149.371 30.16ZM149.395 43.024C149.075 43.024 148.755 42.904 148.435 42.664C148.131 42.408 147.979 42.104 147.979 41.752C147.979 41.432 148.099 41.128 148.339 40.84L152.011 36.352L153.451 38.752L150.547 42.424C150.243 42.824 149.859 43.024 149.395 43.024ZM157.387 30.16C157.771 30.16 158.091 30.296 158.347 30.568C158.619 30.824 158.755 31.12 158.755 31.456C158.755 31.616 158.731 31.776 158.683 31.936C158.635 32.096 158.547 32.248 158.419 32.392L154.795 36.808L153.283 34.72L156.235 30.808C156.555 30.376 156.939 30.16 157.387 30.16Z" fill="white"/>
</svg>
