<svg width="664" height="500" viewBox="0 0 664 500" fill="none" xmlns="http://www.w3.org/2000/svg">
<mask id="mask0_421_9614" style="mask-type:alpha" maskUnits="userSpaceOnUse" x="0" y="0" width="664" height="500">
<rect width="664" height="500" fill="#D9D9D9"/>
</mask>
<g mask="url(#mask0_421_9614)">
<path d="M5 308.932L298.397 -46L649.8 264.263L561.585 610.623L558.308 608.847L5 308.932ZM299.053 -37.6771L13.975 307.189L557.802 601.968L643.306 266.272L299.053 -37.6771Z" fill="white"/>
<path d="M125.035 302.675L269.191 10.0615L556.268 207.364L578.34 541.733L125.035 302.675Z" fill="white"/>
<path d="M13.5022 408.608L128.411 103.315L433.371 271.632L487.968 602.259L13.5022 408.608Z" fill="#616161"/>
<path d="M196.263 473.067L312.913 240.954L426.669 322.955L433.313 555.699L196.263 473.067Z" fill="#424242"/>
<path d="M562.082 140.382C561.278 145.253 560.531 149.975 559.685 154.688C559.453 155.991 559.022 157.277 558.524 158.505C557.164 161.866 554.576 163.633 550.992 163.907C549.615 164.015 548.222 163.94 546.787 163.949C546.372 164.695 546.007 165.384 545.617 166.065C543.958 168.952 542.366 171.89 540.607 174.711C538.998 177.3 536.899 179.466 534.394 181.267C531.184 183.582 527.609 184.536 523.752 184.08C519.248 183.54 514.777 182.677 510.281 182.03C507.469 181.623 504.641 181.308 501.804 181.042C498.975 180.777 496.263 181.391 493.625 182.395C493.119 182.586 492.613 182.81 492.124 183.042C487.055 185.399 482.485 188.602 477.608 191.564C478.644 195.041 479.723 198.427 480.66 201.854C481.589 205.231 482.385 208.65 483.248 212.094C483.895 212.16 484.086 211.538 484.409 211.164C487.42 207.671 490.639 204.377 494.139 201.364C497.922 198.112 501.978 195.274 506.615 193.332C511.193 191.407 515.872 191.075 520.674 192.303C521.321 192.469 521.96 192.635 522.582 192.792C522.79 192.693 522.98 192.643 523.105 192.527C527.518 188.444 536.783 187.2 543.9 191.689C547.226 193.788 550.013 196.444 552.386 199.555C555.679 203.862 558.292 208.575 560.556 213.479C564.148 221.263 566.802 229.37 568.909 237.668C570.104 242.373 571.041 247.136 571.273 251.999C571.489 256.563 571.19 261.085 569.913 265.508C568.917 268.944 567.3 272.022 564.704 274.536C562.232 276.926 559.328 278.403 555.928 278.984C552.435 279.573 548.927 279.557 545.418 279.333C541.121 279.051 536.833 278.785 532.528 279.084C530.048 279.258 527.592 279.557 524.955 280.461C525.486 280.66 525.776 280.851 526.083 280.876C536.816 281.93 547.55 282.901 558.325 283.399C559.478 283.448 560.631 283.432 561.775 283.457C565.035 283.523 567.706 282.278 569.656 279.681C571.174 277.648 572.55 275.499 573.952 273.375C575.96 270.346 577.793 267.193 579.941 264.263C584.437 258.115 590.301 253.791 597.676 251.626C601.806 250.406 605.995 249.999 610.251 250.721C615.277 251.567 619.358 253.908 622.038 258.388C622.129 258.538 622.262 258.671 622.378 258.812C622.419 258.853 622.477 258.878 622.56 258.928C622.751 258.812 622.975 258.704 623.166 258.563C630.349 253.277 637.947 253.061 645.786 256.837C651.766 259.716 655.648 264.579 658.029 270.661C661.455 279.391 662.226 288.427 660.692 297.655C659.049 307.546 655.789 316.898 651.119 325.752C649.336 329.137 647.154 332.266 644.741 335.245C640.286 340.755 634.563 343.883 627.562 344.804C623.58 345.327 619.591 345.534 615.592 345.377C601.309 344.821 587.025 344.248 572.741 343.626C559.37 343.045 545.99 342.381 532.619 341.767C519.488 341.17 506.349 340.639 493.219 340.024C480.751 339.444 468.292 338.788 455.825 338.174C455.527 338.157 455.228 338.174 454.954 338.174C454.432 339.776 453.76 352.903 453.951 357.807C454.133 357.882 454.341 358.031 454.564 358.056C457.576 358.322 460.097 359.774 462.519 361.4C466.7 364.213 470.69 367.292 474.306 370.802C478.047 374.436 481.714 378.137 485.305 381.921C499.365 396.75 512.902 412.043 526.016 427.71C543.917 449.086 561.726 470.536 579.211 492.252C582.521 496.359 585.88 500.417 589.231 504.491C590.501 506.035 590.683 507.454 589.538 509.13C588.543 510.574 587.465 511.985 586.254 513.246C582.098 517.569 577.975 521.942 573.637 526.075C561.634 537.509 548.562 547.65 535.29 557.549C519.364 569.424 502.442 579.696 484.791 588.775C480.544 590.957 476.09 592.758 471.743 594.741C470.698 595.214 469.653 595.695 468.649 596.259C467.728 596.774 466.907 596.674 466.111 596.077C465.729 595.786 465.373 595.446 465.041 595.098C463.067 593.04 461.043 591.032 459.152 588.907C444.976 573.041 430.783 557.192 417.221 540.795C416.11 539.451 414.94 538.165 413.571 536.58C413.447 537.269 413.347 537.592 413.347 537.916C413.24 544.828 413.123 551.732 413.04 558.644C412.966 565.374 412.941 572.104 412.866 578.825C412.808 584.161 412.725 589.488 412.617 594.824C412.559 597.67 412.501 600.525 412.269 603.362C412.103 605.379 411.199 606.956 409.092 607.777C404.779 609.47 400.341 610.64 395.804 611.47C377.903 614.723 359.887 617.146 341.746 618.548C332.016 619.303 322.27 619.726 312.507 619.867C306.087 619.967 299.658 620.108 293.238 619.959C287.548 619.826 281.866 619.378 276.184 618.971C273.297 618.772 272.982 618.374 272.526 615.503C269.316 595.554 267.234 575.473 266.039 555.309C265.301 542.903 264.944 530.473 265.234 518.042C265.823 492.866 268.088 467.839 271.738 442.928C274.757 422.275 279.278 401.936 284.462 381.73C285.159 379.034 285.797 376.32 286.461 373.615C286.71 372.611 286.959 371.615 287.224 370.619C288.526 365.74 290.053 360.96 293.271 356.878C293.031 356.604 292.856 356.363 292.641 356.164C289.937 353.658 288.974 350.488 289.356 346.928C289.696 343.8 290.161 340.68 290.733 337.585C292.856 326.084 295.179 314.624 297.203 303.107C301.209 280.304 304.511 257.401 307.629 234.457C308.724 226.416 310.135 218.409 311.669 210.442C312.598 205.638 313.817 200.858 315.294 196.186C318.811 185.084 324.767 175.358 332.796 166.952C335.799 163.799 339.059 160.87 342.377 158.049C349.494 151.991 357.755 148.041 366.589 145.129C376.452 141.876 386.472 139.32 396.675 137.453C401.146 136.64 405.666 136.142 410.154 135.378C415.288 134.507 420.415 133.545 425.524 132.557C428.502 131.976 431.123 130.615 433.33 128.516C434.557 127.346 435.768 126.159 436.921 124.915C438.116 123.628 439.236 122.268 440.389 120.94C443.441 117.397 443.541 117.413 444.519 112.874C445.166 109.862 445.506 106.783 445.954 103.73C446.228 101.863 445.805 100.095 444.967 98.4522C444.03 96.6183 443.126 94.743 441.931 93.0751C438.862 88.7933 437.908 83.9306 437.618 78.8356C437.369 74.4958 437.983 70.2389 439.07 66.0567C440.729 59.7253 442.495 53.4271 444.213 47.1122C444.611 45.6518 445.083 44.1996 445.374 42.7226C445.681 41.1792 446.46 40.0672 447.796 39.2872C450.508 37.694 453.138 35.9348 455.933 34.4992C464.925 29.8855 474.406 26.5912 484.219 24.218C490.647 22.658 497.159 21.6041 503.745 20.9734C515.988 19.8034 527.916 21.3386 539.636 24.915C555.994 29.9021 570.551 38.1255 583.666 49.0374C586.668 51.5351 587.838 54.6552 587.299 58.3893C586.975 60.6546 586.453 62.9366 585.665 65.0775C583.11 72.0146 580.547 78.9518 577.693 85.7728C575.163 91.8303 571.829 97.473 567.416 102.41C566.935 102.941 566.777 103.539 566.686 104.219C565.425 114.135 564.148 124.052 562.879 133.968C562.613 136.075 562.364 138.175 562.082 140.432V140.382Z" fill="black"/>
<path d="M550.984 540.613C545.924 544.588 541.013 548.529 535.995 552.338C532.262 555.168 528.422 557.856 524.573 560.528C520.757 563.175 516.875 565.723 513.01 568.295C510.837 569.739 508.688 571.224 506.449 572.552C502.277 575.016 498.063 577.406 493.841 579.771C490.589 581.597 487.354 583.439 484.011 585.09C480.312 586.916 476.513 588.551 472.755 590.243C471.569 590.774 470.3 591.148 469.163 591.77C468.002 592.409 467.123 592.202 466.285 591.306C464.278 589.165 462.246 587.049 460.288 584.866C456.539 580.692 452.814 576.485 449.107 572.262C445.523 568.179 441.989 564.055 438.406 559.972C435.694 556.877 432.89 553.848 430.219 550.712C426.661 546.538 423.218 542.272 419.685 538.09C417.76 535.817 415.761 533.601 413.754 531.394C413.447 531.054 412.933 530.921 412.559 530.63C411.838 530.083 411.249 530.357 410.892 530.995C410.436 531.817 409.938 532.697 409.797 533.609C409.54 535.319 409.465 537.061 409.44 538.796C409.374 544.098 409.366 549.4 409.333 554.695C409.308 558.42 409.283 562.155 409.241 565.88C409.175 573.216 409.15 580.56 409.017 587.895C408.935 592.384 408.669 596.874 408.487 601.354C408.487 601.413 408.487 601.479 408.495 601.537C408.935 604.367 408.346 604.118 405.973 604.964C402.904 606.068 399.727 606.873 396.484 607.404C392.511 608.059 388.562 608.897 384.589 609.553C381.611 610.043 378.609 610.374 375.614 610.789C371.068 611.412 366.523 612.051 361.977 612.681C361.737 612.714 361.505 612.781 361.264 612.806C355.126 613.445 348.988 614.142 342.841 614.689C338.503 615.071 334.156 615.295 329.81 615.511C325.165 615.735 320.52 615.909 315.875 616.034C310.873 616.166 305.863 616.216 300.861 616.299C297.908 616.349 294.955 616.465 292.01 616.399C289.903 616.349 287.805 616.017 285.698 615.876C283.881 615.752 282.048 615.843 280.248 615.619C278.888 615.453 277.42 615.818 276.316 615.162C275.57 610.308 274.857 605.661 274.151 601.006C273.961 599.753 273.836 598.483 273.687 597.222C273.314 594.036 272.907 590.857 272.584 587.671C271.97 581.638 271.389 575.606 270.834 569.573C270.493 565.831 270.162 562.088 269.954 558.337C269.639 552.786 269.374 547.235 269.191 541.683C269.034 536.738 269 531.792 268.942 526.846C268.917 524.681 269 522.507 268.984 520.332C268.967 518.25 268.793 516.159 268.851 514.076C268.917 511.661 269.208 509.255 269.316 506.848C269.415 504.732 269.34 502.608 269.448 500.492C269.556 498.442 269.822 496.409 269.963 494.36C270.095 492.484 270.145 490.601 270.253 488.725C270.352 487.041 270.485 485.348 270.61 483.663C270.759 481.747 270.883 479.821 271.082 477.913C271.24 476.411 271.522 474.926 271.688 473.424C271.862 471.797 271.945 470.163 272.094 468.528C272.293 466.445 272.501 464.362 272.733 462.288C273.032 459.632 273.33 456.969 273.695 454.322C274.085 451.492 274.566 448.679 274.981 445.858C275.62 441.526 276.184 437.186 276.889 432.863C277.386 429.826 278.067 426.83 278.647 423.81C279.162 421.129 279.643 418.449 280.165 415.777C280.265 415.279 280.456 414.806 280.663 414.143C282.745 414.856 284.669 415.454 286.561 416.167C295.527 419.561 304.652 422.416 314.05 424.341C321.664 425.901 329.329 427.195 337.076 427.934C342.493 428.448 347.909 429.021 353.342 429.303C357.598 429.527 361.878 429.336 366.15 429.361C372.686 429.403 379.206 429.046 385.692 428.299C390.006 427.801 394.344 427.253 398.574 426.316C403.651 425.187 408.644 423.652 413.654 422.225C422.015 419.843 430.078 416.624 437.958 412.989C441.749 411.238 445.482 409.338 449.148 407.338C452.532 405.496 455.85 403.521 459.085 401.43C463.34 398.667 467.322 395.522 471.179 392.227C474.315 389.547 477.326 386.751 479.797 383.432C480.403 382.627 480.901 382.627 481.655 383.432C484.94 386.942 488.242 390.435 491.485 393.978C495.491 398.368 499.481 402.774 503.421 407.222C507.361 411.67 511.268 416.151 515.117 420.673C521.579 428.258 528.007 435.867 534.394 443.518C539.968 450.197 545.459 456.952 550.992 463.665C554.965 468.478 558.98 473.266 562.92 478.096C567.93 484.236 572.891 490.418 577.867 496.575C580.621 499.977 583.375 503.38 586.204 506.881C585.831 508.524 584.445 509.603 583.375 510.856C581.965 512.499 580.431 514.034 578.888 515.561C575.96 518.465 573.015 521.361 570.029 524.208C567.092 526.996 564.156 529.792 561.087 532.431C557.844 535.219 554.435 537.816 550.992 540.58L550.984 540.613Z" fill="#0F6CBD"/>
<path d="M550.984 540.613C545.924 544.588 541.013 548.529 535.995 552.338C532.262 555.168 528.422 557.856 524.573 560.528C520.757 563.175 516.875 565.723 513.01 568.295C510.837 569.739 508.688 571.224 506.449 572.552C502.277 575.016 498.063 577.406 493.841 579.771C490.589 581.597 487.354 583.439 484.011 585.09C480.312 586.916 476.513 588.551 472.755 590.243C471.569 590.774 470.3 591.148 469.163 591.77C468.002 592.409 467.123 592.202 466.285 591.306C464.278 589.165 462.246 587.049 460.288 584.866C456.539 580.692 452.814 576.485 449.107 572.262C445.523 568.179 441.989 564.055 438.406 559.972C435.694 556.877 432.89 553.848 430.219 550.712C426.661 546.538 423.218 542.272 419.685 538.09C417.76 535.817 415.761 533.601 413.754 531.394C413.447 531.054 412.933 530.921 412.559 530.63C411.838 530.083 411.249 530.357 410.892 530.995C410.436 531.817 409.938 532.697 409.797 533.609C409.54 535.319 409.465 537.061 409.44 538.796C409.374 544.098 409.366 549.4 409.333 554.695C409.308 558.42 409.283 562.155 409.241 565.88C409.175 573.216 409.15 580.56 409.017 587.895C408.935 592.384 408.669 596.874 408.487 601.354C408.487 601.413 408.487 601.479 408.495 601.537C408.935 604.367 408.346 604.118 405.973 604.964C402.904 606.068 399.727 606.873 396.484 607.404C392.511 608.059 388.562 608.897 384.589 609.553C381.611 610.043 378.609 610.374 375.614 610.789C371.068 611.412 366.523 612.051 361.977 612.681C361.737 612.714 361.505 612.781 361.264 612.806C355.126 613.445 348.988 614.142 342.841 614.689C338.503 615.071 334.156 615.295 329.81 615.511C325.165 615.735 320.52 615.909 315.875 616.034C310.873 616.166 305.863 616.216 300.861 616.299C297.908 616.349 294.955 616.465 292.01 616.399C289.903 616.349 287.805 616.017 285.698 615.876C283.881 615.752 282.048 615.843 280.248 615.619C278.888 615.453 277.42 615.818 276.316 615.162C275.57 610.308 274.857 605.661 274.151 601.006C273.961 599.753 273.836 598.483 273.687 597.222C273.314 594.036 272.907 590.857 272.584 587.671C271.97 581.638 271.389 575.606 270.834 569.573C270.493 565.831 270.162 562.088 269.954 558.337C269.639 552.786 269.374 547.235 269.191 541.683C269.034 536.738 269 531.792 268.942 526.846C268.917 524.681 269 522.507 268.984 520.332C268.967 518.25 268.793 516.159 268.851 514.076C268.917 511.661 269.208 509.255 269.316 506.848C269.415 504.732 269.34 502.608 269.448 500.492C269.556 498.442 269.822 496.409 269.963 494.36C270.095 492.484 270.145 490.601 270.253 488.725C270.352 487.041 270.485 485.348 270.61 483.663C270.759 481.747 270.883 479.821 271.082 477.913C271.24 476.411 271.522 474.926 271.688 473.424C271.862 471.797 271.945 470.163 272.094 468.528C272.293 466.445 272.501 464.362 272.733 462.288C273.032 459.632 273.33 456.969 273.695 454.322C274.085 451.492 274.566 448.679 274.981 445.858C275.62 441.526 276.184 437.186 276.889 432.863C277.386 429.826 278.067 426.83 278.647 423.81C279.162 421.129 279.643 418.449 280.165 415.777C280.265 415.279 280.456 414.806 280.663 414.143C282.745 414.856 284.669 415.454 286.561 416.167C295.527 419.561 304.652 422.416 314.05 424.341C321.664 425.901 329.329 427.195 337.076 427.934C342.493 428.448 347.909 429.021 353.342 429.303C357.598 429.527 361.878 429.336 366.15 429.361C372.686 429.403 379.206 429.046 385.692 428.299C390.006 427.801 394.344 427.253 398.574 426.316C403.651 425.187 408.644 423.652 413.654 422.225C422.015 419.843 430.078 416.624 437.958 412.989C441.749 411.238 445.482 409.338 449.148 407.338C452.532 405.496 455.85 403.521 459.085 401.43C463.34 398.667 467.322 395.522 471.179 392.227C474.315 389.547 477.326 386.751 479.797 383.432C480.403 382.627 480.901 382.627 481.655 383.432C484.94 386.942 488.242 390.435 491.485 393.978C495.491 398.368 499.481 402.774 503.421 407.222C507.361 411.67 511.268 416.151 515.117 420.673C521.579 428.258 528.007 435.867 534.394 443.518C539.968 450.197 545.459 456.952 550.992 463.665C554.965 468.478 558.98 473.266 562.92 478.096C567.93 484.236 572.891 490.418 577.867 496.575C580.621 499.977 583.375 503.38 586.204 506.881C585.831 508.524 584.445 509.603 583.375 510.856C581.965 512.499 580.431 514.034 578.888 515.561C575.96 518.465 573.015 521.361 570.029 524.208C567.092 526.996 564.156 529.792 561.087 532.431C557.844 535.219 554.435 537.816 550.992 540.58L550.984 540.613Z" fill="#0F6CBD"/>
<path d="M409.98 212.401C409.183 219.703 408.387 226.848 407.599 234C406.819 241.087 406.023 248.174 405.277 255.268C405.16 256.33 404.845 256.911 403.742 257.343C392.428 261.782 381.155 266.305 369.866 270.811C367.618 271.707 365.387 272.628 363.147 273.549C362.591 273.781 362.019 274.005 361.513 274.329C360.692 274.843 360.41 275.623 360.692 276.329C361.007 277.1 361.861 277.54 362.79 277.341C363.197 277.258 363.595 277.076 363.985 276.918C374.826 272.603 385.659 268.28 396.501 263.956C396.716 263.873 396.94 263.807 397.363 263.666C404.09 281.673 411.846 299.165 421.31 316.018C420.431 316.508 419.776 316.931 419.079 317.255C415.396 318.939 411.672 320.532 408.014 322.292C403.385 324.515 398.823 326.905 394.211 329.154C385.56 333.369 376.817 337.386 367.585 340.174C364.358 341.145 361.015 341.734 357.722 342.497C352.795 343.642 347.876 343.144 342.974 342.323C337.657 341.427 333.286 338.705 329.387 335.112C326.044 332.033 323.688 328.225 321.548 324.275C320.279 321.926 318.944 319.603 318.106 317.064C317.476 315.164 316.878 313.247 316.414 311.305C315.012 305.413 314.498 299.397 314.058 293.389C313.768 289.415 313.718 285.423 313.569 281.44C313.461 278.478 313.303 275.524 313.262 272.561C313.187 267.309 313.187 262.064 313.162 256.812C313.146 253.493 313.162 250.165 313.121 246.846C313.096 244.921 312.913 242.987 312.955 241.062C313.013 238.581 313.245 236.1 313.361 233.619C313.419 232.374 313.361 231.121 313.411 229.876C313.494 227.984 313.569 226.092 313.751 224.217C313.95 222.109 314.282 220.018 314.539 217.911C314.829 215.512 314.979 213.098 315.402 210.725C315.941 207.712 316.596 204.717 317.384 201.754C318.031 199.306 318.927 196.917 319.723 194.502C320.918 190.909 322.486 187.482 324.427 184.245C326.094 181.466 327.91 178.769 329.71 176.072C331.925 172.753 334.696 169.898 337.532 167.118C342.501 162.247 347.818 157.783 353.931 154.414C358.319 151.999 362.956 150.083 367.8 148.697C370.023 148.058 372.18 147.203 374.395 146.548C376.883 145.809 379.413 145.187 381.927 144.523C382.731 144.307 383.544 144.108 384.357 143.925C386.149 143.51 387.932 143.096 389.732 142.714C392.726 142.083 395.713 141.419 398.724 140.897C401.519 140.407 404.348 140.108 407.151 139.652C411.921 138.88 416.674 138.067 421.435 137.237C424.073 136.772 426.661 136.142 429.199 135.246C431.944 134.275 434.275 132.673 436.241 130.632C439.344 127.429 442.255 124.043 445.225 120.716C446.353 119.454 446.444 119.388 447.97 120.069C450.11 121.023 452.333 121.844 454.349 123.031C457.501 124.89 460.321 124.251 463 122.267C466.799 119.454 470.499 116.525 474.248 113.646C474.721 113.289 475.21 112.957 475.716 112.65C476.811 111.995 477.06 112.16 477.409 113.38C477.832 114.866 478.23 116.392 478.902 117.778C481.423 122.973 485.455 126.616 490.772 128.84C491.659 129.213 492.547 129.595 493.509 130.001C493.525 130.001 493.658 130.001 493.758 129.96C494.513 129.603 495.533 129.329 495.433 128.333C495.334 127.321 494.388 126.89 493.492 126.458C491.402 125.454 489.212 124.541 487.354 123.189C484.235 120.923 482.153 117.762 480.926 114.111C480.544 112.99 480.602 111.729 480.428 110.534C479.864 106.568 480.337 102.668 481.722 98.9583C482.792 96.0789 484.451 93.4235 486.997 91.5897C493.119 87.1834 501.522 88.9509 504.441 95.6806C506.582 100.626 506.747 105.522 505.329 110.625C504.74 112.75 503.753 114.65 502.592 116.484C501.314 118.508 501.804 119.737 504.159 120.483C507.419 121.521 510.688 122.541 513.931 123.612C515.648 124.184 516.784 123.637 517.257 121.853C517.655 120.367 517.962 118.865 518.393 117.388C518.626 116.592 518.957 115.812 519.364 115.09C520.185 113.629 521.396 113.148 523.138 113.347C526.473 113.737 529.533 114.965 532.644 116.052C533.664 116.409 534.651 116.874 535.672 117.231C537.132 117.745 538.052 117.363 538.467 115.878C539.661 111.621 540.873 107.364 541.528 102.983C541.835 100.95 542.175 98.9168 542.399 96.8755C542.523 95.7055 542.531 94.5023 542.449 93.324C542.291 91.0005 542.697 90.2288 544.813 89.3077C544.871 89.2828 544.945 89.2911 544.987 89.2579C546.82 87.9302 548.338 88.4613 549.955 89.8305C553.879 93.1497 557.91 96.3527 561.917 99.5724C562.97 100.419 563.269 101.332 563.061 102.709C562.107 108.991 561.228 115.289 560.432 121.604C559.727 127.197 559.221 132.806 558.524 138.399C557.827 143.992 557.18 149.601 555.687 155.061C555.654 155.177 555.679 155.31 555.646 155.418C554.667 158.995 553.746 159.775 550.005 160.057C548.869 160.14 547.716 160.082 546.571 160.048C544.804 159.99 544.29 160.372 543.485 161.94C541.221 166.322 539.031 170.761 536.037 174.711C534.162 177.184 531.698 179.059 528.787 180.063C527.227 180.603 525.403 180.752 523.76 180.553C519.497 180.022 515.283 179.192 511.036 178.512C508.431 178.097 505.835 177.624 503.214 177.391C501.314 177.225 499.357 177.234 497.482 177.524C494.479 177.98 491.56 178.943 488.922 180.462C484.21 183.192 479.598 186.088 474.953 188.926C473.261 189.963 471.577 191.017 469.918 192.112C468.666 192.942 467.894 194.029 467.679 195.63C466.75 202.46 465.738 209.281 464.701 216.093C463.822 221.894 462.843 227.677 462.005 233.478C461.823 234.731 461.3 235.328 460.122 235.768C449.53 239.701 438.945 243.676 428.378 247.692C422.555 249.9 416.773 252.215 410.975 254.472C410.361 254.712 409.739 254.936 408.926 255.235C408.926 254.712 408.885 254.331 408.926 253.957C410.486 239.535 412.037 225.113 413.613 210.7C414.169 205.596 414.774 200.493 415.363 195.39C415.421 194.908 415.488 194.427 415.488 193.946C415.504 193.05 414.89 192.236 414.102 192.037C413.381 191.855 412.452 192.419 412.17 193.324C411.97 193.954 411.912 194.626 411.838 195.282C411.216 200.925 410.602 206.575 409.988 212.376L409.98 212.401ZM552.427 120.392C551.623 119.222 550.511 118.367 549.093 118.608C547.459 118.882 546.505 120.093 546.198 121.728C545.916 123.272 545.584 124.815 545.468 126.367C545.352 127.918 545.36 129.503 545.551 131.047C545.717 132.441 546.488 133.594 548.014 133.827C549.59 134.067 550.378 132.914 551.158 131.794C552.693 129.578 553.24 127.105 553.365 124.45C553.423 123.072 553.182 121.836 552.427 120.392Z" fill="#CECECE"/>
<path d="M529.044 26.027C532.52 26.9315 535.862 27.7696 539.172 28.7404C545.368 30.566 551.349 32.9558 557.097 35.885C560.822 37.7853 564.446 39.9096 568.03 42.0671C570.029 43.2703 571.903 44.7141 573.77 46.1331C576.416 48.1412 578.996 50.2323 581.625 52.2653C583.375 53.6262 583.939 55.5016 583.607 57.5429C583.243 59.8166 582.77 62.1234 581.982 64.2726C579.576 70.8446 577.055 77.3669 574.475 83.8726C572.567 88.6854 569.722 92.9921 566.885 97.2822C565.989 98.6431 565.608 98.6431 564.355 97.5145C563.061 96.3445 561.85 95.0666 560.473 94.0045C556.823 91.1748 553.066 88.4863 549.441 85.6317C548.305 84.7439 547.168 84.9264 546.057 85.2085C544.895 85.5073 543.809 86.1213 542.714 86.6441C540.134 87.8722 539.18 90.0712 539.155 92.7763C539.089 99.5143 537.828 106.053 536.028 112.509C535.738 113.555 535.514 113.596 534.336 113.214C531.242 112.219 528.156 111.148 525.013 110.31C523.511 109.912 521.919 109.696 520.293 110.211C518.095 110.908 516.9 112.542 516.071 114.467C515.357 116.102 514.918 117.853 514.304 119.703C513.043 120.259 511.849 119.347 510.588 119.023C509.186 118.674 507.826 118.152 506.275 117.654C506.366 117.114 506.308 116.467 506.573 116.003C508.398 112.841 509.128 109.339 509.593 105.813C510.132 101.738 509.161 97.8464 507.378 94.1787C505.213 89.731 501.629 87.0175 496.81 86.0466C493.384 85.3579 490.199 86.1628 487.097 87.7643C482.145 90.3284 479.673 94.6932 478.13 99.6969C477.359 102.186 477.102 104.825 476.529 107.837C474.24 109.588 471.552 111.629 468.873 113.696C466.849 115.256 464.883 116.882 462.834 118.409C461.764 119.206 460.636 119.986 459.425 120.525C458.463 120.956 457.36 121.006 456.298 120.475C453.519 119.098 450.707 117.778 447.987 116.467C447.24 115.032 447.987 113.721 448.244 112.443C448.874 109.289 449.314 106.136 449.546 102.917C449.72 100.427 448.949 98.3775 447.821 96.3445C446.543 94.0293 445.258 91.7142 443.872 89.4571C442.769 87.6648 442.114 85.7728 441.94 83.69C441.699 80.8604 441.342 78.0307 441.201 75.2011C441.135 73.8153 441.26 72.3715 441.583 71.0272C442.711 66.3471 443.955 61.6919 445.191 57.0367C446.037 53.842 446.958 50.6638 447.837 47.4691C448.07 46.631 448.31 45.7846 448.468 44.9299C448.766 43.3035 449.596 42.2496 451.056 41.3368C455.892 38.3081 461.034 35.9763 466.277 33.769C470.723 31.902 475.318 30.5245 479.897 29.0806C482.601 28.226 485.421 27.6866 488.208 27.1223C491.916 26.3755 495.624 25.6287 499.373 25.1059C502.243 24.6993 505.155 24.6412 508.05 24.4337C508.954 24.3674 509.858 24.2844 510.762 24.2761C516.875 24.2346 522.947 24.6993 529.085 26.0104L529.044 26.027Z" fill="#262626"/>
<path d="M598.439 321.371C601.989 325.246 606.028 328.275 610.607 330.523C614.97 332.664 619.524 334.332 624.211 335.643C625.936 336.124 627.661 336.606 629.395 337.062C629.851 337.178 630.332 337.253 630.805 337.253C631.61 337.253 631.975 336.639 632.132 335.992C632.273 335.378 632.066 334.764 631.419 334.49C630.714 334.191 629.992 333.925 629.262 333.693C626.21 332.731 623.174 331.702 620.096 330.847C616.563 329.868 613.311 328.283 610.11 326.573C605.108 323.901 601.018 320.209 598.206 315.23C596.888 312.89 596.008 310.384 595.328 307.753C594.606 304.982 594.582 302.169 594.25 299.381C594.076 297.895 594.275 296.319 594.582 294.842C595.262 291.564 596.141 288.369 598.057 285.482C599.417 283.432 601.217 282.254 603.349 281.324C606.128 280.113 608.94 278.984 611.652 277.632C615.932 275.491 619.715 272.694 621.921 268.271C622.461 267.193 622.792 265.931 622.875 264.728C622.95 263.625 623.331 262.969 624.153 262.264C626.923 259.899 630.117 258.389 633.683 258.181C641.174 257.741 647.287 260.554 651.65 266.77C654.487 270.819 655.988 275.416 656.776 280.254C657.075 282.096 657.465 283.963 657.49 285.813C657.531 288.934 657.556 292.087 657.175 295.174C656.163 303.356 653.657 311.147 650.381 318.682C648.531 322.922 646.25 326.93 643.513 330.698C641.34 333.685 638.851 336.249 635.782 338.282C633.907 339.527 631.767 340.041 629.636 340.547C626.036 341.402 622.361 341.643 618.67 341.643C616.588 341.643 614.498 341.809 612.415 341.784C611.014 341.767 609.62 341.526 608.218 341.427C607.165 341.352 606.103 341.327 605.041 341.327C603.623 341.327 602.205 341.41 600.786 341.377C599.434 341.344 598.09 341.186 596.738 341.095C595.627 341.02 594.507 340.929 593.387 340.904C591.206 340.854 589.024 340.879 586.842 340.805C584.138 340.713 581.442 340.564 578.738 340.439C576.092 340.315 573.455 340.215 570.808 340.058C568.461 339.925 566.122 339.693 563.774 339.576C562.48 339.51 561.178 339.626 559.876 339.576C558.59 339.527 557.304 339.369 556.01 339.269C555.015 339.195 554.02 339.095 553.024 339.062C550.909 339.004 548.786 339.045 546.67 338.929C544.564 338.821 542.465 338.531 540.366 338.398C539.072 338.323 537.77 338.415 536.468 338.398C535.29 338.39 534.104 338.34 532.926 338.299C532.229 338.274 531.516 338.141 530.827 338.199C530.031 338.274 529.475 338.066 529.359 337.253C529.094 335.353 528.828 333.444 528.662 331.536C528.455 329.121 528.322 326.706 528.19 324.291C528.049 321.827 527.8 319.346 527.866 316.881C527.941 313.894 528.389 310.923 528.513 307.936C528.762 302.26 530.023 296.75 531.101 291.207C531.433 289.506 532.022 287.847 532.436 286.162C532.611 285.448 533.117 285.357 533.672 285.399C537.422 285.722 541.163 286.112 544.912 286.403C547.782 286.627 550.66 286.718 553.53 286.917C556.881 287.158 560.233 287.415 563.6 287.075C564.861 286.95 566.006 286.618 567.175 286.104C568.677 285.457 569.904 284.494 571.008 283.382C573.571 280.818 575.495 277.773 577.312 274.653C579.609 270.703 581.99 266.803 585.117 263.442C588.651 259.642 592.914 257.011 597.891 255.443C602.097 254.115 606.319 253.725 610.632 254.663C613.444 255.277 615.916 256.521 617.782 258.837C619.964 261.533 620.105 265.226 618.23 268.164C617.185 269.807 615.767 271.076 614.207 272.221C611.238 274.387 607.945 275.872 604.519 277.142C602.287 277.964 600.131 279.009 598.231 280.453C595.975 282.171 594.557 284.561 593.453 287.1C591.546 291.506 590.758 296.12 590.94 300.941C591.114 305.604 592.159 310.019 594.009 314.276C595.112 316.823 596.705 319.055 598.422 321.371H598.439Z" fill="#0F6CBD"/>
<path d="M300.869 361.699C310.79 366.819 320.727 371.615 331.145 375.283C335.591 376.851 340.129 378.204 344.699 379.365C350.887 380.934 357.125 382.336 363.396 383.573C367.543 384.394 371.774 384.834 375.979 385.357C380.574 385.929 385.22 386.029 389.823 385.796C394.219 385.572 398.607 384.933 402.962 384.245C405.89 383.78 408.76 382.917 411.647 382.195C417.022 380.842 422.298 379.208 427.507 377.258C433.952 374.843 440.09 371.872 445.872 368.155C448.194 366.661 450.21 364.827 451.686 362.504C452.192 361.699 452.706 361.633 453.453 361.691C456.588 361.923 459.16 363.508 461.549 365.309C465.074 367.956 468.5 370.744 471.834 373.631C474.049 375.548 476.023 377.731 478.097 379.78C477.276 381.863 475.99 383.407 474.605 384.792C470.723 388.692 466.443 392.161 462.022 395.422C458.446 398.061 454.772 400.617 450.898 402.791C444.403 406.434 437.734 409.769 430.816 412.582C425.176 414.873 419.477 417.014 413.654 418.781C409.565 420.026 405.409 421.08 401.262 422.15C396.243 423.445 391.125 424.1 385.991 424.764C381.13 425.395 376.245 425.527 371.367 425.843C367.228 426.108 363.056 425.934 358.892 425.967C357.175 425.984 355.449 426.125 353.732 426.058C351.683 425.984 349.651 425.743 347.602 425.585C345.91 425.461 344.21 425.378 342.518 425.229C340.369 425.046 338.213 424.872 336.081 424.59C332.572 424.133 329.072 423.635 325.588 423.079C322.618 422.606 319.64 422.109 316.696 421.495C312.673 420.656 308.658 419.76 304.668 418.765C302.296 418.175 299.973 417.387 297.651 416.615C293.785 415.329 289.937 413.976 286.079 412.657C285.034 412.3 283.997 411.91 282.936 411.595C281.509 411.18 281.202 410.724 281.526 409.23C282.081 406.674 282.645 404.118 283.243 401.571C284.47 396.368 285.69 391.165 286.967 385.971C288.294 380.552 289.572 375.117 291.098 369.756C291.902 366.935 292.906 364.08 294.358 361.55C296.042 358.612 296.017 358.786 298.596 360.305C299.318 360.728 300.023 361.193 300.853 361.707L300.869 361.699Z" fill="white"/>
<path d="M353.973 378.278C350.348 377.366 346.831 376.627 343.38 375.656C339.631 374.602 335.94 373.374 332.24 372.146C329.802 371.333 327.355 370.52 325.007 369.483C319.964 367.259 314.97 364.91 309.969 362.587C307.928 361.641 305.838 360.753 303.897 359.624C301.309 358.123 298.812 356.463 296.34 354.778C295.561 354.247 294.905 353.484 294.325 352.721C293.644 351.824 293.205 350.837 293.097 349.617C292.84 346.68 293.188 343.833 293.761 340.971C294.656 336.465 295.386 331.926 296.232 327.412C296.846 324.175 297.576 320.964 298.19 317.728C298.978 313.562 299.708 309.388 300.438 305.214C301.102 301.447 301.757 297.671 302.387 293.896C303.192 289.133 303.98 284.37 304.76 279.607C305.216 276.818 305.689 274.039 306.095 271.242C306.725 266.869 307.281 262.496 307.895 258.123C308.177 256.082 308.525 254.049 308.849 252.016C308.874 251.866 308.99 251.733 309.38 251.576C309.463 252.48 309.612 253.385 309.629 254.298C309.67 258.521 309.678 262.745 309.703 266.969C309.728 270.952 309.662 274.935 309.819 278.918C310.027 284.179 310.367 289.431 310.748 294.684C311.014 298.344 311.395 301.995 311.835 305.646C312.706 312.898 315.087 319.661 318.595 326.051C320.785 330.05 323.224 333.843 326.517 337.062C332.141 342.555 338.802 345.676 346.665 346.406C354.413 347.119 361.828 345.684 369.128 343.344C381.155 339.493 392.436 333.942 403.659 328.241C408.022 326.026 412.559 324.15 416.997 322.084C419.013 321.147 420.995 320.126 423.069 319.105C423.318 319.503 423.55 319.852 423.757 320.201C424.985 322.25 426.686 323.03 428.992 322.391C430.966 321.844 432.923 321.205 434.839 320.466C439.966 318.491 445.059 316.442 450.16 314.409C450.898 314.118 451.628 313.786 452.64 313.355C452.59 314.491 452.582 315.305 452.516 316.11C452.06 321.487 451.52 326.864 451.139 332.241C450.865 336.075 450.799 339.925 450.616 343.759C450.459 346.87 450.243 349.99 450.085 353.102C450.019 354.364 450.019 355.625 450.036 356.894C450.06 359.508 448.808 361.55 446.983 363.209C443.499 366.396 439.277 368.429 435.08 370.462C430.659 372.603 426.105 374.445 421.377 375.822C418.266 376.727 415.222 377.872 412.103 378.768C410.179 379.324 408.163 379.573 406.206 380.038C401.56 381.125 396.849 381.755 392.104 382.112C389.881 382.278 387.633 382.237 385.402 382.345C380.657 382.56 375.987 382.004 371.284 381.448C365.486 380.768 359.788 379.623 353.973 378.287V378.278Z" fill="#CECECE"/>
<path d="M470.59 247.385C469.221 243.95 467.911 240.656 466.517 237.17C467.836 236.697 469.047 236.2 470.3 235.834C472.357 235.229 473.618 233.884 474.605 232.001C476.09 229.171 477.831 226.474 479.507 223.744C482.195 219.355 485.322 215.288 488.797 211.505C492.439 207.538 496.337 203.829 500.742 200.709C503.123 199.024 505.686 197.73 508.39 196.626C512.214 195.066 516.129 194.892 519.969 196.087C522.259 196.8 524.1 196.693 525.751 195.074C527.294 193.564 529.276 193.183 531.209 192.859C537.314 191.847 542.216 194.236 546.43 198.502C551.141 203.273 554.235 209.057 557.056 215.04C560.125 221.553 562.422 228.341 564.314 235.27C565.417 239.328 566.362 243.402 566.993 247.576C567.864 253.368 567.715 259.052 566.197 264.703C565.193 268.446 563.086 271.483 559.909 273.657C558.814 274.404 557.437 274.976 556.135 275.142C553.174 275.524 550.212 276.088 547.168 275.698C545.368 275.466 543.527 275.499 541.71 275.433C539.446 275.358 537.181 275.325 534.925 275.242C531.159 275.117 527.484 275.599 523.934 276.852C521.164 277.831 518.41 278.876 515.697 280.013C514.404 280.553 513.217 281.357 511.998 282.071C509.377 283.614 506.839 285.307 504.151 286.71C501.074 288.311 498.046 290.07 494.579 290.809C492.538 291.24 490.622 290.875 488.739 290.261C488.316 290.12 487.935 289.548 487.727 289.091C485.454 284.021 483.082 278.992 480.992 273.839C477.45 265.11 474.091 256.297 470.598 247.385H470.59Z" fill="#0F6CBD"/>
<path d="M429.556 318.591C428.709 318.798 428.004 318.947 427.167 319.113C416.383 301.132 407.964 282.129 400.681 262.612C402.398 261.251 457.476 239.975 463.175 238.465C463.78 239.925 464.419 241.402 465.016 242.904C469.951 255.368 474.845 267.848 479.831 280.295C481.083 283.432 482.585 286.477 484.078 289.514C484.658 290.693 484.608 291.622 483.854 292.701C481.349 296.31 477.873 298.675 473.983 300.451C467.148 303.571 460.28 306.608 453.362 309.537C447.895 311.853 442.346 313.994 436.805 316.143C434.474 317.047 432.061 317.744 429.547 318.607L429.556 318.591Z" fill="#0F6CBD"/>
<path d="M496.03 294.111C499.506 292.941 502.65 291.481 505.636 289.606C508.73 287.664 511.932 285.888 515.117 284.112C515.706 283.78 516.494 283.565 517.149 283.631C520.791 283.988 524.415 284.453 528.049 284.892C528.455 284.942 528.845 285.1 529.351 285.233C524.341 302.393 523.627 319.827 525.734 337.709C524.109 337.651 522.698 337.61 521.288 337.56C520.285 337.527 519.273 337.477 518.269 337.46C516.013 337.419 513.757 337.452 511.509 337.344C509.385 337.245 507.278 336.962 505.155 336.838C503.794 336.763 502.426 336.879 501.057 336.83C499.821 336.788 498.585 336.614 497.349 336.531C496.105 336.448 494.861 336.423 493.617 336.357C492.09 336.274 490.564 336.166 489.03 336.083C487.968 336.033 486.898 336 485.828 335.983C482.626 335.917 479.424 335.9 476.231 335.768C474.115 335.676 472 335.361 469.885 335.253C467.753 335.137 465.621 335.203 463.49 335.095C461.549 334.996 459.616 334.755 457.683 334.598C457.327 334.564 456.97 334.614 456.613 334.639C454.88 334.747 454.241 334.008 454.407 332.241C454.614 330.067 454.705 327.893 454.905 325.719C455.12 323.437 455.427 321.163 455.651 318.889C455.825 317.188 455.999 315.479 456.058 313.769C456.107 312.259 456.29 311.819 457.658 311.247C461.499 309.645 465.381 308.152 469.172 306.451C472.481 304.965 475.741 303.364 478.926 301.638C482.385 299.754 485.123 297.024 487.354 293.564C490.133 294.369 492.961 294.891 496.022 294.145L496.03 294.111Z" fill="#CECECE"/>
<path d="M476.521 222.068C474.829 224.939 473.137 227.669 471.602 230.482C471.038 231.511 470.416 232.233 469.288 232.557C468.135 232.889 467.007 233.303 465.58 233.776C465.622 233.071 465.613 232.565 465.688 232.075C467.189 222.333 468.707 212.6 470.217 202.858C470.491 201.066 470.98 199.265 470.955 197.481C470.922 195.307 472.274 194.477 473.842 193.481C474.787 194.825 475.078 196.303 475.492 197.705C476.571 201.389 477.691 205.057 478.578 208.791C479.184 211.363 479.457 214.019 479.797 216.649C479.856 217.122 479.632 217.72 479.358 218.135C478.487 219.437 477.516 220.682 476.521 222.068Z" fill="#CECECE"/>
<g style="mix-blend-mode:multiply">
<path d="M479.499 135.428C471.453 166.869 469.52 180.196 467.363 197.863C467.43 197.373 470.225 196.012 470.283 195.498L493.633 179.856L503.488 180.37L504.284 177.698C469.794 167.633 489.627 154.082 479.499 135.42V135.428Z" fill="#7F7F7F"/>
</g>
<g style="mix-blend-mode:multiply">
<path d="M456.132 310.973L476.985 301.19L483.671 295.954L486.068 291.531L492.231 293.099L498.759 291.688L511.177 284.809L516.519 281.781L531.433 283.897L529.011 293.116L512.57 293.273C512.57 293.273 482.667 296.02 473.452 329.013L453.594 330.208L456.132 310.965V310.973Z" fill="#7F7F7F"/>
</g>
</g>
</svg>
