<?xml version="1.0" encoding="utf-8"?>
<!-- Generator: Adobe Illustrator 28.1.0, SVG Export Plug-In . SVG Version: 6.00 Build 0)  -->
<svg version="1.1" id="Слой_1" xmlns="http://www.w3.org/2000/svg"
	xmlns:xlink="http://www.w3.org/1999/xlink" x="0px" y="0px"
	viewBox="0 0 800 800" style="enable-background:new 0 0 800 800;" xml:space="preserve">
<style type="text/css">
</style>
<path class="st0" d="M436.1,354.4c-0.4,0-0.8,0-1.2,0c-0.9,0.1-1.8,0.1-2.7,0.2c-2,0-4.1,0-6.1,0c-0.4,0-0.9,0-1.3,0
	c-2.3,0-4.5,0-6.8,0c-0.5,0-0.9,0-1.4,0c-6.5,0-13.1,0.1-19.6,0.1c-0.9,0-1.8,0-2,1.1c-0.5,0-0.9,0-1.2,0c-0.4,0-0.9,0-1.3,0.1
	c1,0.3,2,0.6,3,0.8c-1-0.3-2-0.6-3-0.8c0.4,0,0.9,0,1.3-0.1c-0.9-0.1-1.8-0.1-2.7-0.2c-0.1-1.6,0.1-3.2,0.8-4.7
	c0.1-0.2,0.2-0.5,0.2-0.7c0.1-0.6,0.1-1.2,0.2-1.7c0-1.6,0-3.2-0.7-4.8c-0.1-0.4-0.1-0.9-0.2-1.3c-0.2-1.3-0.8-2.6-1.7-3.6
	c-0.4-0.5-0.9-0.9-1.3-1.4c-0.1-0.1-0.2-0.1-0.3-0.2c-1.9-1.8-4.1-3-6.5-4c-3.2-1.4-6.5-2.3-9.9-3.1c-1.1-0.2-2.3-0.4-3.4-0.6
	c-0.8-0.2-1.5-0.3-2.3-0.4c-0.9-0.2-1.8-0.3-2.7-0.5c-0.5-0.1-0.9-0.1-1.4-0.2c-0.1,0-0.2,0-0.4,0c-0.5-0.1-1.1-0.1-1.6-0.2
	c-0.2,0-0.4,0-0.5,0c-0.7-0.1-1.4-0.1-2-0.2c-0.2,0-0.4,0-0.6,0c-0.8-0.1-1.6-0.1-2.5-0.2c-0.3,0-0.7,0-1,0
	c-0.4-0.1-0.8-0.2-1.3-0.2c-1.1,0-2.1,0-3.2,0v0.4c1.9,0,3.7,0,5.6,0c-1.9,0-3.7,0-5.6,0v1.2c0,0.2,0.1,0.4,0.1,0.6
	c0-0.2-0.1-0.4-0.1-0.6v4.4c1.1,0,2.1,0,3.2,0c-1.1,0-2.1,0-3.2,0v35.6c0.1,0.2,0.2,0.4,0.3,0.6c0.6,1.1,1.2,2.2,1.7,3.3
	c0.2,0.3,0.4,0.7,0.6,1c-0.2-0.3-0.4-0.7-0.6-1c-0.6-1.1-1.2-2.2-1.7-3.3c-0.1-0.2-0.2-0.4-0.3-0.6v30.5c0,0,0-0.1,0-0.1
	c0,0,0,0.1,0,0.1v21.1c0.4,0,0.8,0,1.2,0c-0.4,0-0.8,0-1.2,0v56.6c0,0,0,0,0.1,0c0,0,0,0-0.1,0V497c0.4,0,0.8-0.1,1.2-0.1
	c-0.4,0-0.8,0.1-1.2,0.1v6.9c2.9,0,5.8,0,8.7-0.1c0,0,0,0,0,0c2,0,4,0,5.9,0c-2,0-4,0-5.9,0c-2.9,0-5.8,0-8.7,0.1v20
	c0.7,0,1.4,0,2.1,0c6.4-0.3,12.9-0.1,19.3-0.2c1-0.1,2-0.1,3.1-0.2c0.9-0.1,1.7-0.1,2.6-0.2c2.5-0.2,5.1-0.4,7.6-0.7
	c0.6-0.1,1.2-0.1,1.8-0.2c0.1,0,0.1,0,0.2,0c1.4-0.2,2.9-0.4,4.3-0.7c1.3-0.6,2.7-1.2,4-1.8c0.2-0.1,0.3-0.2,0.4-0.4
	c-0.4,0.1-0.7,0.1-1.1,0.2c0.2-0.3,0.3-0.6,0.5-0.8c-0.1,0-0.3,0-0.4,0c0.1,0,0.3,0,0.4,0c0.2-0.3,0.6-0.5,0.6-0.8
	c-0.1-1,0-2-1.2-2.5c-0.2,0.1-0.4,0.2-0.6,0.2c0.2-0.1,0.4-0.2,0.6-0.2c-0.1-0.1-0.2-0.3-0.3-0.4c0-0.1,0-0.1,0-0.2
	c-0.2-0.1-0.5-0.1-0.7-0.2c-0.8-0.3-1.1-0.7-1.1-1.5c0-2.1,0-4.3,0-6.4c0-0.4,0-0.7,0-1.1c0-0.2,0-0.4,0-0.7c0-0.1,0-0.3,0-0.4
	c0-0.4,0-0.9,0-1.3c-0.1-0.5-0.2-0.9-0.2-1.4c0,0,0,0.1,0,0.1v0c0,0,0-0.1,0-0.1c-0.8-0.2-1.5-0.4-2.3-0.6c-0.4-0.1-0.8-0.4-1.2-0.6
	c-0.2-0.1-0.4-0.2-0.6-0.2c-0.4-0.9-1.1-0.9-2-0.8c-0.2-0.3-0.5-0.6-0.7-0.9c-0.4-0.6-0.7-1.2-1-1.7c-0.1-0.1-0.3-0.2-0.4-0.4
	c-2,0.1-3.9,0.2-5.9,0.2c-0.7,0-1.4,0.1-2.1,0.1c-0.2,0-0.5-0.1-0.7-0.1c0.2,0,0.5,0.1,0.7,0.1c0.7,0,1.4,0,2.1-0.1
	c2-0.1,3.9-0.2,5.9-0.2c-0.5-0.1-1-0.3-1.5-0.3c-0.9,0-1.5-0.2-1.7-1.1c-0.1-1.4-0.1-2.8-0.2-4.2c0-0.1,0-0.1-0.1-0.2
	c-0.4-0.1-0.7-0.3-1.1-0.4c-0.1,0-0.3,0-0.4,0c0.1,0,0.3,0,0.4,0c0.4,0.1,0.7,0.3,1.1,0.4c-1-1.1-2.1-2.3-3.1-3.4
	c-0.3-0.3-0.7-0.6-1.2-0.7c-0.7-0.2-0.9-0.7-0.9-1.4c0-0.7-0.1-1.4-0.2-2.1c-0.1-1.7-0.1-3.4-0.2-5.1c0-0.5,0-1-0.5-1.2
	c-0.2-0.1-0.5-0.3-0.7-0.4h0c-0.3-0.1-0.7-0.3-1-0.3c-1.4-0.2-2.6-0.6-3.7-1.5c-0.7-0.6-1.3-1.3-2-1.9c-0.4-0.6-0.8-1.1-1.1-1.7
	c-0.1,0-0.1,0-0.2-0.1c-0.4-0.6-0.7-1.2-1.1-1.8c-0.2-0.3-0.3-0.6-0.5-1c-0.3-0.8-0.5-1.5-0.8-2.3c-0.2-0.5-0.3-1-0.5-1.5
	c-0.2-0.6-0.3-1.2-0.5-1.7c0,0,0,0,0,0c-0.1-0.3-0.1-0.6-0.2-0.9c-0.2-0.6-0.3-1.2-0.5-1.7c0-0.3,0-0.6,0-0.9
	c-0.1-0.4-0.1-0.9-0.2-1.3c0-0.8,0-1.6,0-2.4c1-1.2,2-2.3,3-3.5c1.7-2,3.3-4,5-6.1c0.2-0.3,0.4-0.6,0.6-0.9c0.2-0.2,0.4-0.4,0.6-0.6
	c0.2-0.4,0.3-0.7,0.5-1.1c-0.1-0.1-0.1-0.2-0.2-0.2c0.1,0,0.1,0.1,0.2,0.2c-0.2,0.4-0.3,0.7-0.5,1.1c0.3-0.4,0.6-0.7,0.9-1.1
	c0,0,0,0,0,0c0.1-0.4,0.2-0.8,0.4-1.1c0.5-0.9,1.1-1.7,1.7-2.5c0.6-0.9,1.1-1.8,1.7-2.6c0.4-0.6,0.7-1.3,1.1-1.9
	c0.6-1.1,1.2-2.2,1.8-3.2c0.2-0.5,0.4-1,0.6-1.6c-0.1-0.1-0.2-0.2-0.3-0.3c0.1,0.1,0.2,0.2,0.3,0.3c0.3-0.9,0.6-1.7,0.9-2.6l0,0
	c0.3-1.1,0.7-2.2,1-3.3c0-0.1,0.1-0.3,0.1-0.4c0.8-2.1,1.3-4.3,1.7-6.5c0.2-0.8,0.5-1.5,0.6-2.3c0.3-1.2,0.5-2.3,0.8-3.5
	c0.6-2.9,1.1-5.8,1.7-8.7c0.4-2.1,0.8-4.2,1.2-6.3c1.2-6.7,2.3-13.3,3.4-20c0.3-1.8,0.5-3.6,0.8-5.4c0.1-0.1,0.1-0.3,0.2-0.4
	c0-0.1,0-0.3,0-0.4c0-0.1,0-0.3,0-0.4c0.1-0.4,0.3-0.8,0.4-1.2c0-0.3,0-0.7,0-1c0.1-0.1,0.1-0.3,0.2-0.4c9,0,18,0,27,0
	c0.2,0.2,0.4,0.3,0.6,0.5c0.1,0.1,0.2,0.1,0.3,0.2c0.1,0.2,0.3,0.3,0.4,0.5c0.3,0.5,0.6,1,0.9,1.5c0.1,0.7,0.2,1.5,0.2,2.2
	c0,0.3-0.3,0.7,0,1c-0.1,0.4-0.3,0.7-0.4,1.1c-0.2,0.8-0.4,1.6-0.6,2.5c-0.3,1.3-0.6,2.6-0.9,3.9c-0.1,0.1-0.1,0.2-0.2,0.3
	c-0.9,2.7-1.8,5.5-2.7,8.2c-0.3,0.6-0.5,1.3-0.8,1.9c-1.1,2.9-2.4,5.6-3.8,8.3c-1.7,3.2-3.4,6.3-5.2,9.4c-0.8,1.3-1.7,2.6-2.6,3.9
	c-1.3,1.9-2.7,3.7-4.1,5.6c-0.6,0.9-1.3,1.7-1.9,2.6c-0.3,0.4-0.7,0.7-1,1.1c-0.6,1-1.7,1.6-2.1,2.8c-0.2,0.1-0.4,0.1-0.6,0.3
	c-0.7,0.8-1.4,1.7-2.1,2.5c-0.6,0.6-1.2,1.3-1.7,1.9c-1,1.2-2,2.3-3,3.5c-1.2,1.3-2.5,2.6-3.7,3.9c-1.1,1.2-2.2,2.4-3.2,3.6
	c-1,1.1-2,2.3-2.9,3.5c-1.6,1.8-3.1,3.7-4.7,5.5c-1.2,1.4-2.5,2.8-3.7,4.3c-0.6,0.7-1,1.5-1.1,2.4c0,0.2,0.1,0.3,0.1,0.6
	c2.5-1.6,4.8-3.4,7-5.2c1.9-1.4,3.8-2.8,5.7-4.3c1.3-1,2.6-1.9,3.9-2.9c0.1-0.1,0.2-0.3,0.4-0.4c3.4-2.5,6.7-5.1,10.1-7.6
	c1.7-1.5,3.5-2.9,5.2-4.4c0.8-0.7,1.6-1.4,2.4-2.2c0.7-0.7,1.5-1.4,2.2-2.2c0.6-0.7,1.3-1.3,1.9-2c0.9-1,1.9-2,2.8-3.1
	c0.2-0.3,0.3-0.6,0.5-0.9c0.6-0.7,1.2-1.4,1.7-2.1c2.3-3.2,4.6-6.3,7-9.5c0,0,0,0,0,0c1-1.6,2-3.2,3-4.8c0.8-1.2,1.5-2.5,2.3-3.7
	c0.6-1.2,1.2-2.3,1.7-3.5c0.5-1,1-2,1.6-3c1.1-2.5,2.2-5.1,3.3-7.6c0.4-0.9,0.7-1.9,1.1-2.8c0.2-0.7,0.4-1.3,0.5-2
	c0.4-1.6,0.8-3.2,1.2-4.8c0.3-1,0.6-2.1,0.8-3.1c0-0.3,0-0.5,0-0.8c0.2-1.1,0.4-2.2,0.7-3.3c0.4-2,0.8-4.1,1.1-6.1
	c0.4-2,0.7-4,1.1-6c0-0.2,0-0.5,0.1-0.7c0.2-1.1,0.4-2.2,0.6-3.3C436.9,354.6,436.6,354.4,436.1,354.4z M353,518.2
	C353,518.2,353,518.2,353,518.2C353,518.2,353,518.2,353,518.2c0.1,0.2,0.2,0.3,0.4,0.5C353.2,518.5,353.1,518.3,353,518.2z
	 M379.1,332.8c0.9,0.4,1.9,0.8,2.8,1.1C381,333.6,380.1,333.2,379.1,332.8c-0.9-0.3-1.8-0.6-2.8-0.9
	C377.3,332.3,378.2,332.6,379.1,332.8z M381.7,359.4C381.7,359.4,381.7,359.4,381.7,359.4c0-0.1,0-0.3,0-0.4
	C381.7,359.1,381.7,359.2,381.7,359.4z M376.9,368.7c-0.2-0.2-0.3-0.4-0.5-0.6c0,0,0,0,0,0C376.6,368.3,376.8,368.5,376.9,368.7
	c0,0.5,0.1,1,0.1,1.5C377,369.7,377,369.2,376.9,368.7z M370.8,384.8c0.4-0.1,0.9-0.3,1.3-0.4c1.3-0.2,2.6-0.4,3.9-0.6
	c0.2,0.1,0.4,0.1,0.6,0.2c-0.2-0.1-0.4-0.1-0.6-0.2c-1.3,0.2-2.6,0.4-3.9,0.6C371.7,384.5,371.3,384.7,370.8,384.8z M371.3,362.9
	c0,0.1,0,0.1,0,0.2c-0.1,0.9-0.2,1.7-0.4,2.6c0.1-0.9,0.2-1.7,0.4-2.6C371.3,363,371.2,362.9,371.3,362.9z M371.1,383.5
	c0.2-0.4,0.5-0.7,0.6-1.1C371.6,382.8,371.3,383.2,371.1,383.5c-0.1,0.4-0.1,0.7-0.2,1.1c0,0,0,0,0,0
	C370.9,384.2,371,383.9,371.1,383.5z M371.9,355.9c0,0.3,0,0.6,0,0.8c0,0.2,0,0.3,0,0.5c0-0.2,0-0.3,0-0.5
	C371.9,356.5,371.9,356.2,371.9,355.9z M375.3,366.6c0.2,0.3,0.4,0.5,0.6,0.8c0.1,0.1,0.1,0.1,0.2,0.2c-0.1-0.1-0.1-0.1-0.2-0.2
	C375.7,367.1,375.5,366.9,375.3,366.6z M372.8,359.2c-0.1,0-0.3,0-0.4,0c-0.1-0.4-0.2-0.7-0.2-1.1c0.1,0.4,0.2,0.7,0.2,1.1
	C372.5,359.2,372.7,359.2,372.8,359.2c2,1,4.1,2,6.1,3C376.8,361.2,374.8,360.2,372.8,359.2z M372.8,339.2c0,0.3,0,0.6,0,0.8
	c0,0.2,0,0.4,0,0.6c0,0.1,0,0.2,0,0.3c0,0,0,0,0,0c0-0.1,0-0.2,0-0.2c0-0.2,0-0.4,0-0.6C372.8,339.7,372.8,339.5,372.8,339.2z
	 M373,345.7c0-0.3,0-0.6,0-0.9c0,0,0,0,0,0C373,345.1,373,345.4,373,345.7z M373.2,348.9C373.2,348.9,373.2,348.9,373.2,348.9
	c0.1,2.7,0.1,5.4,0.2,8.1C373.4,354.3,373.3,351.6,373.2,348.9z M373.5,335.7c-0.3,0.1-0.6,0.1-0.9,0.2c0,0,0,0,0,0
	C372.9,335.9,373.2,335.8,373.5,335.7z M371.9,348.5c0.1-0.6,0.1-1.1,0.2-1.7c0.1-1.6,0.3-3.2,0.4-4.7c-0.2,1.6-0.3,3.1-0.4,4.7
	c-0.1,2-0.1,3.9-0.2,5.9c0.1-2,0.1-3.9,0.2-5.9C372.1,347.4,372,347.9,371.9,348.5c-0.1-0.1-0.3-0.2-0.4-0.3
	C371.6,348.3,371.8,348.4,371.9,348.5z M371.5,367.4c0-0.1,0-0.1,0-0.2c0-0.4-0.1-0.8-0.1-1.2c0,0.4,0.1,0.8,0.1,1.2
	C371.5,367.3,371.5,367.4,371.5,367.4z M368.5,351.3c0,0.3,0,0.6,0,0.9c0.1,0,0.1,0,0.2,0c-0.1,0-0.1,0-0.2,0
	C368.5,351.9,368.5,351.6,368.5,351.3z M363.9,366.1c0.3-0.2,0.6-0.4,0.9-0.6C364.5,365.7,364.2,365.9,363.9,366.1
	c-0.4,0.1-0.6,0.1-0.8,0.1C363.2,366.2,363.5,366.2,363.9,366.1z M363.3,347.9c0.1,0,0.1,0.1,0.1,0.3c0.1,0,0.2,0,0.3,0
	c-0.1,0-0.2,0-0.3,0C363.4,348.1,363.4,348,363.3,347.9z M363.9,338.5C363.9,338.5,363.9,338.5,363.9,338.5L363.9,338.5L363.9,338.5
	z M364,340.1c-0.4-0.3-0.8-0.5-1.2-0.5c-0.1,0.4-0.1,0.9-0.2,1.3c0,0.1,0,0.3,0,0.4c-0.1-0.1-0.3-0.2-0.4-0.3
	c0.1,0.1,0.3,0.2,0.4,0.3c0-0.1,0-0.3,0-0.4c0.1-0.4,0.1-0.9,0.2-1.3C363.2,339.7,363.7,339.8,364,340.1z M362.8,338.5
	c0-0.1,0-0.1,0-0.2C362.8,338.4,362.8,338.4,362.8,338.5c0,0.1,0,0.2,0,0.2h0C362.8,338.6,362.8,338.6,362.8,338.5
	c-0.7-0.1-1.4-0.2-2.1-0.3C361.4,338.3,362.1,338.4,362.8,338.5z M360.2,389.4c0.5-0.2,1-0.4,1.5-0.6c0.6-0.3,1.2-0.6,1.8-0.9
	c-0.6,0.3-1.2,0.6-1.8,0.9c-0.1,0.2-0.2,0.4-0.3,0.6c0.1-0.2,0.2-0.4,0.3-0.6C361.2,389,360.7,389.2,360.2,389.4L360.2,389.4z
	 M359.7,388c-0.3,0.3-0.6,0.5-1,0.7c-0.5,0.7-1,1.3-1.5,2c0.5-0.7,1-1.3,1.5-2C359.1,388.6,359.4,388.3,359.7,388z M355.2,456.2
	c-0.1-0.1-0.3-0.1-0.4-0.2c0.1,0,0.1,0,0.2,0c-0.1,0-0.1,0-0.2,0C354.9,456,355,456.1,355.2,456.2z M354.5,415.9
	c1.5,0.9,3,1.9,4.6,2.8h0C357.6,417.8,356.1,416.9,354.5,415.9z M353.9,443.1c-0.1,0.7-0.3,1.5-0.4,2.2
	C353.6,444.6,353.7,443.9,353.9,443.1c-0.2,0-0.5,0-0.8,0.1C353.4,443.2,353.6,443.1,353.9,443.1c0.1-0.4,0.2-0.9,0.2-1.3
	c0.1-0.6,0.3-1.3,0.4-1.9c-0.1,0.6-0.3,1.3-0.4,1.9C354,442.3,353.9,442.7,353.9,443.1z M353.9,445.3c-0.2,0.7-0.3,1.4-0.5,2.2
	C353.6,446.7,353.7,446,353.9,445.3C353.9,445.3,353.9,445.3,353.9,445.3z M356.3,346.7c0.1,0.4,0.1,0.9,0.2,1.3
	c0,2.2,0,4.4,0.1,6.5c0-2.2,0-4.4-0.1-6.5C356.4,347.6,356.3,347.2,356.3,346.7z M357.8,370.7c0.2,0,0.3,0,0.5,0v0
	C358.1,370.7,358,370.7,357.8,370.7z M359.3,359.2L359.3,359.2c0,0.2-0.1,0.4-0.1,0.6C359.2,359.6,359.3,359.4,359.3,359.2z
	 M358.9,361.7c0,0.3,0,0.6,0,0.9c0,0,0,0,0,0C358.9,362.3,358.9,362,358.9,361.7z M358.7,387c0-0.2-0.2-0.4-0.2-0.7
	c0.1-0.2,0.2-0.5,0.3-0.7c-0.1,0.2-0.2,0.5-0.3,0.7C358.5,386.6,358.7,386.8,358.7,387z M358.7,347.4c-0.1,0-0.3,0.1-0.4,0.1
	c0,0.6,0,1.2,0,1.7c0,0.1,0,0.1,0,0.2c0-0.1,0-0.1,0-0.2c-0.1-0.1-0.1-0.3-0.1-0.4c0,0.1,0.1,0.3,0.1,0.4c0-0.6,0-1.2,0-1.7
	C358.4,347.4,358.5,347.4,358.7,347.4c-0.3-0.1-0.6-0.1-0.9-0.2c-0.4-0.1-0.9-0.1-1.3-0.2c0.4,0.1,0.9,0.1,1.3,0.2
	C358.1,347.2,358.4,347.3,358.7,347.4z M357.6,328.3c-1.3,0-2.6,0-4,0c0,0.1,0.1,0.2,0.1,0.3c0-0.1,0-0.2-0.1-0.3
	C355,328.3,356.3,328.3,357.6,328.3z M354.1,345.2c-0.2,0-0.4-0.1-0.6-0.1C353.7,345.2,353.9,345.2,354.1,345.2
	c0.1,0.2,0.1,0.5,0.2,0.7C354.3,345.7,354.2,345.5,354.1,345.2z M354.3,348.3c0,0.4,0,0.7,0,1.1C354.3,349,354.3,348.6,354.3,348.3
	C354.3,348.3,354.3,348.3,354.3,348.3z M351.3,333.5c0.7,0,1.3,0,2,0c0.2,0.1,0.3,0.1,0.5,0.2c-0.2-0.1-0.3-0.1-0.5-0.2
	C352.6,333.5,351.9,333.5,351.3,333.5z M353.2,346.8L353.2,346.8c-0.1,0.3-0.3,0.7-0.4,1C353,347.5,353.1,347.1,353.2,346.8z
	 M352.8,347.2c0-0.1,0-0.3,0-0.4c-0.1-0.2-0.1-0.4-0.2-0.6c0,0.2,0.1,0.4,0.2,0.6C352.8,346.9,352.8,347.1,352.8,347.2z
	 M353.9,390.3c0.2-0.3,0.3-0.6,0.5-0.9C354.2,389.7,354,390,353.9,390.3c-1,1.5-2,2.9-3,4.4C351.8,393.2,352.9,391.7,353.9,390.3z
	 M349.5,467.1c0,0.2,0,0.4,0,0.7C349.5,467.5,349.5,467.3,349.5,467.1c-0.1,0.2-0.2,0.3-0.3,0.5
	C349.3,467.4,349.4,467.2,349.5,467.1c0.2-0.3,0.3-0.6,0.5-0.8C349.8,466.5,349.7,466.8,349.5,467.1z M351,477.5
	C351,477.5,351,477.5,351,477.5c-0.3,0-0.6,0-0.9,0c0,0,0,0,0,0C350.5,477.5,350.7,477.5,351,477.5C351,477.5,351,477.5,351,477.5
	L351,477.5z M352.4,490.8c-0.1,0-0.1,0-0.2,0C352.2,490.8,352.3,490.8,352.4,490.8c0.6,0,1.2,0,1.7,0
	C353.5,490.8,352.9,490.8,352.4,490.8z M353.6,487.6c-0.2-0.2-0.4-0.5-0.6-0.7c0.1,0,0.2,0,0.3,0c-0.1,0-0.2,0-0.3,0
	C353.2,487.1,353.4,487.4,353.6,487.6z M355,496.6c-0.1,0-0.1,0-0.2,0C354.8,496.6,354.9,496.6,355,496.6c0,0.1,0,0.1,0,0.2
	C355,496.8,355,496.7,355,496.6z M356.1,476.6c-1.3,0.1-2.5,0.1-3.8,0.2C353.6,476.8,354.8,476.7,356.1,476.6c0.5,0,1,0,1.5,0
	C357.1,476.6,356.6,476.6,356.1,476.6z M357.4,457.7c-0.5,0.6-0.8,1.3-1.1,2.1c-0.1,0.2-0.2,0.5-0.2,0.8c0,0.1,0,0.3,0,0.4
	c-0.1,0-0.1,0-0.2,0c0,0.3,0,0.6,0,0.9c0-0.3,0-0.6,0-0.9c0.1,0,0.1,0,0.2,0c0-0.1,0-0.3,0-0.4c0.1-0.3,0.1-0.5,0.2-0.8
	C356.5,459,356.9,458.3,357.4,457.7c0.1-0.1,0.3-0.1,0.4-0.2C357.6,457.6,357.5,457.6,357.4,457.7z M357.4,446.2
	c0.8,0.1,1.6,0.1,2.3,0.2c-0.5,1.9-1.1,3.9-1.6,5.8c0.5-1.9,1.1-3.9,1.6-5.8C358.9,446.3,358.2,446.2,357.4,446.2z M358.9,456.7
	c-0.1-0.1-0.3-0.1-0.4-0.1l0,0C358.6,456.6,358.8,456.7,358.9,456.7z M358.5,521c0,0.1,0,0.1,0,0.2
	C358.5,521.1,358.5,521.1,358.5,521c4.7-0.1,9.4-0.2,14.1-0.3C367.9,520.8,363.2,520.9,358.5,521z M366.1,486.6c0.3,0,0.6,0,0.9,0
	c0.1,0,0.2,0,0.2,0c0,0,0,0,0,0c-0.1,0-0.2,0-0.2,0c0,0.1,0,0.1,0,0.2c1.1-0.1,2.2-0.1,3.2-0.2c0.2,0,0.4,0,0.6-0.1
	c-0.2,0-0.4,0-0.6,0.1c-1.1,0.1-2.2,0.1-3.2,0.2c-0.9,0-1.7,0-2.6,0.1c0,0,0,0,0,0c0.9,0,1.7,0,2.6-0.1c0-0.1,0-0.1,0-0.2
	C366.6,486.6,366.3,486.6,366.1,486.6z M368.2,477.5L368.2,477.5c0.3,0,0.5,0,0.8,0C368.7,477.5,368.5,477.5,368.2,477.5z
	 M370.4,486.4L370.4,486.4c-0.7,0-1.3,0-2,0v0C369.1,486.4,369.8,486.4,370.4,486.4z M369.8,487.3c-0.4,0-0.7,0-1.1,0
	c-0.1,0.1-0.2,0.2-0.3,0.3c0.1-0.1,0.2-0.2,0.3-0.3C369,487.3,369.4,487.3,369.8,487.3z M367.4,491.4c0.4,0.1,0.9,0.1,1.3,0.2
	C368.2,491.5,367.8,491.5,367.4,491.4c-0.2,0-0.5-0.1-0.7-0.1C366.9,491.3,367.1,491.4,367.4,491.4z M367.4,504
	c0.4-0.1,0.9-0.3,1.3-0.4c0,0,0,0,0,0c0.2,0.1,0.4,0.3,0.6,0.4c-0.2-0.1-0.4-0.3-0.6-0.4C368.3,503.7,367.8,503.9,367.4,504
	c-0.7,0-1.5,0-2.2,0c-0.2,0-0.5-0.1-0.7-0.1c0.2,0,0.5,0.1,0.7,0.1C365.9,504,366.7,504,367.4,504z M370.7,518.1
	c0.2,0,0.5-0.1,0.7-0.1c0,0,0,0,0,0C371.2,518,371,518.1,370.7,518.1z M385,519.9c-0.1,0.1-0.1,0.1-0.2,0.2
	c-2.5,0.2-5.1,0.5-7.6,0.7c-0.6,0.1-1.2,0.1-1.7,0.2c0.6-0.1,1.2-0.1,1.7-0.2c-0.4,0-0.9,0-1.3,0v0c0.4,0,0.9,0,1.3,0
	c2.5-0.2,5.1-0.5,7.6-0.7C384.8,520,384.9,520,385,519.9c0.1-0.1,0.2-0.1,0.3-0.1C385.2,519.8,385.1,519.9,385,519.9z M385.6,519.5
	C385.6,519.5,385.6,519.5,385.6,519.5c-3.3,0.4-6.5,0.7-9.8,1.1v0c-1,0.1-2,0.2-3,0.2c1-0.1,2-0.2,3-0.2
	C379.1,520.2,382.4,519.8,385.6,519.5c0.2,0,0.4-0.1,0.6-0.1C386,519.4,385.8,519.4,385.6,519.5z M378.9,517.5
	C378.9,517.5,378.9,517.5,378.9,517.5c-0.4-0.1-0.7-0.2-1.1-0.2c0-0.1,0-0.1,0-0.2c0.6-0.1,1.1-0.2,1.7-0.2
	c-0.6,0.1-1.1,0.2-1.7,0.2c0,0.1,0,0.1,0,0.2C378.2,517.3,378.5,517.4,378.9,517.5z M381.8,517.3c-0.2,0.1-0.5,0.1-0.7,0.2
	c-0.2,0-0.3,0-0.5-0.1h0c0.2,0,0.3,0,0.5,0.1C381.3,517.5,381.5,517.4,381.8,517.3c1.6-0.1,3.2-0.3,4.8-0.4c0,0,0,0,0,0
	C384.9,517,383.4,517.2,381.8,517.3z M384.8,516.4c0.3,0,0.6-0.1,0.9-0.1C385.4,516.4,385.1,516.4,384.8,516.4
	C384.8,516.4,384.8,516.4,384.8,516.4z M387.4,519.7c-0.1,0-0.1,0-0.2,0c0,0-0.1,0-0.1,0c0,0,0.1,0,0.1,0
	C387.3,519.7,387.3,519.7,387.4,519.7C387.4,519.7,387.4,519.7,387.4,519.7z M390.8,516.4c-0.8,0.2-1.5,0.4-2.4,0.3c0,0,0,0,0,0
	C389.3,516.8,390.1,516.6,390.8,516.4z M387.8,506.7c0,0.8,0,1.6,0,2.3C387.8,508.3,387.8,507.5,387.8,506.7c0,0-0.1-0.1-0.1-0.1
	C387.7,506.6,387.7,506.7,387.8,506.7z M387.9,515.5c0.6-0.3,1.2-0.7,1.8-1C389,514.9,388.4,515.2,387.9,515.5
	c-0.1,0.2-0.2,0.4-0.3,0.6C387.6,516,387.7,515.8,387.9,515.5z M386.4,515.5c-0.2,0-0.3,0-0.6,0c-0.4,0.1-0.9,0.1-1.3,0.2
	c-0.4,0-0.7,0-1.1,0c-0.4,0.1-0.9,0.1-1.3,0.2c0.4-0.1,0.9-0.1,1.3-0.2c0.4,0,0.7,0,1.1,0c0.4-0.1,0.9-0.1,1.3-0.2
	C386.1,515.6,386.3,515.6,386.4,515.5z M381.7,500.4c1.1-0.1,2.3-0.2,3.5-0.3C384,500.1,382.8,500.2,381.7,500.4
	c-0.1,0.4-0.2,0.9-0.3,1.3C381.5,501.2,381.6,500.8,381.7,500.4z M377.8,500.5c1-0.1,2-0.1,3.1-0.2
	C379.8,500.4,378.8,500.5,377.8,500.5c-0.2,0-0.3,0-0.5,0C377.5,500.5,377.6,500.5,377.8,500.5z M381.1,502.7L381.1,502.7
	c1.1,0,2.2-0.1,3.3-0.1C383.3,502.6,382.2,502.7,381.1,502.7c-1.7,0.1-3.5,0.2-5.2,0.3C377.6,502.9,379.3,502.8,381.1,502.7z
	 M375.2,503.8L375.2,503.8c-0.2-0.2-0.5-0.5-0.7-0.7C374.8,503.4,375,503.6,375.2,503.8z M373.9,487.3c0.1,0.1,0.2,0.1,0.4,0.2
	C374.2,487.4,374,487.3,373.9,487.3c0,0-0.1-0.1-0.1-0.1C373.8,487.2,373.9,487.2,373.9,487.3z M375.2,496.4c-0.4,0-0.9,0-1.3-0.1
	C374.3,496.4,374.8,496.4,375.2,496.4c0.2,0,0.4,0,0.6,0C375.6,496.4,375.4,496.4,375.2,496.4c-0.6,0-1.1,0-1.7,0.1
	C374.1,496.5,374.7,496.5,375.2,496.4z M374.5,517.9c-0.9-0.1-1.9-0.1-2.8-0.2c-0.1,0-0.1,0-0.2,0c-0.2,0-0.3,0-0.5-0.1
	c-0.7,0.1-1.3,0.1-2,0.1c0.7,0,1.3-0.1,2-0.1c0,0,0,0,0,0c0.2,0,0.3,0,0.5,0.1c0.1,0,0.1,0,0.2,0
	C372.6,517.8,373.6,517.9,374.5,517.9z M371.3,517.3L371.3,517.3c0,0-0.1,0.1-0.1,0.1C371.2,517.4,371.3,517.4,371.3,517.3z
	 M371.3,517.3C371.3,517.3,371.3,517.3,371.3,517.3C371.3,517.3,371.3,517.3,371.3,517.3C371.3,517.3,371.3,517.3,371.3,517.3z
	 M372.2,492c-0.1-0.1-0.2-0.2-0.3-0.3c-0.4,0-0.7,0-1.1,0c0,0.1,0.1,0.1,0.1,0.2c0-0.1-0.1-0.1-0.1-0.2c-0.1,0-0.1,0-0.2-0.1
	c0.1,0,0.1,0,0.2,0.1c0.4,0,0.7,0,1.1,0C372,491.8,372.1,491.9,372.2,492z M361.9,476.6c3.1,0.1,6.1,0.3,9.2,0.4
	C368,476.9,365,476.8,361.9,476.6c-0.5-0.1-1-0.1-1.5-0.2C360.9,476.5,361.4,476.5,361.9,476.6z M360.7,486.9
	C360.7,486.9,360.6,486.9,360.7,486.9L360.7,486.9C360.6,486.9,360.7,486.9,360.7,486.9z M360.8,463.8c0-0.3,0-0.6,0-0.9
	C360.8,463.2,360.8,463.5,360.8,463.8c-0.3-0.3-0.6-0.7-0.9-1C360.3,463.1,360.5,463.5,360.8,463.8z M367.1,497.5
	c-2.9,0.1-5.7,0.1-8.6,0.2c0,0.4,0,0.8-0.1,1.2c0.1-0.4,0.2-0.7,0.1-1.2C361.3,497.7,364.2,497.6,367.1,497.5z M359.9,458.2
	L359.9,458.2C359.9,458.2,359.9,458.2,359.9,458.2C359.9,458.2,359.9,458.2,359.9,458.2z M360.4,443.6c-0.1,0.7-0.3,1.3-0.4,2
	C360.1,444.9,360.3,444.2,360.4,443.6c0.3-1,0.6-2,0.9-3.1C361,441.5,360.7,442.6,360.4,443.6z M362.4,431.5c0-0.7,0-1.4,0-2.1
	c0,0,0,0,0,0C362.4,430.1,362.4,430.8,362.4,431.5z M363.2,398.6c-1.8,1.4-3.6,2.7-5.4,4.1c-0.2,0.2-0.3,0.3-0.5,0.5
	c0.2-0.2,0.3-0.3,0.5-0.5C359.6,401.3,361.4,400,363.2,398.6c0.3-0.2,0.5-0.5,0.7-0.7v0C363.7,398.1,363.5,398.4,363.2,398.6z
	 M363.9,435.7C363.9,435.7,363.9,435.7,363.9,435.7c0.7,0.6,1.4,1.1,2.1,1.7C365.2,436.9,364.6,436.3,363.9,435.7z M366.1,363.2
	c0,0.4,0.2,0.8,0.6,1C366.3,364,366.1,363.6,366.1,363.2z M366.9,408.8c-0.1-0.4-0.1-0.9-0.2-1.3
	C366.8,407.9,366.8,408.3,366.9,408.8L366.9,408.8z M367.4,415.1c0-0.5-0.1-1.1-0.1-1.6C367.3,414,367.3,414.5,367.4,415.1
	C367.4,415.1,367.4,415.1,367.4,415.1z M369.3,387.9c0.1-0.1,0.3-0.3,0.4-0.4c0-0.2-0.1-0.3-0.1-0.4c0.1,0.1,0.1,0.2,0.1,0.4
	C369.6,387.6,369.5,387.7,369.3,387.9z M369.5,359.4c-0.6-0.2-1.1-0.4-1.7-0.6C368.4,359,369,359.2,369.5,359.4
	c0.6,0.4,1.1,0.9,1.5,1.4C370.7,360.3,370.2,359.8,369.5,359.4z M370.9,437.3c-0.1,0.1-0.3,0.1-0.4,0.2
	C370.6,437.4,370.7,437.3,370.9,437.3L370.9,437.3z M370.8,418.3L370.8,418.3c0,0.1,0.1,0.3,0.2,0.4
	C370.9,418.6,370.9,418.5,370.8,418.3z M372.6,434c-0.4,0.1-0.7,0.1-1.1,0.1C371.9,434.1,372.3,434.1,372.6,434
	C372.6,434,372.6,434,372.6,434z M372.8,434L372.8,434C372.7,434,372.8,434,372.8,434c0.2,0,0.3,0,0.4-0.1
	C373.1,434,373,434,372.8,434z M373.4,409.8c-0.1,0.3-0.3,0.6-0.4,0.9C373.2,410.4,373.3,410.1,373.4,409.8c0.2-0.8,0.4-1.6,0.7-2.4
	C373.9,408.2,373.6,409,373.4,409.8z M374.7,404.8c0.2-0.9,0.4-1.8,0.6-2.6c0.5-2.5,1-5,1.6-7.5c-0.5,2.5-1,5-1.6,7.5
	C375.2,403,374.9,403.9,374.7,404.8z M376.5,425.3c-0.1,0.4-0.3,0.7-0.4,1.1C376.2,426,376.4,425.7,376.5,425.3
	c0.6-1.4,1.2-2.9,1.9-4.3C377.8,422.5,377.1,423.9,376.5,425.3z M378.7,421.6c0,0.4-0.1,0.8-0.2,1.3
	C378.6,422.4,378.6,422,378.7,421.6c0.3-1,0.6-2,0.8-3.1C379.2,419.5,379,420.6,378.7,421.6z M381.7,403.6c-0.4,2.3-0.7,4.6-1.1,6.9
	C381,408.2,381.4,405.9,381.7,403.6c0-0.4,0-0.9,0-1.3c-0.1,0-0.1,0-0.2,0c-0.1,1-0.3,2-0.4,3c0.1-1,0.3-2,0.4-3c0.1,0,0.1,0,0.2,0
	v0C381.7,402.7,381.7,403.1,381.7,403.6c0.1-0.5,0.3-0.9,0.4-1.4C382,402.7,381.9,403.1,381.7,403.6z M387.8,348.1
	c0.2,0,0.4,0,0.6,0.2c0,0.3,0,0.7,0,1c0-0.3,0-0.7,0-1C388.2,348.1,388,348.1,387.8,348.1z M386.3,336.3c0.3,0.3,0.5,0.6,0.8,0.9
	C386.8,337,386.6,336.7,386.3,336.3C386.3,336.3,386.3,336.3,386.3,336.3z M382.6,343.5c0-0.2,0-0.3,0-0.5
	C382.6,343.2,382.6,343.4,382.6,343.5C382.6,343.5,382.6,343.5,382.6,343.5z M382.6,344.4c0-0.1,0-0.3,0-0.4
	C382.6,344.1,382.6,344.2,382.6,344.4c0.5,0.3,0.9,0.8,1.2,1.2C383.5,345.1,383.1,344.7,382.6,344.4z M384.2,356.4
	c0,0.4,0.1,0.8,0.1,1.2c0.2,1.2,0.4,2.5,0.7,3.7c0.1,0.8,0.1,1.7,0.2,2.5c-0.1-0.8-0.1-1.7-0.2-2.5c-0.2-1.2-0.4-2.5-0.7-3.7
	C384.3,357.2,384.3,356.8,384.2,356.4z M384.5,380.9c0,0.1,0,0.1-0.1,0.2C384.5,381.1,384.5,381,384.5,380.9c0-0.3,0-0.6,0-0.9
	C384.5,380.3,384.5,380.6,384.5,380.9z M384.6,373.1c0.2-2.7,0.4-5.4,0.7-8.1h0C385,367.7,384.8,370.4,384.6,373.1z M385.6,371.8
	c0-0.6,0-1.2,0-1.7c0-0.5,0-1,0-1.5c-0.1-1.2-0.1-2.3-0.2-3.5c0.1,1.2,0.1,2.3,0.2,3.5c0,0.5,0,1,0,1.5c0,0,0,0,0,0
	C385.6,370.6,385.6,371.2,385.6,371.8z M385.8,376.6C385.8,376.6,385.8,376.6,385.8,376.6c0,0.6,0,1.2,0,1.8
	C385.9,377.7,385.9,377.1,385.8,376.6z M386.3,343.3c-0.4-0.2-0.7-0.4-1.1-0.7c-0.7-0.4-1.3-0.7-2-1.1c0.7,0.4,1.3,0.7,2,1.1
	c0,0,0,0,0,0C385.5,342.9,385.9,343.1,386.3,343.3c0.2-0.3,0.3-0.6,0.5-0.9c0.1-0.2,0.2-0.5,0.2-0.7c-0.1,0.2-0.2,0.5-0.2,0.7
	C386.6,342.7,386.4,343,386.3,343.3c0.3,0.3,0.6,0.6,1,0.8C386.9,343.9,386.6,343.6,386.3,343.3z M387.8,357c0-0.3,0-0.6,0-0.8
	c0-0.2,0-0.5,0-0.7c0,0,0,0,0,0c0,0.2,0,0.5,0,0.7c0.1-0.6,0.2-1.2,0.3-1.8c-0.1,0.6-0.2,1.2-0.3,1.8
	C387.8,356.4,387.8,356.7,387.8,357z M388,358.5c0.1-1.6,0.1-3.2,0.2-4.8c0,0,0,0,0,0C388.2,355.3,388.1,356.9,388,358.5z
	 M388.4,351.8c0-0.3,0-0.6,0-0.8c0.3-1.2,0.3-2.3,0-3.5c0,0,0,0,0,0c0,0,0,0,0,0c0-0.1,0-0.3,0-0.4c0,0.1,0,0.3,0,0.4
	c0.3,1.2,0.3,2.3,0,3.5C388.5,351.2,388.5,351.5,388.4,351.8z M388.6,355c0,0.2-0.1,0.4-0.1,0.5C388.6,355.4,388.6,355.2,388.6,355
	c0.1-0.6,0.2-1.2,0.2-1.8C388.8,353.9,388.7,354.4,388.6,355z M389.1,343.3c0.5,0.5,1,1,1.5,1.5c0.4,0.6,0.7,1.2,1.1,1.8
	c-0.4-0.6-0.8-1.2-1.1-1.8C390.1,344.3,389.6,343.8,389.1,343.3z M390.4,354.6c0-1.2,0-2.4,0-3.6c0,0,0,0,0,0
	C390.4,352.3,390.4,353.5,390.4,354.6z M389.8,364c0-0.7,0.1-1.4,0.1-2c-0.1-0.7-0.1-1.5-0.2-2.2c0.1,0.7,0.1,1.5,0.2,2.2
	C389.9,362.7,389.9,363.4,389.8,364z M390.2,348.1c0.1,0.3,0.1,0.6,0.2,0.9c-0.1,0.3-0.3,0.6-0.4,0.9c-0.1-0.1-0.2-0.3-0.2-0.4
	c0.1,0.1,0.2,0.3,0.2,0.4c0.1-0.3,0.3-0.6,0.4-0.9C390.4,348.7,390.3,348.4,390.2,348.1c0.2-0.1,0.5-0.3,0.7-0.4
	C390.7,347.8,390.5,347.9,390.2,348.1z M400.4,361.3c0-0.2,0.1-0.3,0.1-0.5C400.5,361,400.5,361.2,400.4,361.3
	c-0.8,0-1.5-0.1-2.3-0.1C398.9,361.3,399.7,361.3,400.4,361.3z M395.2,357.6c-0.6,1.2-1.3,2.3-1.9,3.5c0,0.3,0.2,0.4,0.4,0.4
	c-0.2,0-0.3-0.1-0.4-0.4C393.9,359.9,394.5,358.8,395.2,357.6z M398.2,362c-0.8,0-1.7,0-2.5-0.1c-0.7,0-1.5,0-2.2,0.1
	c0,0.1,0,0.2,0,0.3c0-0.1,0-0.2,0-0.3c-0.2,0-0.4,0-0.6-0.1c0.2,0,0.4,0,0.6,0.1c0.7,0,1.5,0,2.2-0.1c0.5-0.1,1-0.1,1.5-0.2
	c-0.5,0.1-1,0.1-1.5,0.2C396.5,362,397.4,362,398.2,362c0.9,0.1,1.8,0.1,2.7,0.2C400,362.2,399.1,362.1,398.2,362z M375.2,448.3
	c-0.9,0.8-1.9,1.5-2.8,2.3C373.3,449.9,374.2,449.1,375.2,448.3c0.1-0.1,0.1-0.2,0.2-0.2C375.3,448.2,375.2,448.2,375.2,448.3z
	 M381.5,439.9c0-0.1,0-0.2,0-0.2C381.5,439.7,381.5,439.8,381.5,439.9L381.5,439.9z M382.6,443.3c-0.1,0.1-0.1,0.2-0.2,0.2
	C382.5,443.5,382.5,443.4,382.6,443.3c0.2-0.1,0.4-0.3,0.6-0.4C383,443.1,382.8,443.2,382.6,443.3z M383.9,438.8
	c0.9-1.1,1.7-2.2,2.6-3.3C385.6,436.6,384.8,437.7,383.9,438.8c0.1,0,0.3,0,0.4,0C384.2,438.8,384,438.8,383.9,438.8
	c-0.2,0.2-0.3,0.5-0.5,0.7C383.5,439.2,383.7,439,383.9,438.8z M385.2,439c-0.5,0.4-1,0.9-1.6,1.3
	C384.2,439.8,384.7,439.4,385.2,439c0.2-0.1,0.4-0.3,0.6-0.4C385.6,438.7,385.4,438.8,385.2,439z M388.1,432.7c0-0.1,0-0.2,0-0.3
	C388,432.5,388,432.6,388.1,432.7C388.1,432.7,388.1,432.7,388.1,432.7z M390.6,434.9c-0.2,0.2-0.4,0.3-0.6,0.5
	C390.2,435.2,390.4,435,390.6,434.9c0.2-0.1,0.5-0.3,0.7-0.4C391.1,434.6,390.9,434.7,390.6,434.9z M391.3,433.8
	c-0.1,0.1-0.2,0.2-0.3,0.3C391.1,434,391.2,433.9,391.3,433.8c0.6-0.3,1.3-0.7,1.8-1.1C392.5,433.1,391.9,433.4,391.3,433.8z
	 M391.7,431.6c-0.6,0.1-1.2,0.1-1.7,0.2c0,0,0,0,0,0c-0.2,0-0.3,0-0.5,0c-0.2,0.2-0.4,0.3-0.6,0.5c0.2-0.2,0.4-0.3,0.6-0.5
	c0-0.1,0-0.1,0-0.2c0,0.1,0,0.1,0,0.2c0.2,0,0.3,0,0.5,0C390.6,431.8,391.1,431.7,391.7,431.6c0.7-0.1,1.5-0.3,2.2-0.4
	C393.2,431.3,392.5,431.5,391.7,431.6z M432,363.9c0.1,0.8,0.2,1.5,0.3,2.3C432.2,365.4,432.1,364.7,432,363.9
	C432,363.9,432,363.9,432,363.9z M429.4,359c0.2-0.1,0.4-0.2,0.6-0.3C429.8,358.8,429.6,358.9,429.4,359c-0.4,0.2-0.8,0.5-1.2,0.7
	C428.6,359.4,429,359.2,429.4,359z M423.9,359C423.9,359,423.9,359,423.9,359L423.9,359c0.4,0.4,0.7,0.7,1.1,1.1
	C424.7,359.7,424.3,359.3,423.9,359c-0.1,0.3-0.3,0.6-0.4,0.9C423.6,359.5,423.8,359.3,423.9,359z M426.7,368.9
	C426.7,368.9,426.7,368.9,426.7,368.9c0.3-0.1,0.6-0.3,0.9-0.5C427.4,368.7,427,368.8,426.7,368.9z M427.4,371.8
	c-0.2,0.4-0.3,0.7-0.5,1.1c-0.3,0.3-0.6,0.7-1,1.1c0.4-0.4,0.7-0.8,1-1.1C427.1,372.5,427.3,372.1,427.4,371.8z M427.6,367.9
	c-0.9-0.6-1.9-1.3-2.8-1.9c0,0,0,0,0,0c-0.1-0.1-0.2-0.2-0.1-0.3c0,0.1,0,0.2,0.1,0.3C425.7,366.6,426.7,367.2,427.6,367.9
	c0,0,0.1,0.1,0.1,0.2C427.7,368,427.7,367.9,427.6,367.9z M423.9,382.2L423.9,382.2c-0.3,0.1-0.6,0.3-0.9,0.4
	C423.3,382.5,423.6,382.4,423.9,382.2z M422.9,373c0.1,0.3,0.3,0.7,0.4,1c0,0,0,0,0,0C423.1,373.6,423,373.3,422.9,373z
	 M422.8,370.7c0.1-0.3,0.2-0.6,0.3-0.9C423,370.1,422.9,370.4,422.8,370.7c-0.1,0-0.2,0-0.3,0C422.6,370.7,422.7,370.7,422.8,370.7z
	 M423,382.7c-0.3,0.1-0.6,0.1-0.8,0.2c-0.1,0.1-0.2,0.1-0.2,0.1c0.1,0,0.1-0.1,0.2-0.1C422.5,382.8,422.8,382.7,423,382.7z
	 M420.4,381.6L420.4,381.6c-0.1-0.2-0.1-0.4-0.1-0.5C420.3,381.2,420.4,381.4,420.4,381.6z M420.5,381.6c-0.2,0.5-0.3,1-0.5,1.5
	c0,0,0,0-0.1-0.1c0,0,0,0,0.1,0.1C420.2,382.6,420.3,382.1,420.5,381.6z M421.3,382.4c0.1-0.1,0.1-0.1,0.2-0.2c0,0,0,0,0,0
	c0.1,0,0.2,0,0.3,0c-0.1,0-0.2,0-0.3,0C421.4,382.3,421.4,382.4,421.3,382.4c-0.4,0.4-0.7,0.8-1.1,1.2
	C420.6,383.2,420.9,382.8,421.3,382.4z M420.9,379.4c0,0.1,0,0.2,0,0.4c0.3-0.1,0.5-0.1,0.8-0.2c-0.3,0.1-0.5,0.1-0.8,0.2
	c0,0.1-0.1,0.3-0.1,0.4c-0.1,0-0.1,0-0.2,0c0.1,0,0.1,0,0.2,0c0-0.1,0.1-0.3,0.1-0.4C420.9,379.7,420.9,379.6,420.9,379.4z
	 M422.2,370.2c-0.1,0.4-0.3,0.8-0.4,1.1c-0.1,0.9-0.3,1.7-0.4,2.6c-0.1,0.2-0.1,0.4-0.2,0.6c0.1-0.2,0.1-0.4,0.2-0.6
	c0.1-0.9,0.3-1.7,0.4-2.6c-0.6,0.1-1.1,0.1-1.7,0.2c0.6-0.1,1.1-0.1,1.7-0.2C421.9,371,422,370.6,422.2,370.2z M420.9,359L420.9,359
	c-0.3,0.1-0.6,0.3-0.9,0.4C420.3,359.3,420.6,359.1,420.9,359z M419.6,360.7c0.1,0,0.1,0,0.2,0.1c0.2,0.1,0.3,0.1,0.5,0.2
	c-0.2-0.1-0.3-0.1-0.5-0.2C419.7,360.7,419.6,360.7,419.6,360.7c0,0.3,0.1,0.4,0.2,0.6C419.7,361.1,419.6,361,419.6,360.7
	c-0.1-0.2-0.3-0.3-0.4-0.5C419.3,360.4,419.4,360.5,419.6,360.7z M418.5,362.6c-0.1,0-0.1,0-0.2,0
	C418.3,362.6,418.4,362.6,418.5,362.6c0-0.1,0-0.1,0-0.2c0.6,0,1.2,0,1.7,0c0,0,0,0,0,0c-0.6,0-1.2,0-1.7,0
	C418.5,362.5,418.5,362.6,418.5,362.6c0.7,0,1.5,0,2.2,0c0,0,0,0,0,0C420,362.6,419.2,362.6,418.5,362.6z M421,375.2
	c-0.5,2.5-0.9,5-1.4,7.4l0,0C420.1,380.2,420.5,377.7,421,375.2z M417.9,389.2L417.9,389.2C417.9,389.2,417.8,389.2,417.9,389.2
	C417.8,389.2,417.9,389.2,417.9,389.2z M416.4,398.9C416.4,398.9,416.3,399,416.4,398.9c0.2,0.1,0.4,0.1,0.7,0.1
	C416.8,399,416.6,399,416.4,398.9C416.3,399,416.4,398.9,416.4,398.9z M417.1,402.9C417.1,402.9,417.1,402.9,417.1,402.9
	c-0.1-0.1-0.3-0.2-0.6-0.3C416.7,402.7,416.9,402.8,417.1,402.9C417.1,402.9,417.1,402.9,417.1,402.9z M417.2,405.9L417.2,405.9
	c-0.1,0-0.1-0.1-0.2-0.1C417.1,405.8,417.1,405.9,417.2,405.9z M415.6,407.1c-0.2-0.3-0.4-0.5-0.5-0.7c0,0,0,0,0,0
	C415.2,406.6,415.4,406.8,415.6,407.1z M413.6,399c0.5-0.8,0.9-1.6,1.4-2.4C414.5,397.4,414.1,398.2,413.6,399
	c0.6-0.1,1.2-0.2,1.8-0.2c0,0,0,0,0,0C414.8,398.8,414.2,398.9,413.6,399c-0.5,0.7-1,1.5-1.5,2.2c0.4,0,0.7,0,1.1,0
	c0.6-0.1,1.1-0.1,1.7-0.2c0,0,0,0,0,0c-0.6,0.1-1.1,0.1-1.7,0.2c-0.4,0-0.7,0-1.1,0C412.7,400.4,413.2,399.7,413.6,399z M415,400.9
	c-0.3-0.1-0.5-0.2-0.8-0.4c-0.1,0-0.3-0.1-0.5-0.1c0.2,0,0.3,0.1,0.5,0.1C414.4,400.7,414.7,400.8,415,400.9z M413.7,404.4
	C413.7,404.4,413.7,404.4,413.7,404.4c-0.3-0.1-0.6-0.3-0.9-0.4C413.1,404.1,413.4,404.3,413.7,404.4z M412.9,402.2
	c0.1,0.4,0.2,0.6,0.3,0.9c0.1,0.2,0.1,0.4,0.2,0.6c-0.1-0.2-0.1-0.4-0.2-0.6C413.1,402.8,413,402.6,412.9,402.2z M407,409.6
	c-0.3,0.4-0.6,0.9-0.9,1.3c0.1,0.1,0.1,0.3,0.2,0.4c0.4,0.1,0.9,0.1,1.3,0.2c0.3-0.1,0.7-0.3,1-0.5c-0.3,0.2-0.7,0.3-1,0.5
	c-0.4-0.1-0.9-0.1-1.3-0.2c-0.1-0.1-0.1-0.3-0.2-0.4C406.4,410.5,406.7,410.1,407,409.6z M406.8,411.8c-0.1,0-0.2,0-0.3,0
	C406.6,411.8,406.7,411.8,406.8,411.8c0.9,0,1.7-0.1,2.5-0.2C408.5,411.8,407.7,411.9,406.8,411.8z M407.8,415.9c-0.1,0-0.1,0-0.2,0
	c-0.1-0.1-0.2-0.1-0.2-0.2c0.1,0.1,0.2,0.1,0.2,0.2C407.7,415.9,407.7,415.9,407.8,415.9z M406.5,415.1
	C406.5,415.1,406.5,415.1,406.5,415.1c0-0.3-0.1-0.7-0.1-1C406.5,414.4,406.5,414.8,406.5,415.1z M405.4,410.7
	c0.2-0.1,0.4-0.3,0.6-0.4C405.9,410.4,405.6,410.6,405.4,410.7C405.4,410.7,405.4,410.7,405.4,410.7z M404.1,413
	c0.1,0,0.4,0.1,0.4,0.1C404.5,413.2,404.3,413.1,404.1,413C404.1,413,404.1,413,404.1,413z M401.9,417.4c0.6-0.6,1.2-1.3,1.7-1.9
	C403.1,416.1,402.5,416.8,401.9,417.4c-0.2,0.2-0.4,0.3-0.6,0.5c0.4,0.1,0.8,0.3,1.3,0.4c-0.4-0.1-0.8-0.3-1.3-0.4
	C401.5,417.8,401.7,417.6,401.9,417.4z M399.3,419.6c0.1-0.1,0.2-0.2,0.3-0.3C399.5,419.4,399.4,419.5,399.3,419.6
	c-0.1-0.1-0.1-0.3-0.2-0.4C399.2,419.3,399.3,419.5,399.3,419.6z M394.8,433.5c0-0.3,0.2-0.6,0.2-0.9c0,0,0,0,0,0
	C394.9,432.9,394.8,433.2,394.8,433.5z M394.1,426.6L394.1,426.6c1.1-0.2,2.2-0.4,3.3-0.6C396.3,426.2,395.2,426.4,394.1,426.6z
	 M398.2,421.8c-0.9,1.2-1.9,2.5-2.8,3.7C396.3,424.2,397.3,423,398.2,421.8c0.1-0.3,0.1-0.5,0.2-0.7
	C398.4,421.3,398.3,421.5,398.2,421.8z M398.5,425.7C398.5,425.7,398.5,425.7,398.5,425.7c0.4,0.1,0.7,0.1,1.1,0.2
	C399.2,425.8,398.9,425.8,398.5,425.7z M402.4,426.8c-0.4,0.5-0.9,0.9-1.4,1.3C401.5,427.7,401.9,427.3,402.4,426.8
	C402.4,426.8,402.4,426.8,402.4,426.8C402.4,426.8,402.4,426.8,402.4,426.8L402.4,426.8z M402.2,421.6
	C402.2,421.6,402.2,421.6,402.2,421.6c0.1-0.1,0.2-0.2,0.4-0.3C402.4,421.5,402.3,421.5,402.2,421.6z M402.6,418.3
	c0.6,0.1,1.3,0.3,1.9,0.4C403.9,418.6,403.2,418.5,402.6,418.3C402.6,418.3,402.6,418.3,402.6,418.3z M405,421.2
	c-0.5,0.4-1,0.7-1.6,1.1C404,421.9,404.5,421.5,405,421.2c0.1-0.1,0.1-0.3,0.2-0.4c-0.3-0.1-0.6-0.1-0.9-0.2
	c0.3,0.1,0.6,0.1,0.9,0.2c-0.1-0.1-0.1-0.3-0.2-0.4h0c0.1,0.1,0.1,0.3,0.2,0.4C405.1,420.9,405.1,421,405,421.2z M406.6,420.4
	c0.3-0.3,0.7-0.5,1-0.7h0C407.3,419.9,406.9,420.1,406.6,420.4z M407.6,419C407.6,419,407.6,419,407.6,419c0,0,0.1,0.1,0.1,0.1
	C407.7,419,407.6,419,407.6,419z M407.8,417.9c-0.3,0-0.7,0-1-0.1c-0.5-0.1-1-0.1-1.6-0.2c-0.7-0.1-1.4-0.1-2.2-0.2
	c0.7,0.1,1.4,0.1,2.2,0.2c0.5,0.1,1,0.1,1.6,0.2C407.1,417.9,407.4,417.9,407.8,417.9c0.1,0,0.2,0.1,0.3,0.1
	C408,418,407.9,418,407.8,417.9z M410.2,415.9c-0.3-0.4-0.6-0.7-0.9-1.1c-0.4-0.4-0.8-0.8-1.1-1.2c0.4,0.4,0.8,0.8,1.1,1.2
	C409.6,415.2,409.9,415.6,410.2,415.9c0.1,0,0.1-0.1,0.2-0.1C410.3,415.8,410.3,415.9,410.2,415.9c0.1,0.1,0.2,0.1,0.3,0.2
	C410.4,416,410.3,416,410.2,415.9z M412,410.1L412,410.1L412,410.1c0,0,0.1,0,0.1,0.1C412,410.1,412,410.1,412,410.1z M408.7,410.1
	c-0.4,0.1-0.8,0.1-1.1,0.2C408,410.2,408.3,410.1,408.7,410.1c1.8-0.3,3.6-0.6,5.3-1C412.3,409.5,410.5,409.8,408.7,410.1z
	 M414.4,409.4L414.4,409.4c0.6-0.1,1.1-0.1,1.7-0.2C415.5,409.3,414.9,409.3,414.4,409.4z M414.2,408.6c0.3,0.1,0.7,0.2,1,0.3
	C414.9,408.8,414.5,408.7,414.2,408.6c1-0.2,2-0.5,3-0.7C416.2,408.1,415.2,408.3,414.2,408.6z M416.7,392.9c0.2,0,0.3,0,0.5,0
	c0.8-0.6,1.7-1.3,2.5-1.9c0.1,0.2,0.2,0.3,0.3,0.5h0c-0.1-0.2-0.2-0.3-0.3-0.5c-0.8,0.6-1.7,1.3-2.5,1.9
	C417.1,392.8,416.9,392.9,416.7,392.9z M418,406.9C418,406.8,418,406.8,418,406.9c-0.1-0.3-0.2-0.3-0.3-0.3
	C417.8,406.5,417.9,406.6,418,406.9C418,406.8,418,406.8,418,406.9z M418.3,397.7c-0.1-0.1-0.2-0.1-0.3-0.2
	C418.1,397.5,418.2,397.6,418.3,397.7L418.3,397.7z M420.2,402.6C420.2,402.6,420.2,402.6,420.2,402.6c0.1,0,0.2,0,0.2,0
	C420.4,402.7,420.3,402.7,420.2,402.6z M420.2,397.7C420.2,397.7,420.2,397.7,420.2,397.7c-0.1-0.1-0.3-0.2-0.4-0.3
	c0-0.1,0-0.1,0-0.2c0,0.1,0,0.1,0,0.2C420,397.5,420.1,397.6,420.2,397.7c0.5-0.1,1-0.2,1.5-0.2
	C421.2,397.5,420.7,397.6,420.2,397.7z M422.2,402.7c-0.1,0-0.1,0-0.2-0.1C422,402.6,422.1,402.6,422.2,402.7
	C422.2,402.7,422.2,402.7,422.2,402.7z M420.9,398.7C420.9,398.7,420.9,398.7,420.9,398.7c0.4-0.1,0.9-0.2,1.3-0.3
	C421.8,398.5,421.3,398.6,420.9,398.7z M419.8,397C419.8,397,419.8,397,419.8,397c0.9,0,1.8-0.1,2.7-0.6c0,0,0,0,0,0
	C421.6,397,420.7,397.1,419.8,397z M420.5,385.8c0.5,0.2,1,0.4,1.5,0.6c0,0,0.1,0,0.1,0c0,0-0.1,0-0.1,0
	C421.5,386.2,421,385.9,420.5,385.8z M423.3,393.8c-0.1,0.2-0.2,0.4-0.3,0.6C423.1,394.1,423.2,394,423.3,393.8
	c0.1-0.1,0.1-0.2,0.2-0.3C423.4,393.6,423.4,393.7,423.3,393.8z M423.5,389.8L423.5,389.8C423.5,389.8,423.5,389.8,423.5,389.8
	L423.5,389.8z M423.5,389.9c0.1,0,0.1,0,0.2,0.1C423.6,389.9,423.6,389.9,423.5,389.9L423.5,389.9z M423.8,390c0.2,0,0.3,0,0.5-0.1
	C424.1,390,423.9,390,423.8,390z M425,391.2C425,391.2,425,391.2,425,391.2c0.1-0.1,0.1-0.3,0.2-0.4
	C425.1,390.9,425.1,391,425,391.2z M424.8,390.3L424.8,390.3c0.1,0,0.2,0,0.3,0C425,390.2,424.9,390.2,424.8,390.3z M425,386.6
	C425,386.6,425,386.6,425,386.6c0.1,0,0.3,0,0.4,0C425.3,386.6,425.1,386.6,425,386.6z M420.1,385.1c2.3-1.5,4.7-2.9,7-4.4
	c0.3-0.1,0.6-0.3,1-0.4v0c-0.3,0.1-0.6,0.3-1,0.4C424.8,382.2,422.4,383.6,420.1,385.1z M427,387.4c-0.2,0.6-0.4,1.2-0.6,1.8
	C426.6,388.6,426.8,388,427,387.4c0,0,0.1-0.1,0.1-0.1C427.1,387.3,427,387.4,427,387.4z M427.4,387L427.4,387
	c0.3,0,0.5,0.1,0.7,0.2C427.9,387.1,427.7,387,427.4,387z M428.9,378.5c0-0.1,0.1-0.1,0.1-0.2C429,378.4,429,378.5,428.9,378.5
	c-0.1,0.3-0.3,0.6-0.4,0.9C428.6,379.1,428.8,378.8,428.9,378.5z M428.6,366c0-0.3,0.1-0.6,0.1-0.9c0.1-0.4,0.2-0.7,0.2-1.1
	c-0.1,0.4-0.2,0.7-0.2,1.1C428.7,365.4,428.6,365.7,428.6,366z M428.5,382L428.5,382c0.2-0.4,0.4-0.8,0.5-1.1
	C428.9,381.3,428.7,381.7,428.5,382z M430,377.2c-0.2,0.8-0.4,1.6-0.6,2.5C429.7,378.9,429.9,378.1,430,377.2
	c0.1-0.2,0.1-0.3,0.2-0.5c0,0,0,0,0,0C430.2,376.9,430.1,377.1,430,377.2z M429.4,376.8C429.4,376.8,429.4,376.8,429.4,376.8
	c0,0.1,0.1,0.3,0.1,0.5C429.5,377.1,429.4,376.9,429.4,376.8z M426.1,361.9c-0.1,0-0.3,0-0.4,0.1v0C425.8,362,426,362,426.1,361.9
	c1.5-0.9,3.1-1.8,4.6-2.7C429.2,360.1,427.6,361,426.1,361.9z M430.8,371.1c0-0.1-0.1-0.1-0.1-0.2c0-0.1,0-0.3,0-0.4
	c0.1-0.3,0.2-0.7,0.2-1c-0.1,0.3-0.2,0.7-0.2,1c0,0.1,0,0.3,0,0.4C430.7,371,430.7,371,430.8,371.1z"/>
<polygon class="st1" points="397.2,16 427.8,38.9 461.8,21.5 488,49.3 524.5,37.8 545.7,69.6 583.6,64.5 599.1,99.5 637.3,100.8 
	646.7,137.9 684.1,145.7 687.1,183.8 722.6,197.8 719.1,235.9 751.8,255.7 741.9,292.6 770.8,317.7 754.8,352.4 779,382 
	757.4,413.5 776.3,446.7 749.6,474.1 762.6,510.1 731.7,532.6 738.4,570.3 704.2,587.2 704.5,625.5 667.8,636.4 661.6,674.1 
	623.7,678.7 611.2,714.8 573,713 554.6,746.4 517.3,738.1 493.5,768 458.1,753.6 429.6,779 397.2,758.7 364.8,779 336.2,753.6 
	300.9,768 277.1,738.1 239.8,746.4 221.3,713 183.2,714.8 170.7,678.7 132.7,674.1 126.5,636.4 89.9,625.5 90.2,587.2 55.9,570.3 
	62.6,532.6 31.7,510.1 44.7,474.1 18.1,446.7 37,413.5 15.3,382 39.5,352.4 23.6,317.7 52.4,292.6 42.6,255.7 75.2,235.9 
	71.7,197.8 107.3,183.8 110.3,145.7 147.7,137.9 157.1,100.8 195.3,99.5 210.8,64.5 248.7,69.6 269.9,37.8 306.3,49.3 332.6,21.5 
	366.6,38.9 "/>
<path d="M635.1,247c-1.7-2.4-110-1.8-110-1.8l-0.9,8.3l-11.9-3l5.8-38.4c0,0-26.4-40.3-120.2-38c-93.8-2.3-120.2,38-120.2,38
	l5.8,38.4l-11.9,3l-0.9-8.3c0,0-108.3-0.6-110,1.8c-1.7,2.4,4.4,60.3,14.1,87.1c9.7,26.8,47.5,117.7,171.9,190.4
	c7.2-9-121.7-116.3-146.3-241.9l84.6,0.2c0,0,10.9,179.9,83.2,240.5c1.3,56.6-35,58.2-35,58.2l-2.7,27.5c0,0-0.8,4.5-7.5,11.8
	s-6.5,13.3-6.5,13.3l-9.5,0.9c0,0-3.2,4.9-7.7,9.1c-4.5,4.2-15.8,5.7-15.8,5.7v36c0,0-9.6,3.1-9,7.3
	c23.1,17.1,117.2,15.8,123.1,15.7c5.9,0.1,99.9,1.3,123.1-15.7c0.6-4.2-9-7.3-9-7.3v-36c0,0-11.3-1.6-15.8-5.7
	c-4.5-4.2-7.7-9.1-7.7-9.1L479,634c0,0,0.2-6-6.5-13.3s-7.5-11.8-7.5-11.8l-2.7-27.5c0,0-36.2-1.6-35-58.2
	c72.3-60.6,83.2-240.5,83.2-240.5l84.6-0.2C570.7,408.1,441.8,515.4,449,524.4C573.4,451.7,611.3,360.8,621,334
	C630.7,307.2,636.7,249.3,635.1,247z"/>
</svg>